<?xml version="1.0" encoding="utf-8"?>
<!DOCTYPE svg PUBLIC "-//W3C//DTD SVG 1.1//EN" "http://www.w3.org/Graphics/SVG/1.1/DTD/svg11.dtd">
<svg version="1.1" id="Layer_1" xmlns="http://www.w3.org/2000/svg" xmlns:xlink="http://www.w3.org/1999/xlink" x="0px" y="0px"
	 width="840.49px" height="315px" viewBox="-339.999 -17.251 840.49 315" enable-background="new -339.999 -17.251 840.49 315"
	 xml:space="preserve">
<g>
	<rect x="354.281" y="211.972" fill="#010101" width="122.203" height="15.813"/>
	<g>
		<path fill="#020202" d="M-214.948,121.974h-52.202l-15.81,29.104h-27.837l74.468-131.718h30.106l21.39,131.718h-25.699
			L-214.948,121.974z M-218.271,100.058l-7.642-53.019l-31.805,53.019H-218.271z"/>
		<path fill="#020202" d="M-165.012,157.352l28.842,3.515c0.481,3.362,1.605,5.665,3.319,6.92c2.4,1.778,6.177,2.692,11.327,2.692
			c6.588,0,11.528-0.98,14.82-2.96c2.232-1.316,3.892-3.448,5.034-6.378c0.78-2.102,1.167-5.957,1.167-11.586v-13.918
			c-7.541,10.318-17.064,15.466-28.568,15.466c-12.819,0-22.967-5.434-30.444-16.276c-5.863-8.564-8.802-19.236-8.802-31.991
			c0-15.989,3.85-28.208,11.546-36.657c7.696-8.448,17.271-12.669,28.711-12.669c11.802,0,21.532,5.189,29.198,15.544V55.671h23.631
			v85.631c0,11.263-0.941,19.674-2.799,25.242c-1.852,5.561-4.459,9.935-7.815,13.102c-3.356,3.18-7.831,5.665-13.431,7.462
			c-5.601,1.791-12.679,2.698-21.243,2.698c-16.194,0-27.664-2.783-34.419-8.332c-6.767-5.537-10.148-12.524-10.148-21.052
			C-165.079,159.594-165.054,158.558-165.012,157.352z M-142.462,101.398c0,10.124,1.958,17.519,5.899,22.221
			c3.932,4.69,8.741,7.066,14.491,7.066c6.173,0,11.384-2.425,15.654-7.261c4.255-4.818,6.375-11.921,6.375-21.393
			c0-9.904-2.038-17.227-6.106-22.026c-4.054-4.8-9.225-7.182-15.454-7.182c-6.052,0-11.034,2.327-14.96,7.029
			C-140.498,84.55-142.462,91.762-142.462,101.398z"/>
		<path fill="#020202" d="M-26.104,151.079h-25.23V55.653h23.448v13.571c4.017-6.408,7.62-10.623,10.821-12.657
			c3.207-2.047,6.837-3.058,10.916-3.058c5.75,0,11.284,1.602,16.629,4.769L2.647,80.298c-4.243-2.76-8.19-4.137-11.845-4.137
			c-3.533,0-6.527,0.969-8.984,2.9c-2.458,1.942-4.383,5.47-5.799,10.556c-1.404,5.093-2.123,15.752-2.123,31.979V151.079z"/>
		<path fill="#020202" d="M15.515,102.032c0-8.394,2.059-16.501,6.173-24.353c4.136-7.858,9.993-13.84,17.576-17.981
			c7.593-4.13,16.044-6.188,25.388-6.188c14.416,0,26.27,4.678,35.479,14.046c9.197,9.356,13.828,21.234,13.828,35.536
			c0,14.437-4.666,26.399-13.975,35.896c-9.307,9.479-21.024,14.254-35.17,14.254c-8.744,0-17.077-1.974-25.023-5.921
			c-7.943-3.978-13.967-9.782-18.115-17.427C17.546,122.254,15.515,112.996,15.515,102.032z M41.363,103.372
			c0,9.472,2.25,16.721,6.734,21.746c4.498,5.031,10.026,7.553,16.629,7.553c6.594,0,12.109-2.521,16.567-7.553
			c4.475-5.031,6.697-12.341,6.697-21.917c0-9.344-2.223-16.531-6.697-21.563c-4.458-5.031-9.979-7.553-16.567-7.553
			c-6.603,0-12.131,2.521-16.629,7.553C43.62,86.669,41.363,93.894,41.363,103.372z"/>
		<path fill="#020202" d="M122.682,55.653h14.01v-7.188c0-8.028,0.863-14.01,2.557-17.97c1.701-3.946,4.855-7.188,9.441-9.672
			c4.582-2.492,10.367-3.719,17.385-3.719c7.201,0,14.242,1.084,21.113,3.244l-3.412,17.592c-4.02-0.963-7.881-1.438-11.598-1.438
			c-3.654,0-6.273,0.853-7.857,2.546c-1.607,1.705-2.387,4.994-2.387,9.867v6.726h18.857v19.857h-18.857v75.567h-25.242V75.499
			h-14.01V55.653z"/>
		<path fill="#020202" d="M250.256,120.719l25.156,4.216c-3.234,9.234-8.344,16.245-15.313,21.069
			c-6.969,4.8-15.709,7.236-26.193,7.236c-16.592,0-28.871-5.434-36.826-16.275c-6.287-8.668-9.43-19.626-9.43-32.881
			c0-15.807,4.129-28.209,12.4-37.169c8.254-8.954,18.725-13.406,31.365-13.406c14.186,0,25.369,4.678,33.592,14.046
			c8.193,9.356,12.117,23.743,11.781,43.102h-63.252c0.178,7.474,2.211,13.291,6.092,17.47c3.887,4.166,8.746,6.25,14.559,6.25
			c3.959,0,7.285-1.072,9.977-3.241C246.844,128.967,248.891,125.496,250.256,120.719z M251.693,95.185
			c-0.184-7.31-2.07-12.877-5.664-16.678c-3.57-3.801-7.969-5.689-13.098-5.689c-5.506,0-10.063,1.998-13.656,6.019
			c-3.605,4.021-5.373,9.466-5.311,16.349H251.693z"/>
		<path fill="#020202" d="M297.354,151.079V19.361h25.23v131.718H297.354z"/>
		<path fill="#020202" d="M348.471,42.727V19.374h25.23v23.354H348.471z M348.471,151.079V55.653h25.23v95.426H348.471z"/>
		<path fill="#020202" d="M390.695,123.863l25.34-3.862c1.061,4.91,3.266,8.626,6.555,11.172c3.301,2.546,7.912,3.825,13.832,3.825
			c6.543,0,11.439-1.182,14.748-3.569c2.211-1.682,3.313-3.923,3.313-6.749c0-1.913-0.596-3.497-1.791-4.752
			c-1.254-1.205-4.063-2.314-8.441-3.325c-20.369-4.495-33.271-8.613-38.729-12.329c-7.541-5.153-11.318-12.304-11.318-21.453
			c0-8.271,3.266-15.21,9.809-20.844c6.529-5.629,16.652-8.443,30.346-8.443c13.084,0,22.77,2.12,29.115,6.366
			c6.348,4.245,10.721,10.537,13.098,18.858l-23.799,4.392c-1-3.716-2.955-6.555-5.805-8.534c-2.84-1.974-6.891-2.966-12.17-2.966
			c-6.658,0-11.41,0.938-14.291,2.802c-1.912,1.315-2.887,3.009-2.887,5.116c0,1.791,0.846,3.326,2.521,4.581
			c2.277,1.669,10.135,4.038,23.586,7.103c13.436,3.058,22.83,6.798,28.166,11.22c5.262,4.508,7.912,10.745,7.912,18.785
			c0,8.747-3.643,16.264-10.971,22.55c-7.311,6.305-18.109,9.448-32.424,9.448c-12.998,0-23.287-2.65-30.871-7.913
			C397.957,140.059,393.021,132.89,390.695,123.863z"/>
	</g>
	<g>
		<path fill="#020202" d="M74.475,249.458l11.635-55.662h8.381l-2.326,11.36c2.85-4.295,5.641-7.45,8.393-9.521
			c2.742-2.06,5.549-3.095,8.426-3.095c1.893,0,4.189,0.664,6.967,2.059l-3.873,8.796c-1.65-1.182-3.467-1.778-5.422-1.778
			c-3.295,0-6.693,1.852-10.227,5.555c-3.484,3.686-6.225,10.355-8.217,19.968l-4.715,22.33h-9.021V249.458z"/>
		<path fill="#020202" d="M111.875,228.333c0-10.879,3.191-19.869,9.6-26.996c5.287-5.866,12.207-8.809,20.771-8.809
			c6.713,0,12.098,2.108,16.215,6.293c4.117,4.19,6.152,9.861,6.152,16.976c0,6.396-1.279,12.341-3.875,17.848
			c-2.582,5.482-6.262,9.722-11.037,12.657c-4.775,2.912-9.807,4.386-15.057,4.386c-4.35,0-8.273-0.926-11.818-2.789
			c-3.545-1.84-6.268-4.459-8.143-7.846C112.838,236.691,111.875,232.768,111.875,228.333z M121.354,227.383
			c0,5.245,1.266,9.229,3.77,11.938c2.521,2.699,5.727,4.057,9.6,4.057c2.023,0,4.039-0.401,6.061-1.23
			c1.969-0.815,3.82-2.059,5.52-3.739c1.723-1.669,3.18-3.582,4.385-5.75c1.201-2.145,2.193-4.459,2.912-6.944
			c1.072-3.447,1.621-6.762,1.621-9.929c0-5.031-1.279-8.942-3.814-11.738c-2.545-2.765-5.713-4.142-9.563-4.142
			c-2.961,0-5.678,0.688-8.113,2.12c-2.449,1.431-4.666,3.515-6.641,6.213c-1.967,2.723-3.422,5.878-4.342,9.508
			C121.84,221.316,121.354,224.576,121.354,227.383z"/>
		<path fill="#020202" d="M169.9,249.458l16.031-76.842h9.49l-5.725,27.453c3.002-2.747,5.736-4.702,8.174-5.835
			c2.461-1.146,5.008-1.706,7.676-1.706c5.189,0,9.531,1.932,13.021,5.842c3.496,3.862,5.227,9.484,5.227,16.916
			c0,4.921-0.719,9.429-2.107,13.522c-1.42,4.105-3.143,7.517-5.201,10.306c-2.047,2.778-4.18,4.982-6.396,6.664
			c-2.193,1.657-4.459,2.888-6.748,3.728c-2.303,0.816-4.521,1.219-6.664,1.219c-3.668,0-6.902-0.963-9.697-2.905
			c-2.791-1.949-4.971-4.904-6.555-8.894l-2.205,10.544h-8.32V249.458z M183.947,226.604l-0.063,1.79
			c0,4.745,1.146,8.376,3.436,10.855c2.242,2.454,5.08,3.69,8.48,3.69c3.313,0,6.371-1.145,9.16-3.483
			c2.754-2.327,5.043-5.945,6.822-10.867c1.791-4.934,2.674-9.466,2.674-13.645c0-4.69-1.115-8.296-3.387-10.903
			c-2.24-2.595-5.037-3.874-8.363-3.874c-3.424,0-6.566,1.316-9.43,3.959c-2.875,2.645-5.238,6.713-7.168,12.195
			C184.666,220.409,183.947,223.838,183.947,226.604z"/>
		<path fill="#020202" d="M231.264,228.333c0-10.879,3.209-19.869,9.588-26.996c5.305-5.866,12.207-8.809,20.77-8.809
			c6.713,0,12.135,2.108,16.234,6.293c4.111,4.19,6.158,9.861,6.158,16.976c0,6.396-1.305,12.341-3.887,17.848
			c-2.57,5.482-6.262,9.722-11.043,12.657c-4.77,2.912-9.777,4.386-15.045,4.386c-4.32,0-8.279-0.926-11.824-2.789
			c-3.533-1.84-6.25-4.459-8.113-7.846C232.213,236.691,231.264,232.768,231.264,228.333z M240.766,227.383
			c0,5.245,1.254,9.229,3.764,11.938c2.521,2.699,5.715,4.057,9.588,4.057c2.035,0,4.045-0.401,6.031-1.23
			c2.01-0.815,3.85-2.059,5.572-3.739c1.699-1.669,3.156-3.582,4.361-5.75c1.201-2.145,2.188-4.459,2.912-6.944
			c1.061-3.447,1.596-6.762,1.596-9.929c0-5.031-1.248-8.942-3.783-11.738c-2.521-2.765-5.725-4.142-9.563-4.142
			c-2.947,0-5.678,0.688-8.102,2.12c-2.467,1.431-4.689,3.515-6.65,6.213c-1.975,2.734-3.424,5.878-4.35,9.508
			C241.229,221.316,240.766,224.576,240.766,227.383z"/>
		<path fill="#020202" d="M311.473,241.752l-1.584,7.772c-2.266,0.585-4.471,0.877-6.615,0.877c-3.77,0-6.773-0.92-9.002-2.759
			c-1.682-1.432-2.521-3.313-2.521-5.714c0-1.23,0.463-4.069,1.363-8.455l6.762-32.313h-7.492l1.51-7.364h7.506l2.887-13.663
			l10.818-6.572l-4.229,20.223h9.32l-1.584,7.347h-9.271l-6.455,30.772c-0.793,3.911-1.195,6.25-1.195,7.005
			c0,1.133,0.336,1.986,0.975,2.583c0.658,0.597,1.707,0.901,3.18,0.901C307.939,242.38,309.828,242.161,311.473,241.752z"/>
	</g>
	<rect x="-319.312" y="212.625" fill="#010101" width="15.326" height="15.338"/>
	<rect x="-274.983" y="212.625" fill="#010101" width="28.748" height="15.338"/>
	<rect x="-217.235" y="212.625" fill="#010101" width="28.748" height="15.338"/>
	<rect x="-159.258" y="212.625" fill="#010101" width="28.51" height="15.338"/>
	<rect x="-101.276" y="212.625" fill="#010101" width="28.51" height="15.338"/>
	<rect x="-43.781" y="212.625" fill="#010101" width="28.894" height="15.338"/>
	<rect x="14.022" y="212.625" fill="#010101" width="15.332" height="15.338"/>
</g>
</svg>
