<?xml version="1.0" encoding="utf-8"?>
<!-- Generator: Adobe Illustrator 16.0.0, SVG Export Plug-In . SVG Version: 6.00 Build 0)  -->
<!DOCTYPE svg PUBLIC "-//W3C//DTD SVG 1.1//EN" "http://www.w3.org/Graphics/SVG/1.1/DTD/svg11.dtd">
<svg version="1.1" id="Layer_1" xmlns="http://www.w3.org/2000/svg" xmlns:xlink="http://www.w3.org/1999/xlink" x="0px" y="0px"
	 width="841.889px" height="595.281px" viewBox="0 0 841.889 595.281" enable-background="new 0 0 841.889 595.281"
	 xml:space="preserve">
<path fill-opacity="0" stroke="#FF0000" stroke-width="0.24" d="M0,595.281l9.473-8.607v-9.646v-9.648v-9.646v-9.648v-9.646v-9.646
	v-9.648v-9.646L0,495.57l15.332,4.502l7.632,9.424v9.646v9.648v9.646v9.646v9.648v9.646v9.648v9.646h27.266v-9.646v-9.648v-9.646
	v-9.648v-9.646v-9.646v-9.648h22.728v9.648v9.646v9.646v9.648v9.646v19.295l39.119-19.295v-9.646v-9.648v-9.646v-9.646v-9.648
	l40.155-23.572l-8.581,7.077l-9.021,16.495v9.648v9.646v9.646v9.648v9.646v9.648l9.021,12.388l8.581,5.866H0z"/>
</svg>
