<?xml version="1.0" encoding="UTF-8" standalone="no"?>
<!DOCTYPE svg PUBLIC "-//W3C//DTD SVG 1.1//EN" "http://www.w3.org/Graphics/SVG/1.1/DTD/svg11.dtd">
<svg width="100%" height="100%" viewBox="0 0 595.2 841.92" version="1.1" xmlns="http://www.w3.org/2000/svg">
  <path d="M240.1714,424.6887 L247.2692,418.2399 L247.2692,411.0115 L247.2692,403.7832 L247.2692,396.5549 L247.2692,389.3265 L247.2692,382.0982 L247.2692,374.8698 L247.2692,367.6415 L247.2692,360.4131 L240.1714,349.9807 L251.6594,353.3527 L257.377,360.4131 L257.377,367.6415 L257.377,374.8698 L257.377,382.0982 L257.377,389.3265 L257.377,396.5549 L257.377,403.7832 L257.377,411.0115 L257.377,418.2399 L277.8069,418.2399 L277.8069,411.0115 L277.8069,403.7832 L277.8069,396.5549 L277.8069,389.3265 L277.8069,382.0982 L277.8069,374.8698 L277.8069,367.6415 L294.8353,367.6415 L294.8353,374.8698 L294.8353,382.0982 L294.8353,389.3265 L294.8353,396.5549 L294.8353,403.7832 L294.8353,418.2399 L324.1449,403.7832 L324.1449,396.5549 L324.1449,389.3265 L324.1449,382.0982 L324.1449,374.8698 L324.1449,367.6415 L354.2315,349.9807 L347.8022,355.2826 L341.0438,367.6415 L341.0438,374.8698 L341.0438,382.0982 L341.0438,389.3265 L341.0438,396.5549 L341.0438,403.7832 L341.0438,411.0115 L347.8022,420.2931 L354.2315,424.6887 z" stroke="#FF0000" stroke-width="0.24" fill-opacity="0" />
</svg>