<?xml version="1.0" encoding="utf-8"?>
<!-- Generator: Adobe Illustrator 16.0.0, SVG Export Plug-In . SVG Version: 6.00 Build 0)  -->
<!DOCTYPE svg PUBLIC "-//W3C//DTD SVG 1.1//EN" "http://www.w3.org/Graphics/SVG/1.1/DTD/svg11.dtd">
<svg version="1.1" id="Layer_1" xmlns="http://www.w3.org/2000/svg" xmlns:xlink="http://www.w3.org/1999/xlink" x="0px" y="0px"
	 width="841.889px" height="595.281px" viewBox="0 0 841.889 595.281" enable-background="new 0 0 841.889 595.281"
	 xml:space="preserve">
<path fill-opacity="0" stroke="#000000" stroke-width="0.24" d="M0,495.572h152.23v99.709H0V495.572z"/>
<path fill-opacity="0" stroke="#000000" stroke-width="0.24" d="M0,543.26v-9.646h30.055v9.646H0z"/>
<path fill-opacity="0" stroke="#000000" stroke-width="0.24" d="M0,581.85v-9.648h30.055v9.648H0z"/>
<path fill-opacity="0" stroke="#000000" stroke-width="0.24" d="M0,572.202v-9.646h30.055v9.646H0z"/>
<path fill-opacity="0" stroke="#000000" stroke-width="0.24" d="M104.987,533.614v-9.648h36.733v9.648H104.987z"/>
<path fill-opacity="0" stroke="#000000" stroke-width="0.24" d="M80.048,562.555H67.57c-1.038,0.017-2.155-0.485-2.832-1.274
	l-7.418-8.374H43.141"/>
<path fill-opacity="0" stroke="#000000" stroke-width="0.24" d="M118.13,572.202h-13.144v-19.295v-9.646h14.18v-9.646h-14.18h-7.884
	v9.646v35.083h23.879l6.559-6.142h18.392v-9.646H127.54l-6.434,8.199C120.44,571.641,119.24,572.225,118.13,572.202z"/>
<path fill-opacity="0" stroke="#000000" stroke-width="0.24" d="M137.935,514.319H113.63H80.048h-14.18l-8.548,9.646H43.141v38.59
	h12.476c1.04-0.017,2.157,0.484,2.832,1.273l7.419,8.373h14.18v-19.295H69.651c-1.862,0.19-3.973-1.921-3.783-3.782v-5.864h20.704
	v34.254H65.556l-8.236-5.313H30.055v-57.883H0v-9.647v-9.1h10.646v5.316c-0.188,1.861,1.921,3.973,3.783,3.783H57.32l39.783,3.363
	h44.692c2.776-0.066,4.251,2.01,4.137,3.785v50.735H127.54v-5.864c-0.189-1.861,1.921-3.973,3.783-3.784h6.611
	c1.862,0.19,3.973-1.921,3.785-3.782v-31.023C141.907,516.24,139.797,514.13,137.935,514.319z"/>
<path fill-opacity="0" stroke="#000000" stroke-width="0.24" d="M129.74,581.85h16.192v-9.648H127.54l-6.559,6.142H97.103v-44.729
	H65.868v9.646h20.704v34.254H65.556l-8.236-5.313H30.055v23.079h77.096L129.74,581.85z"/>
<path fill-opacity="0" stroke="#000000" stroke-width="0.24" d="M0,523.966v-9.646h30.055v9.646H0z"/>
<path fill-opacity="0" stroke="#000000" stroke-width="0.24" d="M0,562.555v-9.648h30.055v9.648H0z"/>
<path fill-opacity="0" stroke="#000000" stroke-width="0.24" d="M0,533.614v-9.648h30.055v9.648H0z"/>
<path fill-opacity="0" stroke="#000000" stroke-width="0.24" d="M130.022,543.26h11.698v-9.646h-22.554v15.511
	c0.188,1.861-1.923,3.973-3.785,3.782h-10.395v9.648h11.696c1.401,0.059,2.968-0.968,3.471-2.276l6.396-14.742
	C127.056,544.228,128.62,543.201,130.022,543.26z"/>
<path fill-opacity="0" stroke="#000000" stroke-width="0.24" d="M0,552.907v-9.646h30.055v9.646H0z"/>
<path fill-opacity="0" stroke="#000000" stroke-width="0.24" d="M80.048,533.614v-9.648h-14.18l-8.548,9.648H43.141v9.646H57.32
	h8.548"/>
<path fill-opacity="0" stroke="#000000" stroke-width="0.24" d="M43.141,533.614H57.32l8.548-9.648h14.18v-9.646h-14.18
	l-8.548,9.646H43.141V533.614z"/>
<path fill-opacity="0" stroke="#000000" stroke-width="0.24" d="M15.873,514.319h-9.58"/>
<path fill-opacity="0" stroke="#000000" stroke-width="0.24" d="M15.873,543.26h-9.58"/>
<path fill-opacity="0" stroke="#000000" stroke-width="0.24" d="M65.868,533.614h14.18"/>
<path fill-opacity="0" stroke="#000000" stroke-width="0.24" d="M104.987,523.966v-9.646"/>
</svg>
