<?xml version="1.0" encoding="UTF-8" standalone="no"?>
<!DOCTYPE svg PUBLIC "-//W3C//DTD SVG 1.1//EN" "http://www.w3.org/Graphics/SVG/1.1/DTD/svg11.dtd">
<svg width="100%" height="100%" viewBox="0 0 595.2 841.92" version="1.1" xmlns="http://www.w3.org/2000/svg">
  <path d="M229.9307,350.0833 L343.9908,350.0833 L343.9908,424.7912 L229.9307,424.7912 z" stroke="#000000" stroke-width="0.24" fill-opacity="0" />
  <path d="M229.9307,385.8148 L229.9307,378.5865 L252.4484,378.5865 L252.4484,385.8148 z" stroke="#000000" stroke-width="0.24" fill-opacity="0" />
  <path d="M229.9307,414.7282 L229.9307,407.4999 L252.4484,407.4999 L252.4484,414.7282 z" stroke="#000000" stroke-width="0.24" fill-opacity="0" />
  <path d="M229.9307,407.4999 L229.9307,400.2715 L252.4484,400.2715 L252.4484,407.4999 z" stroke="#000000" stroke-width="0.24" fill-opacity="0" />
  <path d="M308.5921,378.5865 L308.5921,371.3582 L336.1152,371.3582 L336.1152,378.5865 z" stroke="#000000" stroke-width="0.24" fill-opacity="0" />
  <path d="M289.9066,400.2715 L280.5582,400.2715 C279.7798,400.2845 278.9429,399.9079 278.4365,399.3167 L272.8784,393.0432 L262.2541,393.0432" stroke="#000000" stroke-width="0.24" fill-opacity="0" />
  <path d="M318.441,407.4999 L308.5921,407.4999 L308.5921,393.0432 L308.5921,385.8148 L319.2163,385.8148 L319.2163,378.5865 L308.5921,378.5865 L302.6859,378.5865 L302.6859,385.8148 L302.6859,412.1021 L320.5771,412.1021 L325.491,407.4999 L339.2719,407.4999 L339.2719,400.2715 L325.491,400.2715 L320.6712,406.4149 C320.1718,407.0789 319.2716,407.5168 318.441,407.4999 z" stroke="#000000" stroke-width="0.24" fill-opacity="0" />
  <path d="M333.2805,364.1298 L315.0696,364.1298 L289.9066,364.1298 L279.2824,364.1298 L272.8784,371.3582 L262.2541,371.3582 L262.2541,400.2715 L271.6026,400.2715 C272.381,400.2586 273.2179,400.6352 273.7243,401.2264 L279.2824,407.4999 L289.9066,407.4999 L289.9066,393.0432 L282.1171,393.0432 C280.7223,393.1846 279.141,391.6034 279.2824,390.2086 L279.2824,385.8148 L294.7952,385.8148 L294.7952,411.4794 L279.0494,411.4794 L272.8784,407.4999 L252.4484,407.4999 L252.4484,364.1298 L229.9307,364.1298 L229.9307,356.9015 L229.9307,350.0833 L237.9065,350.0833 L237.9065,354.0668 C237.7651,355.4617 239.3463,357.0429 240.7412,356.9015 L272.8784,356.9015 L302.6859,359.4224 L336.1727,359.4224 C338.2518,359.3723 339.3573,360.928 339.2719,362.2571 L339.2719,400.2715 L325.491,400.2715 L325.491,395.8778 C325.3496,394.483 326.9308,392.9018 328.3256,393.0432 L333.2805,393.0432 C334.6754,393.1846 336.2566,391.6034 336.1152,390.2086 L336.1152,366.9644 C336.2566,365.5696 334.6754,363.9884 333.2805,364.1298 z" stroke="#000000" stroke-width="0.24" fill-opacity="0" />
  <path d="M327.1393,414.7282 L339.2719,414.7282 L339.2719,407.4999 L325.491,407.4999 L320.5771,412.1021 L302.6859,412.1021 L302.6859,378.5865 L279.2824,378.5865 L279.2824,385.8148 L294.7952,385.8148 L294.7952,411.4794 L279.0494,411.4794 L272.8784,407.4999 L252.4484,407.4999 L252.4484,424.7912 L310.214,424.7912 z" stroke="#000000" stroke-width="0.24" fill-opacity="0" />
  <path d="M229.9307,371.3582 L229.9307,364.1298 L252.4484,364.1298 L252.4484,371.3582 z" stroke="#000000" stroke-width="0.24" fill-opacity="0" />
  <path d="M229.9307,400.2715 L229.9307,393.0432 L252.4484,393.0432 L252.4484,400.2715 z" stroke="#000000" stroke-width="0.24" fill-opacity="0" />
  <path d="M229.9307,378.5865 L229.9307,371.3582 L252.4484,371.3582 L252.4484,378.5865 z" stroke="#000000" stroke-width="0.24" fill-opacity="0" />
  <path d="M327.3508,385.8148 L336.1152,385.8148 L336.1152,378.5865 L319.2163,378.5865 L319.2163,390.2086 C319.3577,391.6034 317.7765,393.1846 316.3817,393.0432 L308.5921,393.0432 L308.5921,400.2715 L317.3565,400.2715 C318.4065,400.3162 319.5797,399.5465 319.9568,398.5655 L324.7505,387.5209 C325.1276,386.5399 326.3008,385.7702 327.3508,385.8148 z" stroke="#000000" stroke-width="0.24" fill-opacity="0" />
  <path d="M229.9307,393.0432 L229.9307,385.8148 L252.4484,385.8148 L252.4484,393.0432 z" stroke="#000000" stroke-width="0.24" fill-opacity="0" />
  <path d="M289.9066,378.5865 L289.9066,371.3582 L279.2824,371.3582 L272.8784,378.5865 L262.2541,378.5865 L262.2541,385.8148 L272.8784,385.8148 L279.2824,385.8148" stroke="#000000" stroke-width="0.24" fill-opacity="0" />
  <path d="M262.2542,378.5865 L272.8784,378.5865 L279.2825,371.3582 L289.9067,371.3582 L289.9067,364.1298 L279.2825,364.1298 L272.8784,371.3582 L262.2542,371.3582 z" stroke="#000000" stroke-width="0.24" fill-opacity="0" />
  <path d="M241.8242,364.1298 L234.6461,364.1298" stroke="#000000" stroke-width="0.24" fill-opacity="0" />
  <path d="M241.8242,385.8149 L234.6461,385.8149" stroke="#000000" stroke-width="0.24" fill-opacity="0" />
  <path d="M279.2825,378.5865 L289.9067,378.5865" stroke="#000000" stroke-width="0.24" fill-opacity="0" />
  <path d="M308.5921,371.3582 L308.5921,364.1298" stroke="#000000" stroke-width="0.24" fill-opacity="0" />
</svg>