<?xml version="1.0" encoding="utf-8"?>
<!-- Generator: Adobe Illustrator 16.0.0, SVG Export Plug-In . SVG Version: 6.00 Build 0)  -->
<!DOCTYPE svg PUBLIC "-//W3C//DTD SVG 1.1//EN" "http://www.w3.org/Graphics/SVG/1.1/DTD/svg11.dtd">
<svg version="1.1" id="Layer_1" xmlns="http://www.w3.org/2000/svg" xmlns:xlink="http://www.w3.org/1999/xlink" x="0px" y="0px"
	 width="128.116px" height="37.455px" viewBox="15.918 10.835 128.116 37.455"
	 enable-background="new 15.918 10.835 128.116 37.455" xml:space="preserve">
<g>
	<rect x="123.91" y="42.077" fill="#FFFFFF" width="19.592" height="2.535"/>
	<g>
		<path fill="#FFFFFF" d="M32.65,27.648h-8.369l-2.535,4.666h-4.463l11.939-21.117h4.827l3.429,21.117h-4.12L32.65,27.648z
			 M32.117,24.134l-1.225-8.5l-5.099,8.5H32.117z"/>
		<path fill="#FFFFFF" d="M40.656,33.32l4.624,0.563c0.077,0.539,0.257,0.908,0.532,1.109c0.385,0.285,0.99,0.432,1.816,0.432
			c1.056,0,1.848-0.157,2.376-0.475c0.358-0.211,0.624-0.553,0.807-1.022c0.125-0.337,0.187-0.955,0.187-1.857v-2.231
			c-1.209,1.654-2.736,2.479-4.58,2.479c-2.055,0-3.682-0.871-4.881-2.609c-0.94-1.373-1.411-3.084-1.411-5.129
			c0-2.564,0.617-4.523,1.851-5.877c1.234-1.355,2.769-2.031,4.603-2.031c1.892,0,3.452,0.832,4.681,2.492v-2.146h3.789v13.729
			c0,1.806-0.151,3.154-0.449,4.047c-0.297,0.892-0.715,1.593-1.253,2.101c-0.538,0.51-1.255,0.908-2.153,1.196
			c-0.898,0.287-2.033,0.433-3.406,0.433c-2.596,0-4.435-0.446-5.518-1.336c-1.085-0.888-1.627-2.008-1.627-3.375
			C40.645,33.679,40.649,33.513,40.656,33.32z M44.271,24.349c0,1.623,0.314,2.809,0.946,3.563c0.63,0.752,1.401,1.133,2.323,1.133
			c0.99,0,1.825-0.389,2.51-1.164c0.682-0.773,1.022-1.912,1.022-3.43c0-1.588-0.327-2.762-0.979-3.531
			c-0.65-0.77-1.479-1.152-2.478-1.152c-0.97,0-1.769,0.373-2.398,1.127C44.586,21.648,44.271,22.804,44.271,24.349z"/>
		<path fill="#FFFFFF" d="M62.926,32.314h-4.045V17.015h3.759v2.176c0.644-1.027,1.222-1.703,1.735-2.029
			c0.514-0.328,1.096-0.49,1.75-0.49c0.922,0,1.809,0.256,2.666,0.764l-1.256,3.531c-0.68-0.443-1.313-0.664-1.899-0.664
			c-0.566,0-1.046,0.156-1.44,0.465c-0.394,0.311-0.703,0.877-0.93,1.693c-0.225,0.816-0.34,2.525-0.34,5.127V32.314z"/>
		<path fill="#FFFFFF" d="M69.598,24.451c0-1.346,0.33-2.646,0.99-3.904c0.663-1.26,1.602-2.219,2.818-2.883
			c1.217-0.662,2.572-0.992,4.07-0.992c2.311,0,4.211,0.75,5.688,2.252c1.475,1.5,2.217,3.404,2.217,5.697
			c0,2.314-0.748,4.232-2.24,5.754c-1.492,1.52-3.371,2.285-5.639,2.285c-1.402,0-2.738-0.316-4.012-0.949
			c-1.273-0.638-2.239-1.568-2.904-2.793C69.924,27.693,69.598,26.208,69.598,24.451z M73.742,24.666c0,1.518,0.361,2.68,1.08,3.486
			c0.721,0.807,1.607,1.211,2.666,1.211c1.057,0,1.941-0.404,2.656-1.211c0.717-0.807,1.074-1.979,1.074-3.514
			c0-1.498-0.356-2.65-1.074-3.457c-0.715-0.807-1.6-1.211-2.656-1.211c-1.059,0-1.945,0.404-2.666,1.211
			C74.104,21.988,73.742,23.146,73.742,24.666z"/>
		<path fill="#FFFFFF" d="M86.779,17.015h2.246v-1.152c0-1.287,0.139-2.246,0.41-2.881c0.272-0.633,0.778-1.152,1.514-1.551
			c0.734-0.399,1.662-0.596,2.787-0.596c1.154,0,2.283,0.174,3.385,0.52l-0.547,2.82c-0.645-0.154-1.264-0.23-1.859-0.23
			c-0.586,0-1.006,0.137-1.26,0.408c-0.258,0.273-0.383,0.801-0.383,1.582v1.078h3.023v3.184h-3.023v12.115h-4.047V20.197h-2.246
			V17.015z"/>
		<path fill="#FFFFFF" d="M107.232,27.447l4.033,0.676c-0.519,1.48-1.338,2.604-2.455,3.377c-1.117,0.77-2.519,1.16-4.199,1.16
			c-2.66,0-4.629-0.871-5.904-2.609c-1.008-1.389-1.512-3.146-1.512-5.271c0-2.535,0.662-4.523,1.988-5.959
			c1.323-1.436,3.002-2.15,5.028-2.15c2.274,0,4.067,0.75,5.386,2.252c1.313,1.5,1.942,3.807,1.889,6.91h-10.141
			c0.028,1.199,0.354,2.131,0.977,2.801c0.623,0.668,1.402,1.002,2.334,1.002c0.635,0,1.168-0.172,1.6-0.52
			C106.686,28.769,107.014,28.212,107.232,27.447z M107.463,23.353c-0.029-1.172-0.332-2.064-0.908-2.674
			c-0.572-0.609-1.277-0.912-2.1-0.912c-0.883,0-1.613,0.32-2.189,0.965c-0.578,0.645-0.861,1.518-0.852,2.621H107.463z"/>
		<path fill="#FFFFFF" d="M114.783,32.314V11.197h4.045v21.117H114.783z"/>
		<path fill="#FFFFFF" d="M122.979,14.943v-3.744h4.045v3.744H122.979z M122.979,32.314V17.015h4.045v15.299H122.979z"/>
		<path fill="#FFFFFF" d="M129.748,27.951l4.063-0.619c0.17,0.787,0.523,1.383,1.051,1.791c0.529,0.408,1.269,0.613,2.218,0.613
			c1.049,0,1.834-0.189,2.364-0.572c0.354-0.27,0.531-0.629,0.531-1.082c0-0.307-0.096-0.561-0.287-0.762
			c-0.201-0.193-0.651-0.371-1.354-0.533c-3.266-0.721-5.334-1.381-6.209-1.977c-1.209-0.826-1.814-1.973-1.814-3.439
			c0-1.326,0.523-2.439,1.572-3.342c1.047-0.902,2.67-1.354,4.865-1.354c2.098,0,3.65,0.34,4.668,1.021
			c1.018,0.68,1.719,1.689,2.1,3.023l-3.815,0.705c-0.16-0.596-0.474-1.051-0.931-1.369c-0.455-0.316-1.104-0.475-1.951-0.475
			c-1.067,0-1.829,0.15-2.291,0.449c-0.307,0.211-0.463,0.482-0.463,0.82c0,0.287,0.136,0.533,0.404,0.734
			c0.365,0.268,1.625,0.648,3.781,1.139c2.154,0.49,3.66,1.09,4.516,1.799c0.844,0.723,1.269,1.723,1.269,3.012
			c0,1.402-0.584,2.607-1.759,3.615c-1.172,1.011-2.903,1.515-5.198,1.515c-2.084,0-3.733-0.425-4.949-1.269
			C130.912,30.547,130.121,29.398,129.748,27.951z"/>
	</g>
	<g>
		<path fill="#FFFFFF" d="M79.051,48.086l1.865-8.924h1.344l-0.373,1.821c0.457-0.688,0.904-1.194,1.346-1.526
			c0.439-0.33,0.89-0.496,1.351-0.496c0.304,0,0.672,0.106,1.117,0.33l-0.621,1.41c-0.265-0.189-0.556-0.285-0.869-0.285
			c-0.528,0-1.073,0.297-1.64,0.891c-0.559,0.591-0.998,1.66-1.317,3.201l-0.756,3.58h-1.446V48.086z"/>
		<path fill="#FFFFFF" d="M85.047,44.7c0-1.744,0.512-3.186,1.539-4.328c0.848-0.94,1.957-1.412,3.33-1.412
			c1.076,0,1.939,0.338,2.6,1.009c0.66,0.672,0.986,1.581,0.986,2.722c0,1.025-0.205,1.979-0.621,2.861
			c-0.414,0.879-1.004,1.559-1.77,2.029c-0.766,0.467-1.572,0.703-2.414,0.703c-0.697,0-1.326-0.148-1.895-0.447
			c-0.568-0.295-1.005-0.715-1.306-1.258C85.201,46.04,85.047,45.411,85.047,44.7z M86.566,44.547c0,0.841,0.203,1.479,0.604,1.914
			c0.404,0.433,0.918,0.65,1.539,0.65c0.324,0,0.647-0.064,0.972-0.197c0.315-0.131,0.612-0.33,0.885-0.6
			c0.276-0.268,0.51-0.574,0.703-0.922c0.192-0.344,0.352-0.715,0.467-1.113c0.172-0.553,0.26-1.084,0.26-1.592
			c0-0.807-0.205-1.434-0.611-1.882c-0.408-0.443-0.916-0.664-1.533-0.664c-0.475,0-0.91,0.11-1.301,0.34
			c-0.393,0.229-0.748,0.563-1.064,0.996c-0.315,0.437-0.549,0.942-0.696,1.524C86.645,43.575,86.566,44.097,86.566,44.547z"/>
		<path fill="#FFFFFF" d="M94.35,48.086l2.57-12.319h1.521l-0.918,4.401c0.481-0.44,0.92-0.754,1.311-0.936
			c0.395-0.184,0.803-0.273,1.23-0.273c0.832,0,1.528,0.31,2.088,0.937c0.561,0.619,0.838,1.521,0.838,2.712
			c0,0.789-0.115,1.512-0.338,2.168c-0.228,0.658-0.504,1.205-0.834,1.652c-0.328,0.445-0.67,0.799-1.025,1.068
			c-0.352,0.266-0.715,0.463-1.082,0.598c-0.369,0.131-0.725,0.195-1.068,0.195c-0.588,0-1.106-0.154-1.555-0.466
			c-0.447-0.313-0.797-0.786-1.051-1.426l-0.354,1.69H94.35V48.086z M96.602,44.422l-0.01,0.287c0,0.761,0.184,1.343,0.551,1.74
			c0.359,0.394,0.814,0.592,1.359,0.592c0.531,0,1.021-0.184,1.469-0.559c0.441-0.373,0.809-0.953,1.094-1.742
			c0.287-0.791,0.429-1.518,0.429-2.188c0-0.752-0.179-1.33-0.543-1.748c-0.359-0.416-0.808-0.621-1.341-0.621
			c-0.549,0-1.053,0.211-1.512,0.635c-0.461,0.424-0.84,1.076-1.149,1.955C96.717,43.429,96.602,43.979,96.602,44.422z"/>
		<path fill="#FFFFFF" d="M104.188,44.7c0-1.744,0.515-3.186,1.537-4.328c0.851-0.94,1.957-1.412,3.33-1.412
			c1.076,0,1.945,0.338,2.603,1.009c0.659,0.672,0.987,1.581,0.987,2.722c0,1.025-0.209,1.979-0.623,2.861
			c-0.412,0.879-1.004,1.559-1.771,2.029c-0.765,0.467-1.567,0.703-2.412,0.703c-0.692,0-1.327-0.148-1.896-0.447
			c-0.566-0.295-1.002-0.715-1.301-1.258C104.34,46.04,104.188,45.411,104.188,44.7z M105.711,44.547
			c0,0.841,0.201,1.479,0.604,1.914c0.404,0.433,0.916,0.65,1.537,0.65c0.326,0,0.648-0.064,0.967-0.197
			c0.322-0.131,0.617-0.33,0.894-0.6c0.272-0.268,0.506-0.574,0.699-0.922c0.192-0.344,0.351-0.715,0.467-1.113
			c0.17-0.553,0.256-1.084,0.256-1.592c0-0.807-0.2-1.434-0.606-1.882c-0.404-0.443-0.918-0.664-1.533-0.664
			c-0.473,0-0.91,0.11-1.299,0.34c-0.396,0.229-0.752,0.563-1.066,0.996c-0.316,0.438-0.549,0.942-0.697,1.524
			C105.785,43.575,105.711,44.097,105.711,44.547z"/>
		<path fill="#FFFFFF" d="M117.047,46.851l-0.254,1.246c-0.363,0.094-0.717,0.141-1.061,0.141c-0.604,0-1.086-0.147-1.443-0.442
			c-0.27-0.229-0.404-0.531-0.404-0.916c0-0.197,0.074-0.652,0.219-1.355l1.084-5.181h-1.201l0.242-1.181h1.203l0.463-2.19
			l1.734-1.054l-0.678,3.242h1.494l-0.254,1.178h-1.486l-1.035,4.934c-0.127,0.627-0.191,1.002-0.191,1.123
			c0,0.182,0.054,0.318,0.156,0.414c0.105,0.096,0.273,0.145,0.51,0.145C116.48,46.952,116.783,46.917,117.047,46.851z"/>
	</g>
	<rect x="15.918" y="42.181" fill="#FFFFFF" width="2.457" height="2.459"/>
	<rect x="23.025" y="42.181" fill="#FFFFFF" width="4.609" height="2.459"/>
	<rect x="32.283" y="42.181" fill="#FFFFFF" width="4.609" height="2.459"/>
	<rect x="41.578" y="42.181" fill="#FFFFFF" width="4.571" height="2.459"/>
	<rect x="50.874" y="42.181" fill="#FFFFFF" width="4.571" height="2.459"/>
	<rect x="60.092" y="42.181" fill="#FFFFFF" width="4.632" height="2.459"/>
	<rect x="69.359" y="42.181" fill="#FFFFFF" width="2.458" height="2.459"/>
</g>
</svg>
