<?xml version="1.0" encoding="utf-8"?>
<!-- Generator: Adobe Illustrator 16.0.0, SVG Export Plug-In . SVG Version: 6.00 Build 0)  -->
<!DOCTYPE svg PUBLIC "-//W3C//DTD SVG 1.1//EN" "http://www.w3.org/Graphics/SVG/1.1/DTD/svg11.dtd">
<svg version="1.1" id="Layer_1" xmlns="http://www.w3.org/2000/svg" xmlns:xlink="http://www.w3.org/1999/xlink" x="0px" y="0px"
	 width="841.889px" height="595.281px" viewBox="0 0 841.889 595.281" enable-background="new 0 0 841.889 595.281"
	 xml:space="preserve">
<path fill-opacity="0" stroke="#000000" stroke-width="0.24" d="M37.698,551.927c-2.782-0.282-5.937,2.872-5.655,5.655
	c-0.282,2.782,2.873,5.937,5.655,5.653c2.784,0.283,5.937-2.871,5.655-5.653C43.635,554.8,40.482,551.645,37.698,551.927z"/>
<path fill-opacity="0" stroke="#000000" stroke-width="0.24" d="M37.698,176.189c-2.782-0.283-5.937,2.872-5.655,5.654
	c-0.282,2.784,2.873,5.937,5.655,5.655c2.784,0.282,5.937-2.872,5.655-5.655C43.635,179.061,40.482,175.906,37.698,176.189z"/>
<path fill-opacity="0" stroke="#000000" stroke-width="0.24" d="M734.509,551.927c-2.783-0.282-5.937,2.872-5.654,5.655
	c-0.282,2.782,2.871,5.937,5.654,5.653c2.782,0.283,5.938-2.871,5.655-5.653C740.447,554.8,737.291,551.645,734.509,551.927z"/>
<path fill-opacity="0" stroke="#000000" stroke-width="0.24" d="M734.509,176.189c-2.783-0.283-5.937,2.872-5.654,5.654
	c-0.282,2.784,2.871,5.937,5.654,5.655c2.782,0.282,5.938-2.872,5.655-5.655C740.447,179.061,737.291,175.906,734.509,176.189z"/>
<path fill-opacity="0" stroke="#000000" stroke-width="0.24" d="M427.181,587.461c-2.781,0.282-5.937-2.872-5.654-5.655
	c-0.282-2.782,2.873-5.937,5.654-5.653c2.784-0.283,5.938,2.871,5.655,5.653C433.118,584.589,429.965,587.743,427.181,587.461z"/>
<path fill-opacity="0" stroke="#000000" stroke-width="0.24" d="M427.181,151.965c-2.781-0.282-5.937,2.872-5.654,5.655
	c-0.282,2.782,2.873,5.937,5.654,5.655c2.784,0.282,5.938-2.873,5.655-5.655C433.118,154.836,429.965,151.683,427.181,151.965z"/>
<path fill-opacity="0" stroke="#000000" stroke-width="0.24" d="M772.209,595.281V144.144H0v451.137H772.209z"/>
<path fill-opacity="0" stroke="#000000" stroke-width="0.24" d="M458.273,405.482V526.12H107.669V405.482H458.273z"/>
<path fill-opacity="0" stroke="#000000" stroke-width="0.24" d="M458.273,213.248v120.638H107.669V213.248H458.273z"/>
<path fill-opacity="0" stroke="#000000" stroke-width="0.24" d="M687.996,524.281V215.145H586.207v309.136H687.996z"/>
<path fill-opacity="0" stroke="#000000" stroke-width="0.24" d="M315.702,575.119v-9.813H64.041v9.813H315.702z"/>
<path fill-opacity="0" stroke="#000000" stroke-width="0.24" d="M315.702,164.306v9.813H64.041v-9.813H315.702z"/>
</svg>
