<?xml version="1.0" encoding="utf-8"?>
<!-- Generator: Adobe Illustrator 16.0.0, SVG Export Plug-In . SVG Version: 6.00 Build 0)  -->
<!DOCTYPE svg PUBLIC "-//W3C//DTD SVG 1.1//EN" "http://www.w3.org/Graphics/SVG/1.1/DTD/svg11.dtd">
<svg version="1.1" id="Layer_1" xmlns="http://www.w3.org/2000/svg" xmlns:xlink="http://www.w3.org/1999/xlink" x="0px" y="0px"
	 width="841.889px" height="595.281px" viewBox="0 0 841.889 595.281" enable-background="new 0 0 841.889 595.281"
	 xml:space="preserve">
<path fill-opacity="0" stroke="#000000" stroke-width="0.24" d="M734.511,176.188c-2.783-0.282-5.938,2.872-5.655,5.655
	c-0.283,2.782,2.872,5.937,5.655,5.655c2.782,0.282,5.937-2.873,5.653-5.655C740.448,179.059,737.293,175.906,734.511,176.188z"/>
<path fill-opacity="0" stroke="#000000" stroke-width="0.24" d="M734.511,551.927c-2.783-0.282-5.938,2.873-5.655,5.655
	c-0.283,2.783,2.872,5.937,5.655,5.654c2.782,0.282,5.937-2.871,5.653-5.654C740.448,554.8,737.293,551.644,734.511,551.927z"/>
<path fill-opacity="0" stroke="#000000" stroke-width="0.24" d="M37.7,176.188c-2.783-0.282-5.937,2.872-5.655,5.655
	c-0.282,2.782,2.872,5.937,5.655,5.655c2.782,0.282,5.937-2.873,5.655-5.655C43.637,179.059,40.482,175.906,37.7,176.188z"/>
<path fill-opacity="0" stroke="#000000" stroke-width="0.24" d="M37.7,551.927c-2.783-0.282-5.937,2.873-5.655,5.655
	c-0.282,2.783,2.872,5.937,5.655,5.654c2.782,0.282,5.937-2.871,5.655-5.654C43.637,554.8,40.482,551.644,37.7,551.927z"/>
<path fill-opacity="0" stroke="#000000" stroke-width="0.24" d="M458.273,405.481V526.12H107.669V405.481H458.273z"/>
<path fill-opacity="0" stroke="#000000" stroke-width="0.24" d="M458.273,213.248v120.638H107.669V213.248H458.273z"/>
<path fill-opacity="0" stroke="#000000" stroke-width="0.24" d="M687.996,524.279V215.145H586.208v309.134H687.996z"/>
<path fill-opacity="0" stroke="#000000" stroke-width="0.24" d="M772.209,595.281V144.143H0v451.138H772.209z"/>
<path fill-opacity="0" stroke="#000000" stroke-width="0.24" d="M315.703,575.12v-9.813H64.041v9.813H315.703z"/>
<path fill-opacity="0" stroke="#000000" stroke-width="0.24" d="M315.703,164.305v9.813H64.041v-9.813H315.703z"/>
</svg>
