<?xml version="1.0" encoding="utf-8"?>
<!-- Generator: Adobe Illustrator 16.0.0, SVG Export Plug-In . SVG Version: 6.00 Build 0)  -->
<!DOCTYPE svg PUBLIC "-//W3C//DTD SVG 1.1//EN" "http://www.w3.org/Graphics/SVG/1.1/DTD/svg11.dtd">
<svg version="1.1" id="Layer_1" xmlns="http://www.w3.org/2000/svg" xmlns:xlink="http://www.w3.org/1999/xlink" x="0px" y="0px"
	 width="841.889px" height="595.281px" viewBox="0 0 841.889 595.281" enable-background="new 0 0 841.889 595.281"
	 xml:space="preserve">
<path fill-opacity="0" stroke="#000000" stroke-width="0.24" d="M414.447,296.243c-5.275,0.14-11.623-2.253-15.994-6.625
	c-4.369-4.37-6.766-10.718-6.624-15.994c-0.142-5.275,2.255-11.623,6.624-15.995c4.371-4.371,10.719-6.765,15.994-6.624
	c5.277-0.141,11.624,2.254,15.995,6.624c4.37,4.372,6.766,10.72,6.625,15.995c0.141,5.276-2.255,11.624-6.625,15.994
	C426.071,293.99,419.724,296.384,414.447,296.243z"/>
<path fill-opacity="0" stroke="#000000" stroke-width="0.24" d="M22.98,323.372c-0.927-0.093-1.978,0.958-1.884,1.886
	c-0.094,0.929,0.957,1.979,1.884,1.886c0.928,0.094,1.979-0.957,1.887-1.886C24.96,324.33,23.907,323.279,22.98,323.372z"/>
<path fill-opacity="0" stroke="#000000" stroke-width="0.24" d="M84.411,323.372c-0.928-0.093-1.979,0.958-1.886,1.886
	c-0.093,0.929,0.958,1.979,1.886,1.886c0.927,0.094,1.979-0.957,1.886-1.886C86.39,324.33,85.338,323.279,84.411,323.372z"/>
<path fill-opacity="0" stroke="#000000" stroke-width="0.24" d="M22.98,409.835c-0.927-0.096-1.978,0.956-1.884,1.885
	c-0.094,0.927,0.957,1.979,1.884,1.884c0.928,0.096,1.979-0.957,1.887-1.884C24.96,410.791,23.907,409.739,22.98,409.835z"/>
<path fill-opacity="0" stroke="#000000" stroke-width="0.24" d="M84.411,409.835c-0.928-0.096-1.979,0.956-1.886,1.885
	c-0.093,0.927,0.958,1.979,1.886,1.884c0.927,0.096,1.979-0.957,1.886-1.884C86.39,410.791,85.338,409.739,84.411,409.835z"/>
<path fill-opacity="0" stroke="#000000" stroke-width="0.24" d="M427.182,151.965c-2.782-0.282-5.938,2.872-5.654,5.654
	c-0.283,2.784,2.872,5.938,5.654,5.655c2.783,0.282,5.938-2.872,5.654-5.655C433.118,154.836,429.965,151.681,427.182,151.965z"/>
<path fill-opacity="0" stroke="#000000" stroke-width="0.24" d="M427.182,587.462c-2.782,0.281-5.938-2.871-5.654-5.655
	c-0.283-2.781,2.872-5.938,5.654-5.654c2.783-0.282,5.938,2.873,5.654,5.654C433.118,584.591,429.965,587.743,427.182,587.462z"/>
<path fill-opacity="0" stroke="#000000" stroke-width="0.24" d="M184.65,303.278v132.87l0.004,0.374l14.596,17.504l0.14,0.168
	l2.298,2.754c-2.397,2.505-3.547,5.938-3.512,8.854c-0.645,6.354,6.561,13.559,12.914,12.914
	c6.354,0.645,13.559-6.562,12.915-12.914c0.036-2.917-1.113-6.35-3.511-8.854l2.296-2.754l0.142-0.168l14.593-17.504l0.005-0.374
	v-132.87l-17.036-20.801c2.396-2.504,3.547-5.938,3.511-8.854c0.644-6.354-6.56-13.558-12.915-12.914
	c-6.354-0.644-13.559,6.56-12.914,12.914c-0.035,2.916,1.114,6.35,3.512,8.854L184.65,303.278z"/>
<path fill-opacity="0" stroke="#000000" stroke-width="0.24" d="M272.348,443.18c-5.276-0.141-11.623,2.255-15.994,6.626
	c-4.371,4.37-6.766,10.718-6.625,15.995c-0.14,5.274,2.255,11.623,6.625,15.993c4.371,4.37,10.718,6.766,15.994,6.626
	c5.277,0.14,11.625-2.256,15.995-6.626c4.371-4.37,6.766-10.719,6.625-15.993c0.141-5.277-2.254-11.625-6.625-15.995
	C283.973,445.435,277.626,443.041,272.348,443.18z"/>
<path fill-opacity="0" stroke="#000000" stroke-width="0.24" d="M272.348,296.243c-5.276,0.14-11.623-2.253-15.994-6.625
	c-4.371-4.37-6.766-10.718-6.625-15.994c-0.14-5.275,2.255-11.623,6.625-15.995c4.371-4.371,10.718-6.765,15.994-6.624
	c5.277-0.141,11.625,2.254,15.995,6.624c4.371,4.372,6.766,10.72,6.625,15.995c0.141,5.276-2.254,11.624-6.625,15.994
	C283.973,293.99,277.626,296.384,272.348,296.243z"/>
<path fill-opacity="0" stroke="#000000" stroke-width="0.24" d="M341.098,443.18c-5.276-0.141-11.623,2.255-15.994,6.626
	c-4.371,4.37-6.766,10.718-6.625,15.995c-0.14,5.274,2.255,11.623,6.625,15.993c4.371,4.37,10.718,6.766,15.994,6.626
	c5.276,0.14,11.623-2.256,15.995-6.626c4.37-4.37,6.766-10.719,6.625-15.993c0.141-5.277-2.255-11.625-6.625-15.995
	C352.721,445.435,346.374,443.041,341.098,443.18z"/>
<path fill-opacity="0" stroke="#000000" stroke-width="0.24" d="M341.098,296.243c-5.276,0.14-11.623-2.253-15.994-6.625
	c-4.371-4.37-6.766-10.718-6.625-15.994c-0.14-5.275,2.255-11.623,6.625-15.995c4.371-4.371,10.718-6.765,15.994-6.624
	c5.276-0.141,11.623,2.254,15.995,6.624c4.37,4.372,6.766,10.72,6.625,15.995c0.141,5.276-2.255,11.624-6.625,15.994
	C352.721,293.99,346.374,296.384,341.098,296.243z"/>
<path fill-opacity="0" stroke="#000000" stroke-width="0.24" d="M37.698,551.927c-2.782-0.282-5.938,2.873-5.654,5.654
	c-0.283,2.783,2.872,5.938,5.654,5.654c2.783,0.282,5.937-2.871,5.654-5.654C43.635,554.801,40.482,551.644,37.698,551.927z"/>
<path fill-opacity="0" stroke="#000000" stroke-width="0.24" d="M37.698,176.188c-2.782-0.282-5.938,2.873-5.654,5.655
	c-0.283,2.782,2.872,5.937,5.654,5.654c2.783,0.282,5.937-2.872,5.654-5.654C43.635,179.061,40.482,175.906,37.698,176.188z"/>
<path fill-opacity="0" stroke="#000000" stroke-width="0.24" d="M734.51,551.927c-2.782-0.282-5.938,2.873-5.655,5.654
	c-0.282,2.783,2.873,5.938,5.655,5.654c2.781,0.282,5.937-2.871,5.653-5.654C740.447,554.801,737.291,551.644,734.51,551.927z"/>
<path fill-opacity="0" stroke="#000000" stroke-width="0.24" d="M734.51,176.188c-2.782-0.282-5.938,2.873-5.655,5.655
	c-0.282,2.782,2.873,5.937,5.655,5.654c2.781,0.282,5.937-2.872,5.653-5.654C740.447,179.061,737.291,175.906,734.51,176.188z"/>
<path fill-opacity="0" stroke="#000000" stroke-width="0.24" d="M151.494,443.18c-5.276-0.141-11.623,2.255-15.994,6.626
	c-4.372,4.37-6.767,10.718-6.625,15.995c-0.141,5.274,2.253,11.623,6.625,15.993c4.371,4.37,10.718,6.766,15.994,6.626
	c5.275,0.14,11.623-2.256,15.994-6.626s6.767-10.719,6.625-15.993c0.141-5.277-2.255-11.625-6.625-15.995
	C163.117,445.435,156.77,443.041,151.494,443.18z"/>
<path fill-opacity="0" stroke="#000000" stroke-width="0.24" d="M414.447,443.18c-5.275-0.141-11.623,2.255-15.994,6.626
	c-4.369,4.37-6.766,10.718-6.624,15.995c-0.142,5.274,2.255,11.623,6.624,15.993c4.371,4.37,10.719,6.766,15.994,6.626
	c5.277,0.14,11.624-2.256,15.995-6.626c4.37-4.37,6.766-10.719,6.625-15.993c0.141-5.277-2.255-11.625-6.625-15.995
	C426.071,445.435,419.724,443.041,414.447,443.18z"/>
<path fill-opacity="0" stroke="#000000" stroke-width="0.24" d="M151.494,296.243c-5.276,0.14-11.623-2.253-15.994-6.625
	c-4.372-4.37-6.767-10.718-6.625-15.994c-0.141-5.275,2.253-11.623,6.625-15.995c4.371-4.371,10.718-6.765,15.994-6.624
	c5.275-0.141,11.623,2.254,15.994,6.624c4.371,4.372,6.767,10.72,6.625,15.995c0.141,5.276-2.255,11.624-6.625,15.994
	C163.117,293.99,156.77,296.384,151.494,296.243z"/>
<path fill-opacity="0" stroke="#000000" stroke-width="0.24" d="M115.346,494.659c0.927,0.094,1.979-0.959,1.884-1.887
	c0.096-0.927-0.957-1.979-1.884-1.884c-0.927-0.095-1.979,0.957-1.885,1.884C113.367,493.7,114.419,494.753,115.346,494.659z"/>
<path fill-opacity="0" stroke="#000000" stroke-width="0.24" d="M115.346,243.529c0.927,0.094,1.979-0.958,1.884-1.886
	c0.096-0.928-0.957-1.979-1.884-1.886c-0.927-0.093-1.979,0.958-1.885,1.886C113.367,242.571,114.419,243.623,115.346,243.529z"/>
<path fill-opacity="0" stroke="#000000" stroke-width="0.24" d="M446.435,243.529c0.928,0.094,1.979-0.958,1.886-1.886
	c0.094-0.928-0.958-1.979-1.886-1.886c-0.927-0.093-1.979,0.958-1.884,1.886C444.456,242.571,445.508,243.623,446.435,243.529z"/>
<path fill-opacity="0" stroke="#000000" stroke-width="0.24" d="M443.683,492.929c0.929,0.094,1.979-0.957,1.886-1.886
	c0.094-0.928-0.957-1.979-1.886-1.886c-0.927-0.093-1.979,0.958-1.885,1.886C441.704,491.972,442.756,493.023,443.683,492.929z"/>
<path fill-opacity="0" stroke="#000000" stroke-width="0.24" d="M772.209,595.281V144.143H0v451.138H772.209z"/>
<path fill-opacity="0" stroke="#000000" stroke-width="0.24" d="M687.995,524.28V215.145H586.206V524.28H687.995z"/>
</svg>
