<?xml version="1.0" encoding="utf-8"?>
<!-- Generator: Adobe Illustrator 16.0.0, SVG Export Plug-In . SVG Version: 6.00 Build 0)  -->
<!DOCTYPE svg PUBLIC "-//W3C//DTD SVG 1.1//EN" "http://www.w3.org/Graphics/SVG/1.1/DTD/svg11.dtd">
<svg version="1.1" id="Layer_1" xmlns="http://www.w3.org/2000/svg" xmlns:xlink="http://www.w3.org/1999/xlink" x="0px" y="0px"
	 width="841.889px" height="595.281px" viewBox="0 0 841.889 595.281" enable-background="new 0 0 841.889 595.281"
	 xml:space="preserve">
<path fill-opacity="0" stroke="#000000" stroke-width="0.24" d="M238.249,338.115H79.353V179.218h158.896v11.13"/>
<path fill-opacity="0" stroke="#000000" stroke-width="0.24" d="M358.951,224.457v2.27h8.322v-8.319l-8.322-0.013v2.278h-19.194
	l-7.316-7.957h-17.214l-4.894,4.89v2.681l-2.27-0.004v8.334h2.259l-0.002,0.54l-2.664,2.675h-19.854l-2.676-2.675v-4.638v-22.626
	h2.271v-8.319l-2.271-0.004v-0.625l-4.854-5.182h-20.109l-6.373,8.747v3.032h-83.282l-7.566-12.379h-36.71h-24.965l-6.375,9.347
	v13.691l-2.27-0.003v8.332h8.323v-8.318l-2.27-0.004v-12.466l2.238-3.071l0.529-0.726l0.278-0.386l1.469-2.015h19.256v2.019
	l-2.271-0.004v8.332h2.271v28.831l4.892,4.891h22.993l4.872-4.891l0.006-2.107h2.282v-8.32l-2.271-0.003v-1.119l2.677-2.675h13.985
	l7.318,7.96h20.854v2.269h8.322v-8.319l-8.322-0.013v2.278h-19.193l-7.318-7.957h-17.216l-4.89,4.89v2.682l-2.271-0.005v8.334h2.259
	l-0.003,0.54l-2.663,2.676h-19.855l-2.675-2.676v-27.264h2.27v-8.319l-2.27-0.004v-2.022h34.643l7.567,12.705h85.35v5.95
	l-2.271-0.003v8.332h8.322v-8.318l-2.27-0.004v-12.466l2.238-3.071v-1.11h0.807l1.469-2.015h16.546l1.889,2.017l-1.447-0.002v8.332
	h2.271v22.626v6.205l4.891,4.891h22.993l4.871-4.891l0.006-2.107h2.282v-8.32l-2.271-0.003v-1.119l2.676-2.675h13.986l7.318,7.96
	h20.855V224.457z"/>
<path fill-opacity="0" stroke="#000000" stroke-width="0.24" d="M238.249,179.218h158.896v158.897H238.249"/>
<path fill-opacity="0" stroke="#000000" stroke-width="0.24" d="M238.249,390.716h158.896v158.897H238.249"/>
<path fill-opacity="0" stroke="#000000" stroke-width="0.24" d="M238.249,549.613H79.353V390.716h158.896v11.13"/>
<path fill-opacity="0" stroke="#000000" stroke-width="0.24" d="M358.951,435.955v2.27h8.322v-8.319l-8.322-0.013v2.278h-19.194
	l-7.316-7.957h-17.214l-4.894,4.89v2.681l-2.27-0.004v8.334h2.259l-0.002,0.54l-2.664,2.675h-19.854l-2.676-2.675v-4.638V413.39
	h2.271v-8.319l-2.271-0.004v-0.625l-4.854-5.182h-20.109l-6.373,8.747v3.032h-83.282l-7.566-12.379h-36.71h-24.965l-6.375,9.347
	v13.691l-2.27-0.003v8.332h8.323v-8.318l-2.27-0.004V409.24l2.238-3.071l0.529-0.726l0.278-0.386l1.469-2.015h19.256v2.019
	l-2.271-0.004v8.332h2.271v28.831l4.892,4.891h22.993l4.872-4.891l0.006-2.107h2.282v-8.32l-2.271-0.003v-1.119l2.677-2.675h13.985
	l7.318,7.96h20.854v2.269h8.322v-8.319l-8.322-0.013v2.278h-19.193l-7.318-7.957h-17.216l-4.89,4.89v2.682l-2.271-0.005v8.334h2.259
	l-0.003,0.54l-2.663,2.676h-19.855l-2.675-2.676V413.39h2.27v-8.319l-2.27-0.004v-2.022h34.643l7.567,12.705h85.35v5.95
	l-2.271-0.003v8.332h8.322v-8.318l-2.27-0.004v-12.466l2.238-3.071v-1.11h0.807l1.469-2.015h16.546l1.889,2.017l-1.447-0.002v8.332
	h2.271v22.626v6.205l4.891,4.891h22.993l4.871-4.891l0.006-2.107h2.282v-8.32l-2.271-0.003v-1.119l2.676-2.675h13.986l7.318,7.96
	h20.855V435.955z"/>
<path fill-opacity="0" stroke="#000000" stroke-width="0.24" d="M255.671,224.15c0.12,0.014,0.259-0.123,0.245-0.245
	c0.014-0.12-0.125-0.256-0.245-0.245c-0.119-0.011-0.256,0.125-0.244,0.245C255.415,224.027,255.552,224.164,255.671,224.15z"/>
<path fill-opacity="0" stroke="#000000" stroke-width="0.24" d="M372.815,222.81c0.121,0.011,0.258-0.125,0.245-0.245
	c0.013-0.122-0.124-0.258-0.245-0.245c-0.12-0.013-0.257,0.123-0.246,0.245C372.558,222.685,372.695,222.821,372.815,222.81z"/>
<path fill-opacity="0" stroke="#000000" stroke-width="0.24" d="M255.671,233.879c0.12,0.013,0.259-0.125,0.245-0.245
	c0.014-0.119-0.125-0.256-0.245-0.245c-0.119-0.011-0.256,0.126-0.244,0.245C255.415,233.754,255.552,233.89,255.671,233.879z"/>
<path fill-opacity="0" stroke="#000000" stroke-width="0.24" d="M362.24,313.531c0.12,0.012,0.256-0.125,0.245-0.245
	c0.011-0.122-0.125-0.258-0.245-0.245c-0.121-0.013-0.258,0.123-0.245,0.245C361.983,313.406,362.118,313.543,362.24,313.531z"/>
<path fill-opacity="0" stroke="#000000" stroke-width="0.24" d="M382.68,222.821c0.119,0.013,0.257-0.125,0.242-0.245
	c0.015-0.119-0.123-0.258-0.242-0.245c-0.121-0.013-0.259,0.126-0.245,0.245C382.421,222.696,382.559,222.834,382.68,222.821z"/>
<path fill-opacity="0" stroke="#000000" stroke-width="0.24" d="M249.59,190.81c0.122,0.014,0.259-0.123,0.245-0.244
	c0.014-0.12-0.124-0.257-0.245-0.246c-0.119-0.011-0.256,0.126-0.245,0.246C249.334,190.687,249.471,190.824,249.59,190.81z"/>
<path fill-opacity="0" stroke="#000000" stroke-width="0.24" d="M292.954,224.762c0.12,0.011,0.258-0.125,0.245-0.245
	c0.013-0.122-0.125-0.258-0.245-0.245c-0.12-0.013-0.256,0.123-0.245,0.245C292.698,224.637,292.834,224.773,292.954,224.762z"/>
<path fill-opacity="0" stroke="#000000" stroke-width="0.24" d="M316.918,293.342c0.121,0.013,0.258-0.124,0.245-0.245
	c0.013-0.12-0.124-0.257-0.245-0.245c-0.12-0.012-0.257,0.125-0.245,0.245C316.661,293.218,316.798,293.353,316.918,293.342z"/>
<path fill-opacity="0" stroke="#000000" stroke-width="0.24" d="M335.835,293.735c0.119,0.013,0.259-0.124,0.245-0.245
	c0.014-0.12-0.126-0.257-0.245-0.245c-0.12-0.012-0.257,0.125-0.245,0.245C335.578,293.611,335.715,293.748,335.835,293.735z"/>
<path fill-opacity="0" stroke="#000000" stroke-width="0.24" d="M90.561,326.932c0.12,0.013,0.256-0.123,0.245-0.245
	c0.011-0.12-0.125-0.256-0.245-0.245c-0.122-0.011-0.258,0.125-0.245,0.245C90.303,326.809,90.44,326.945,90.561,326.932z"/>
<path fill-opacity="0" stroke="#000000" stroke-width="0.24" d="M312.217,197.976c0.12,0.011,0.258-0.125,0.245-0.246
	c0.013-0.121-0.125-0.258-0.245-0.244c-0.12-0.014-0.258,0.123-0.244,0.244C311.959,197.851,312.097,197.987,312.217,197.976z"/>
<path fill-opacity="0" stroke="#000000" stroke-width="0.24" d="M283.227,197.976c0.122,0.011,0.258-0.125,0.245-0.246
	c0.013-0.121-0.124-0.258-0.245-0.244c-0.12-0.014-0.256,0.123-0.245,0.244C282.971,197.851,283.107,197.987,283.227,197.976z"/>
<path fill-opacity="0" stroke="#000000" stroke-width="0.24" d="M321.944,224.698c0.122,0.014,0.259-0.124,0.245-0.245
	c0.014-0.119-0.123-0.257-0.245-0.244c-0.119-0.013-0.256,0.125-0.245,0.244C321.688,224.574,321.823,224.712,321.944,224.698z"/>
<path fill-opacity="0" stroke="#000000" stroke-width="0.24" d="M302.681,224.825c0.121,0.014,0.258-0.123,0.244-0.245
	c0.014-0.119-0.123-0.256-0.244-0.244c-0.12-0.012-0.258,0.125-0.244,0.244C302.423,224.702,302.561,224.839,302.681,224.825z"/>
<path fill-opacity="0" stroke="#000000" stroke-width="0.24" d="M255.671,214.615c0.12,0.012,0.259-0.126,0.245-0.246
	c0.014-0.119-0.125-0.258-0.245-0.244c-0.119-0.014-0.256,0.125-0.244,0.244C255.415,214.489,255.552,214.627,255.671,214.615z"/>
<path fill-opacity="0" stroke="#000000" stroke-width="0.24" d="M316.918,320.379c0.121,0.013,0.258-0.124,0.245-0.245
	c0.013-0.12-0.124-0.257-0.245-0.244c-0.12-0.013-0.257,0.124-0.245,0.244C316.661,320.255,316.798,320.39,316.918,320.379z"/>
<path fill-opacity="0" stroke="#000000" stroke-width="0.24" d="M336.074,320.48c0.122,0.014,0.258-0.123,0.245-0.245
	c0.013-0.119-0.123-0.256-0.245-0.245c-0.12-0.011-0.256,0.126-0.245,0.245C335.82,320.357,335.954,320.494,336.074,320.48z"/>
<path fill-opacity="0" stroke="#000000" stroke-width="0.24" d="M381.397,313.635c0.12,0.011,0.257-0.126,0.245-0.245
	c0.012-0.122-0.125-0.259-0.245-0.245c-0.121-0.014-0.258,0.123-0.245,0.245C381.139,313.51,381.276,313.645,381.397,313.635z"/>
<path fill-opacity="0" stroke="#000000" stroke-width="0.24" d="M385.698,326.932c0.122,0.013,0.258-0.123,0.245-0.245
	c0.013-0.12-0.123-0.256-0.245-0.245c-0.12-0.011-0.256,0.125-0.245,0.245C385.444,326.809,385.578,326.945,385.698,326.932z"/>
<path fill-opacity="0" stroke="#000000" stroke-width="0.24" d="M385.787,190.824c0.121,0.012,0.258-0.125,0.245-0.246
	c0.013-0.121-0.124-0.258-0.245-0.244c-0.12-0.014-0.257,0.123-0.243,0.244C385.531,190.699,385.667,190.836,385.787,190.824z"/>
<path fill-opacity="0" stroke="#000000" stroke-width="0.24" d="M363.954,321.231h6.237V305.35l-15.891-0.026v11.129h-12.164v-2.264
	l-12.107-0.019v8.336h-0.023l-0.021,4.192H183.239v-2.68h17.896l4.68-4.683h3.589v-12.101l-12.107-0.019v9.232h-14.058v-2.264
	l-12.105-0.019v12.117h2.271v7.494h166.375l0.048-7.494h2.313v-2.269h21.854L363.954,321.231z"/>
<path fill-opacity="0" stroke="#000000" stroke-width="0.24" d="M363.105,222.81c0.122,0.011,0.259-0.125,0.245-0.245
	c0.014-0.122-0.123-0.258-0.245-0.245c-0.119-0.013-0.256,0.123-0.245,0.245C362.849,222.685,362.986,222.821,363.105,222.81z"/>
<path fill-opacity="0" stroke="#000000" stroke-width="0.24" d="M302.681,197.976c0.121,0.011,0.258-0.125,0.244-0.246
	c0.014-0.121-0.123-0.258-0.244-0.244c-0.12-0.014-0.258,0.123-0.244,0.244C302.423,197.851,302.561,197.987,302.681,197.976z"/>
<path fill-opacity="0" stroke="#000000" stroke-width="0.24" d="M292.954,197.976c0.12,0.011,0.258-0.125,0.245-0.246
	c0.013-0.121-0.125-0.258-0.245-0.244c-0.12-0.014-0.256,0.123-0.245,0.244C292.698,197.851,292.834,197.987,292.954,197.976z"/>
<path fill-opacity="0" stroke="#000000" stroke-width="0.24" d="M273.691,197.976c0.122,0.011,0.258-0.125,0.245-0.246
	c0.013-0.121-0.124-0.258-0.245-0.244c-0.12-0.014-0.256,0.123-0.245,0.244C273.435,197.851,273.572,197.987,273.691,197.976z"/>
<path fill-opacity="0" stroke="#000000" stroke-width="0.24" d="M263.963,197.976c0.122,0.011,0.259-0.125,0.245-0.246
	c0.014-0.121-0.124-0.258-0.245-0.244c-0.119-0.014-0.256,0.123-0.242,0.244C263.706,197.851,263.844,197.987,263.963,197.976z"/>
<path fill-opacity="0" stroke="#000000" stroke-width="0.24" d="M226.901,190.824c0.12,0.012,0.256-0.125,0.245-0.246
	c0.011-0.121-0.125-0.258-0.245-0.244c-0.12-0.014-0.258,0.123-0.245,0.244C226.642,190.699,226.78,190.836,226.901,190.824z"/>
<path fill-opacity="0" stroke="#000000" stroke-width="0.24" d="M223.79,222.821c0.12,0.013,0.258-0.125,0.245-0.245
	c0.013-0.119-0.125-0.258-0.245-0.245c-0.12-0.013-0.258,0.126-0.245,0.245C223.531,222.696,223.67,222.834,223.79,222.821z"/>
<path fill-opacity="0" stroke="#000000" stroke-width="0.24" d="M213.925,222.81c0.12,0.011,0.257-0.125,0.245-0.245
	c0.012-0.122-0.125-0.258-0.245-0.245c-0.121-0.013-0.258,0.123-0.244,0.245C213.668,222.685,213.805,222.821,213.925,222.81z"/>
<path fill-opacity="0" stroke="#000000" stroke-width="0.24" d="M204.217,222.81c0.12,0.011,0.257-0.125,0.245-0.245
	c0.012-0.122-0.125-0.258-0.245-0.245c-0.121-0.013-0.258,0.123-0.244,0.245C203.958,222.685,204.096,222.821,204.217,222.81z"/>
<path fill-opacity="0" stroke="#000000" stroke-width="0.24" d="M153.328,197.976c0.122,0.011,0.258-0.125,0.245-0.246
	c0.013-0.121-0.124-0.258-0.245-0.244c-0.12-0.014-0.256,0.123-0.245,0.244C153.072,197.851,153.208,197.987,153.328,197.976z"/>
<path fill-opacity="0" stroke="#000000" stroke-width="0.24" d="M143.792,197.976c0.12,0.011,0.259-0.125,0.246-0.246
	c0.014-0.121-0.125-0.258-0.246-0.244c-0.12-0.014-0.258,0.123-0.245,0.244C143.534,197.851,143.672,197.987,143.792,197.976z"/>
<path fill-opacity="0" stroke="#000000" stroke-width="0.24" d="M134.065,197.976c0.122,0.011,0.258-0.125,0.245-0.246
	c0.013-0.121-0.124-0.258-0.245-0.244c-0.12-0.014-0.256,0.123-0.245,0.244C133.809,197.851,133.946,197.987,134.065,197.976z"/>
<path fill-opacity="0" stroke="#000000" stroke-width="0.24" d="M124.339,197.976c0.12,0.011,0.257-0.125,0.245-0.246
	c0.012-0.121-0.125-0.258-0.245-0.244c-0.121-0.014-0.258,0.123-0.244,0.244C124.08,197.851,124.218,197.987,124.339,197.976z"/>
<path fill-opacity="0" stroke="#000000" stroke-width="0.24" d="M90.702,190.81c0.12,0.014,0.256-0.123,0.245-0.244
	c0.011-0.12-0.125-0.257-0.245-0.246c-0.122-0.011-0.258,0.126-0.245,0.246C90.445,190.687,90.58,190.824,90.702,190.81z"/>
<path fill-opacity="0" stroke="#000000" stroke-width="0.24" d="M114.802,197.976c0.121,0.011,0.258-0.125,0.244-0.246
	c0.014-0.121-0.124-0.258-0.244-0.244c-0.12-0.014-0.257,0.123-0.244,0.244C114.545,197.851,114.682,197.987,114.802,197.976z"/>
<path fill-opacity="0" stroke="#000000" stroke-width="0.24" d="M105.075,197.976c0.12,0.011,0.256-0.125,0.246-0.246
	c0.011-0.121-0.125-0.258-0.246-0.244c-0.122-0.014-0.258,0.123-0.245,0.244C104.818,197.851,104.953,197.987,105.075,197.976z"/>
<path fill-opacity="0" stroke="#000000" stroke-width="0.24" d="M163.056,224.698c0.12,0.014,0.256-0.124,0.245-0.245
	c0.011-0.119-0.125-0.257-0.245-0.244c-0.12-0.013-0.259,0.125-0.245,0.244C162.797,224.574,162.937,224.712,163.056,224.698z"/>
<path fill-opacity="0" stroke="#000000" stroke-width="0.24" d="M143.792,224.825c0.12,0.014,0.259-0.123,0.246-0.245
	c0.014-0.119-0.125-0.256-0.246-0.244c-0.12-0.012-0.258,0.125-0.245,0.244C143.534,224.702,143.672,224.839,143.792,224.825z"/>
<path fill-opacity="0" stroke="#000000" stroke-width="0.24" d="M134.065,224.762c0.122,0.011,0.258-0.125,0.245-0.245
	c0.013-0.122-0.124-0.258-0.245-0.245c-0.12-0.013-0.256,0.123-0.245,0.245C133.809,224.637,133.946,224.773,134.065,224.762z"/>
<path fill-opacity="0" stroke="#000000" stroke-width="0.24" d="M96.781,233.879c0.122,0.013,0.258-0.125,0.246-0.245
	c0.013-0.119-0.124-0.256-0.246-0.245c-0.12-0.011-0.256,0.126-0.245,0.245C96.527,233.754,96.662,233.89,96.781,233.879z"/>
<path fill-opacity="0" stroke="#000000" stroke-width="0.24" d="M96.781,224.15c0.122,0.014,0.258-0.123,0.246-0.245
	c0.013-0.12-0.124-0.256-0.246-0.245c-0.12-0.011-0.256,0.125-0.245,0.245C96.527,224.027,96.662,224.164,96.781,224.15z"/>
<path fill-opacity="0" stroke="#000000" stroke-width="0.24" d="M96.781,214.615c0.122,0.012,0.258-0.126,0.246-0.246
	c0.013-0.119-0.124-0.258-0.246-0.244c-0.12-0.014-0.256,0.125-0.245,0.244C96.527,214.489,96.662,214.627,96.781,214.615z"/>
<path fill-opacity="0" stroke="#000000" stroke-width="0.24" d="M158.031,293.342c0.12,0.013,0.256-0.124,0.245-0.245
	c0.011-0.12-0.125-0.257-0.245-0.245c-0.122-0.012-0.258,0.125-0.245,0.245C157.773,293.218,157.908,293.353,158.031,293.342z"/>
<path fill-opacity="0" stroke="#000000" stroke-width="0.24" d="M158.031,320.379c0.12,0.013,0.256-0.124,0.245-0.245
	c0.011-0.12-0.125-0.257-0.245-0.244c-0.122-0.013-0.258,0.124-0.245,0.244C157.773,320.255,157.908,320.39,158.031,320.379z"/>
<path fill-opacity="0" stroke="#000000" stroke-width="0.24" d="M177.188,320.48c0.12,0.014,0.256-0.123,0.245-0.245
	c0.011-0.119-0.125-0.256-0.245-0.245c-0.122-0.011-0.258,0.126-0.245,0.245C176.93,320.357,177.066,320.494,177.188,320.48z"/>
<path fill-opacity="0" stroke="#000000" stroke-width="0.24" d="M176.948,293.735c0.12,0.013,0.256-0.124,0.244-0.245
	c0.013-0.12-0.124-0.257-0.244-0.245c-0.122-0.012-0.258,0.125-0.245,0.245C176.69,293.611,176.825,293.748,176.948,293.735z"/>
<path fill-opacity="0" stroke="#000000" stroke-width="0.24" d="M203.351,313.531c0.122,0.012,0.258-0.125,0.245-0.245
	c0.013-0.122-0.124-0.258-0.245-0.245c-0.12-0.013-0.256,0.123-0.246,0.245C203.095,313.406,203.231,313.543,203.351,313.531z"/>
<path fill-opacity="0" stroke="#000000" stroke-width="0.24" d="M222.507,313.635c0.122,0.011,0.259-0.126,0.245-0.245
	c0.014-0.122-0.124-0.259-0.245-0.245c-0.119-0.014-0.256,0.123-0.244,0.245C222.25,313.51,222.388,313.645,222.507,313.635z"/>
<path fill-opacity="0" stroke="#000000" stroke-width="0.24" d="M215.857,218.439l0.078-7.998l-5.023-5.768h-53.015l-2.677-1.791
	v-0.991h2.271v-8.319l-8.323-0.013v8.332h2.271v2.561l4.89,4.892h53.047l2.761,2.683l-0.062,6.408l-2.31-0.003v8.334h8.322v-8.321
	L215.857,218.439z"/>
<path fill-opacity="0" stroke="#000000" stroke-width="0.24" d="M255.274,190.566c0.284-2.791-2.881-5.959-5.674-5.674
	c-2.792-0.285-5.958,2.883-5.677,5.674c-0.281,2.792,2.884,5.957,5.677,5.676C252.393,196.523,255.558,193.358,255.274,190.566z"/>
<path fill-opacity="0" stroke="#000000" stroke-width="0.24" d="M304.58,201.891h2.271v-8.319l-8.324-0.013v8.332h2.271v18.521
	l-2.271-0.004v8.334h8.324v-8.319l-2.271-0.004V201.891z"/>
<path fill-opacity="0" stroke="#000000" stroke-width="0.24" d="M294.855,201.891h2.269v-8.319l-8.323-0.013v8.332h2.27v18.458
	l-2.27-0.004v8.334h8.323v-8.321l-2.269-0.003V201.891z"/>
<path fill-opacity="0" stroke="#000000" stroke-width="0.24" d="M259.811,194.671v7.222h2.271v17.448l-2.24,2.236v-1.831
	l-8.322-0.012v8.334h8.322v-2.271h1.133l4.891-4.892v-19.015h2.271v-8.319l-7.519-0.013L259.811,194.671z"/>
<path fill-opacity="0" stroke="#000000" stroke-width="0.24" d="M100.945,221.577v-1.831l-8.323-0.012v8.334h8.323v-2.271h1.13
	l4.894-4.892v-19.015h2.269v-8.319l-7.516-0.013l-0.808,1.11v7.222h2.271v17.448L100.945,221.577z"/>
<path fill-opacity="0" stroke="#000000" stroke-width="0.24" d="M132.173,201.891v18.458l-2.27-0.004v8.334h8.323v-8.321
	l-2.271-0.003v-18.464h2.271v-8.319l-8.323-0.013v8.332H132.173L132.173,201.891z"/>
<path fill-opacity="0" stroke="#000000" stroke-width="0.24" d="M141.902,220.412l-2.271-0.004v8.334h8.325v-8.319l-2.271-0.004
	v-18.526h2.271v-8.319l-8.325-0.013v8.332h2.271V220.412z"/>
<path fill-opacity="0" stroke="#000000" stroke-width="0.24" d="M232.573,190.566c0.284-2.791-2.881-5.959-5.674-5.674
	c-2.793-0.285-5.958,2.883-5.676,5.674c-0.282,2.792,2.883,5.957,5.676,5.676C229.693,196.523,232.858,193.358,232.573,190.566z"/>
<path fill-opacity="0" stroke="#000000" stroke-width="0.24" d="M374.754,218.439l0.076-7.998l-5.022-4.881h-53.016l-2.676-2.678
	v-0.991h2.271v-8.319l-8.323-0.013v8.332h2.27v2.561l4.894,4.892h53.045l2.76,2.683l-0.061,6.408l-2.311-0.003v8.334h8.322v-8.321
	L374.754,218.439z"/>
<path fill-opacity="0" stroke="#000000" stroke-width="0.24" d="M391.471,190.566c0.283-2.791-2.882-5.959-5.675-5.674
	c-2.793-0.285-5.958,2.883-5.674,5.674c-0.284,2.792,2.881,5.957,5.674,5.676C388.589,196.523,391.754,193.358,391.471,190.566z"/>
<path fill-opacity="0" stroke="#000000" stroke-width="0.24" d="M96.376,190.566c0.284-2.791-2.881-5.959-5.674-5.674
	c-2.793-0.285-5.958,2.883-5.676,5.674c-0.282,2.792,2.883,5.957,5.676,5.676C93.495,196.523,96.66,193.358,96.376,190.566z"/>
<path fill-opacity="0" stroke="#000000" stroke-width="0.24" d="M96.376,326.764c0.284-2.792-2.881-5.958-5.674-5.676
	c-2.793-0.282-5.958,2.884-5.676,5.676c-0.282,2.793,2.883,5.958,5.676,5.675C93.495,332.722,96.66,329.557,96.376,326.764z"/>
<path fill-opacity="0" stroke="#000000" stroke-width="0.24" d="M391.471,326.764c0.283-2.792-2.882-5.958-5.675-5.676
	c-2.793-0.282-5.958,2.884-5.674,5.676c-0.284,2.793,2.881,5.958,5.674,5.675C388.589,332.722,391.754,329.557,391.471,326.764z"/>
<path fill-opacity="0" stroke="#000000" stroke-width="0.24" d="M384.577,226.738h2.271v-8.32l-8.323-0.014v8.334h-0.003v13.997
	h-54.679v-12.12h2.271v-8.32l-8.324-0.014v8.334h2.271v12.12l-44.462,0.008l-0.008-38.852h2.27v-8.319l-8.323-0.013v8.332h2.271
	l0.005,38.852l-11.567,0.002l-2.675-2.675v-0.273h2.27v-8.321l-8.322-0.013v8.334h2.271v1.841l1.106,1.105l-29.214-0.008v-13.997
	h2.271v-8.319l-8.325-0.015v8.334h2.271v13.997h-56.953v-12.12h2.27v-8.32l-8.322-0.014v8.334h2.271v12.12l-44.465,0.008
	l-0.005-38.852h2.269v-8.319l-8.322-0.013v8.332h2.271l0.005,38.852l-11.566,0.002l-2.676-2.675v-0.273h2.27v-8.321l-8.323-0.013
	v8.334h2.27v1.841l4.893,6.106l61.381-0.011h64.518l33.781,0.011l60.599-0.011h64.517V226.738z"/>
<path fill-opacity="0" stroke="#000000" stroke-width="0.24" d="M385.189,307.339v-30.938l-6.009-5.958h-66.034v16.591l-2.271-0.004
	v12.119h12.107v-12.101l-2.271-0.004v-9.034h55.354l1.558,1.545v27.771l-2.269-0.004v12.119h12.104v-12.101L385.189,307.339z"/>
<path fill-opacity="0" stroke="#000000" stroke-width="0.24" d="M327.9,298.144l-11.312,15.933l-1.282-0.002L299.4,301.681v-34.906
	l-9.796-8.978H140.625l-6,5.999l-0.009,54.123l6.011,5.996h11.351v2.271h12.106v-8.043l13.204-18.601h5.711v-12.101l-12.105-0.019
	v8.056l-13.202,18.597l-5.714-0.01v2.282h-8.223l-1.571-1.568l0.007-47.85l1.569-1.568h142.9l5.171,4.741v35.275l19.042,14.834
	v5.973h12.107v-8.043l11.862-16.709h8.945v-15.881l-15.891-0.023v12.615H327.9z"/>
<path fill-opacity="0" stroke="#000000" stroke-width="0.24" d="M218.711,307.326l-2.258-0.004v12.119h12.107v-12.101l-2.282-0.003
	l-0.063-30.877l-5.903-6.019h-60.065l-6,6.001v10.59l-2.269-0.004v12.119h12.106v-12.101l-2.271-0.005v-7.467l1.566-1.566h53.756
	l1.519,1.549L218.711,307.326z"/>
<path fill-opacity="0" stroke="#000000" stroke-width="0.24" d="M238.249,209.567v22.312"/>
<path fill-opacity="0" stroke="#000000" stroke-width="0.24" d="M238.249,249.04v5.148"/>
<path fill-opacity="0" stroke="#000000" stroke-width="0.24" d="M238.249,268.947v47.709"/>
<text transform="matrix(-4.371139e-008 -1 1 -4.371139e-008 135.0051 174.5144)" font-family="'MyriadPro-Regular'" font-size="6.9402">MB|IN2</text>
<text transform="matrix(-4.371139e-008 -1 1 -4.371139e-008 124.5842 173.5144)" font-family="'MyriadPro-Regular'" font-size="6.9402">+5V</text>
<text transform="matrix(1 0 0 1 80.3469 216.4636)" font-family="'MyriadPro-Regular'" font-size="5.7426">+5V</text>
<text transform="matrix(-4.371139e-008 -1 1 -4.371139e-008 116.8342 173.5144)" font-family="'MyriadPro-Regular'" font-size="6.9402">-5V</text>
<text transform="matrix(1 -0.0086 0.0086 1 81.822 235.615)" font-family="'MyriadPro-Regular'" font-size="5.7426">-5V</text>
<text transform="matrix(-4.371139e-008 -1 1 -4.371139e-008 106.8342 173.5144)" font-family="'MyriadPro-Regular'" font-size="6.9402">MBP</text>
<text transform="matrix(1 0 0 1 80.822 225.8259)" font-family="'MyriadPro-Regular'" font-size="5.0363">MBP</text>
<text transform="matrix(1 0 0 1 239.7346 217.1902)" font-family="'MyriadPro-Regular'" font-size="5.7426">+5V</text>
<text transform="matrix(1 0 0 1 356.4846 214.616)" font-family="'MyriadPro-Regular'" font-size="5.7426">+5V</text>
<text transform="matrix(1 -0.0086 0.0086 1 241.2097 236.3416)" font-family="'MyriadPro-Regular'" font-size="5.7426">-5V</text>
<text transform="matrix(1 -0.0086 0.0086 1 378.4597 214.3699)" font-family="'MyriadPro-Regular'" font-size="5.7426">-5V</text>
<text transform="matrix(1 0 0 1 199.2312 214.739)" font-family="'MyriadPro-Regular'" font-size="5.7426">+5V</text>
<text transform="matrix(1 0 0 1 172.9812 310.739)" font-family="'MyriadPro-Regular'" font-size="5.7426">+30V</text>
<text transform="matrix(1 0 0 1 151.9778 332.4568)" font-family="'MyriadPro-Regular'" font-size="5.7426">-30V</text>
<text transform="matrix(1 0 0 1 292.7087 323.9568)" font-family="'MyriadPro-Regular'" font-size="5.7426">-30V</text>
<text transform="matrix(1 0 0 1 330.6848 311.989)" font-family="'MyriadPro-Regular'" font-size="5.7426">+30V</text>
<text transform="matrix(1 -0.0086 0.0086 1 221.2063 214.4929)" font-family="'MyriadPro-Regular'" font-size="5.7426">-5V</text>
<text transform="matrix(1 0 0 1 240.2097 225.5525)" font-family="'MyriadPro-Regular'" font-size="5.0363">MAP</text>
<text transform="matrix(-4.371139e-008 -1 1 -4.371139e-008 144.2551 174.5144)" font-family="'MyriadPro-Regular'" font-size="6.9402">MB|IN1</text>
<text transform="matrix(-4.371139e-008 -1 1 -4.371139e-008 153.5745 174.5144)" font-family="'MyriadPro-Regular'" font-size="6.9402">MB|C</text>
<text transform="matrix(-4.371139e-008 -1 1 -4.371139e-008 293.6008 175.5144)" font-family="'MyriadPro-Regular'" font-size="6.9402">MA|IN2</text>
<text transform="matrix(-4.371139e-008 -1 1 -4.371139e-008 283.1799 174.5144)" font-family="'MyriadPro-Regular'" font-size="6.9402">+5V</text>
<text transform="matrix(-4.371139e-008 -1 1 -4.371139e-008 275.4299 174.5144)" font-family="'MyriadPro-Regular'" font-size="6.9402">-5V</text>
<text transform="matrix(-4.371139e-008 -1 1 -4.371139e-008 265.4299 174.5144)" font-family="'MyriadPro-Regular'" font-size="6.9402">MAP</text>
<text transform="matrix(-4.371139e-008 -1 1 -4.371139e-008 302.8508 175.5144)" font-family="'MyriadPro-Regular'" font-size="6.9402">MA|IN1</text>
<text transform="matrix(-4.371139e-008 -1 1 -4.371139e-008 312.1702 175.5144)" font-family="'MyriadPro-Regular'" font-size="6.9402">MA|C</text>
<text transform="matrix(1 0 0 1 354.1868 201.2878)" font-family="'MyriadPro-Regular'" font-size="6.9402">MA|C</text>
<text transform="matrix(1 0 0 1 179.1848 211.3894)" font-family="'MyriadPro-Regular'" font-size="6.9402">MB|C</text>
<path fill-opacity="0" stroke="#000000" stroke-width="0.24" d="M632.787,218.444v8.321h8.322v-8.334l-2.31,0.003l-0.062-6.408
	l2.761-2.683h53.047l4.89-4.892v-2.561h2.271v-8.332l-8.323,0.013v8.319h2.271v0.991l-2.677,1.791h-53.015l-5.023,5.768l0.078,7.998
	L632.787,218.444z"/>
<g>
	<path fill="#727272" fill-opacity="0" stroke="#727272" stroke-width="0.24" d="M595.447,223.905
		c0.012-0.12-0.125-0.256-0.244-0.245c-0.12-0.011-0.259,0.125-0.245,0.245c-0.014,0.122,0.125,0.259,0.245,0.245
		C595.322,224.164,595.458,224.027,595.447,223.905z"/>
	<path fill="#727272" fill-opacity="0" stroke="#727272" stroke-width="0.24" d="M478.305,222.565
		c0.011-0.122-0.126-0.258-0.246-0.245c-0.121-0.013-0.258,0.123-0.245,0.245c-0.013,0.12,0.124,0.256,0.245,0.245
		C478.179,222.821,478.316,222.685,478.305,222.565z"/>
	<path fill="#727272" fill-opacity="0" stroke="#727272" stroke-width="0.24" d="M595.447,233.634
		c0.012-0.119-0.125-0.256-0.244-0.245c-0.12-0.011-0.259,0.126-0.245,0.245c-0.014,0.12,0.125,0.258,0.245,0.245
		C595.322,233.89,595.458,233.754,595.447,233.634z"/>
	<path fill="#727272" fill-opacity="0" stroke="#727272" stroke-width="0.24" d="M488.879,313.286
		c0.013-0.122-0.124-0.258-0.245-0.245c-0.12-0.013-0.256,0.123-0.245,0.245c-0.011,0.12,0.125,0.257,0.245,0.245
		C488.755,313.543,488.891,313.406,488.879,313.286z"/>
	<path fill="#727272" fill-opacity="0" stroke="#727272" stroke-width="0.24" d="M468.439,222.576
		c0.014-0.119-0.124-0.258-0.245-0.245c-0.119-0.013-0.257,0.126-0.242,0.245c-0.015,0.12,0.123,0.258,0.242,0.245
		C468.315,222.834,468.452,222.696,468.439,222.576z"/>
	<path fill="#727272" fill-opacity="0" stroke="#727272" stroke-width="0.24" d="M601.529,190.566
		c0.011-0.12-0.126-0.257-0.245-0.246c-0.121-0.011-0.259,0.126-0.245,0.246c-0.014,0.121,0.123,0.258,0.245,0.244
		C601.403,190.824,601.539,190.687,601.529,190.566z"/>
	<path fill="#727272" fill-opacity="0" stroke="#727272" stroke-width="0.24" d="M558.164,224.517
		c0.011-0.122-0.125-0.258-0.245-0.245c-0.12-0.013-0.258,0.123-0.245,0.245c-0.013,0.12,0.125,0.256,0.245,0.245
		C558.039,224.773,558.176,224.637,558.164,224.517z"/>
	<path fill="#727272" fill-opacity="0" stroke="#727272" stroke-width="0.24" d="M534.2,293.096c0.012-0.12-0.125-0.257-0.245-0.245
		c-0.121-0.012-0.258,0.125-0.245,0.245c-0.013,0.121,0.124,0.258,0.245,0.245C534.075,293.353,534.212,293.218,534.2,293.096z"/>
	<path fill="#727272" fill-opacity="0" stroke="#727272" stroke-width="0.24" d="M515.283,293.49
		c0.012-0.12-0.125-0.257-0.245-0.245c-0.119-0.012-0.259,0.125-0.245,0.245c-0.014,0.121,0.126,0.258,0.245,0.245
		C515.158,293.748,515.295,293.611,515.283,293.49z"/>
	<path fill="#727272" fill-opacity="0" stroke="#727272" stroke-width="0.24" d="M760.558,326.687
		c0.013-0.12-0.123-0.256-0.245-0.245c-0.12-0.011-0.256,0.125-0.245,0.245c-0.011,0.122,0.125,0.258,0.245,0.245
		C760.434,326.945,760.571,326.809,760.558,326.687z"/>
	<path fill="#727272" fill-opacity="0" stroke="#727272" stroke-width="0.24" d="M538.901,197.73
		c0.014-0.121-0.124-0.258-0.244-0.244c-0.12-0.014-0.258,0.123-0.245,0.244c-0.013,0.121,0.125,0.257,0.245,0.246
		C538.777,197.987,538.914,197.851,538.901,197.73z"/>
	<path fill="#727272" fill-opacity="0" stroke="#727272" stroke-width="0.24" d="M567.892,197.73
		c0.011-0.121-0.125-0.258-0.245-0.244c-0.121-0.014-0.258,0.123-0.245,0.244c-0.013,0.121,0.123,0.257,0.245,0.246
		C567.767,197.987,567.903,197.851,567.892,197.73z"/>
	<path fill="#727272" fill-opacity="0" stroke="#727272" stroke-width="0.24" d="M529.175,224.453
		c0.011-0.119-0.126-0.257-0.245-0.244c-0.122-0.013-0.259,0.125-0.245,0.244c-0.014,0.121,0.123,0.259,0.245,0.245
		C529.05,224.712,529.186,224.574,529.175,224.453z"/>
	<path fill="#727272" fill-opacity="0" stroke="#727272" stroke-width="0.24" d="M548.437,224.58
		c0.014-0.119-0.124-0.256-0.244-0.244c-0.121-0.012-0.258,0.125-0.244,0.244c-0.014,0.122,0.123,0.259,0.244,0.245
		C548.313,224.839,548.45,224.702,548.437,224.58z"/>
	<path fill="#727272" fill-opacity="0" stroke="#727272" stroke-width="0.24" d="M595.447,214.369
		c0.012-0.119-0.125-0.258-0.244-0.244c-0.12-0.014-0.259,0.125-0.245,0.244c-0.014,0.12,0.125,0.258,0.245,0.246
		C595.322,214.627,595.458,214.489,595.447,214.369z"/>
	<path fill="#727272" fill-opacity="0" stroke="#727272" stroke-width="0.24" d="M534.2,320.134c0.012-0.12-0.125-0.257-0.245-0.244
		c-0.121-0.013-0.258,0.124-0.245,0.244c-0.013,0.121,0.124,0.258,0.245,0.245C534.075,320.39,534.212,320.255,534.2,320.134z"/>
	<path fill="#727272" fill-opacity="0" stroke="#727272" stroke-width="0.24" d="M515.044,320.235
		c0.011-0.119-0.125-0.256-0.245-0.245c-0.122-0.011-0.258,0.126-0.245,0.245c-0.013,0.122,0.123,0.259,0.245,0.245
		C514.919,320.494,515.054,320.357,515.044,320.235z"/>
	<path fill="#727272" fill-opacity="0" stroke="#727272" stroke-width="0.24" d="M469.722,313.39
		c0.013-0.122-0.124-0.259-0.245-0.245c-0.12-0.014-0.257,0.123-0.245,0.245c-0.012,0.119,0.125,0.256,0.245,0.245
		C469.598,313.645,469.735,313.51,469.722,313.39z"/>
	<path fill="#727272" fill-opacity="0" stroke="#727272" stroke-width="0.24" d="M465.42,326.687
		c0.011-0.12-0.125-0.256-0.245-0.245c-0.122-0.011-0.258,0.125-0.245,0.245c-0.013,0.122,0.123,0.258,0.245,0.245
		C465.295,326.945,465.43,326.809,465.42,326.687z"/>
	<path fill="#727272" fill-opacity="0" stroke="#727272" stroke-width="0.24" d="M465.329,190.578
		c0.014-0.121-0.123-0.258-0.243-0.244c-0.121-0.014-0.258,0.123-0.245,0.244c-0.013,0.121,0.124,0.258,0.245,0.246
		C465.206,190.836,465.343,190.699,465.329,190.578z"/>
	<path fill="#727272" fill-opacity="0" stroke="#727272" stroke-width="0.24" d="M486.881,324.016h21.854v2.269h2.313l0.048,7.494
		H677.47v-7.494h2.271v-12.117l-12.105,0.019v2.264h-14.058v-9.232l-12.107,0.019v12.101h3.589l4.68,4.683h17.896v2.68H520.889
		l-0.021-4.192h-0.023v-8.336l-12.107,0.019v2.264h-12.164v-11.129l-15.891,0.026v15.881h6.237L486.881,324.016z"/>
	<path fill="#727272" fill-opacity="0" stroke="#727272" stroke-width="0.24" d="M488.014,222.565
		c0.011-0.122-0.126-0.258-0.245-0.245c-0.122-0.013-0.259,0.123-0.245,0.245c-0.014,0.12,0.123,0.256,0.245,0.245
		C487.888,222.821,488.025,222.685,488.014,222.565z"/>
	<path fill="#727272" fill-opacity="0" stroke="#727272" stroke-width="0.24" d="M548.437,197.73
		c0.014-0.121-0.124-0.258-0.244-0.244c-0.121-0.014-0.258,0.123-0.244,0.244c-0.014,0.121,0.123,0.257,0.244,0.246
		C548.313,197.987,548.45,197.851,548.437,197.73z"/>
	<path fill="#727272" fill-opacity="0" stroke="#727272" stroke-width="0.24" d="M558.164,197.73
		c0.011-0.121-0.125-0.258-0.245-0.244c-0.12-0.014-0.258,0.123-0.245,0.244c-0.013,0.121,0.125,0.257,0.245,0.246
		C558.039,197.987,558.176,197.851,558.164,197.73z"/>
	<path fill="#727272" fill-opacity="0" stroke="#727272" stroke-width="0.24" d="M577.428,197.73
		c0.011-0.121-0.125-0.258-0.245-0.244c-0.121-0.014-0.258,0.123-0.245,0.244c-0.013,0.121,0.123,0.257,0.245,0.246
		C577.302,197.987,577.439,197.851,577.428,197.73z"/>
	<path fill="#727272" fill-opacity="0" stroke="#727272" stroke-width="0.24" d="M587.153,197.73
		c0.014-0.121-0.123-0.258-0.242-0.244c-0.121-0.014-0.259,0.123-0.245,0.244c-0.014,0.121,0.123,0.257,0.245,0.246
		C587.03,197.987,587.167,197.851,587.153,197.73z"/>
	<path fill="#727272" fill-opacity="0" stroke="#727272" stroke-width="0.24" d="M538.901,224.453
		c0.014-0.119-0.124-0.257-0.244-0.244c-0.12-0.013-0.258,0.125-0.245,0.244c-0.013,0.121,0.125,0.259,0.245,0.245
		C538.777,224.712,538.914,224.574,538.901,224.453z"/>
	<path fill="#727272" fill-opacity="0" stroke="#727272" stroke-width="0.24" d="M624.218,190.578
		c0.013-0.121-0.125-0.258-0.245-0.244c-0.12-0.014-0.256,0.123-0.245,0.244c-0.011,0.121,0.125,0.258,0.245,0.246
		C624.094,190.836,624.232,190.699,624.218,190.578z"/>
	<path fill="#727272" fill-opacity="0" stroke="#727272" stroke-width="0.24" d="M627.328,222.576
		c0.013-0.119-0.125-0.258-0.245-0.245c-0.12-0.013-0.258,0.126-0.245,0.245c-0.013,0.12,0.125,0.258,0.245,0.245
		C627.203,222.834,627.342,222.696,627.328,222.576z"/>
	<path fill="#727272" fill-opacity="0" stroke="#727272" stroke-width="0.24" d="M637.193,222.565
		c0.014-0.122-0.123-0.258-0.244-0.245c-0.12-0.013-0.257,0.123-0.245,0.245c-0.012,0.12,0.125,0.256,0.245,0.245
		C637.069,222.821,637.205,222.685,637.193,222.565z"/>
	<path fill="#727272" fill-opacity="0" stroke="#727272" stroke-width="0.24" d="M646.901,222.565
		c0.014-0.122-0.123-0.258-0.244-0.245c-0.12-0.013-0.257,0.123-0.245,0.245c-0.012,0.12,0.125,0.256,0.245,0.245
		C646.778,222.821,646.915,222.685,646.901,222.565z"/>
	<path fill="#727272" fill-opacity="0" stroke="#727272" stroke-width="0.24" d="M697.79,197.73
		c0.011-0.121-0.125-0.258-0.245-0.244c-0.121-0.014-0.258,0.123-0.245,0.244c-0.013,0.121,0.123,0.257,0.245,0.246
		C697.665,197.987,697.802,197.851,697.79,197.73z"/>
	<path fill="#727272" fill-opacity="0" stroke="#727272" stroke-width="0.24" d="M707.326,197.73
		c0.013-0.121-0.125-0.258-0.245-0.244c-0.121-0.014-0.26,0.123-0.246,0.244c-0.013,0.121,0.126,0.257,0.246,0.246
		C707.201,197.987,707.339,197.851,707.326,197.73z"/>
	<path fill="#727272" fill-opacity="0" stroke="#727272" stroke-width="0.24" d="M717.054,197.73
		c0.011-0.121-0.125-0.258-0.245-0.244c-0.121-0.014-0.258,0.123-0.245,0.244c-0.013,0.121,0.123,0.257,0.245,0.246
		C716.928,197.987,717.065,197.851,717.054,197.73z"/>
	<path fill="#727272" fill-opacity="0" stroke="#727272" stroke-width="0.24" d="M726.779,197.73
		c0.014-0.121-0.123-0.258-0.244-0.244c-0.12-0.014-0.257,0.123-0.245,0.244c-0.012,0.121,0.125,0.257,0.245,0.246
		C726.656,197.987,726.793,197.851,726.779,197.73z"/>
	<path fill="#727272" fill-opacity="0" stroke="#727272" stroke-width="0.24" d="M760.416,190.566
		c0.013-0.12-0.123-0.257-0.245-0.246c-0.12-0.011-0.256,0.126-0.245,0.246c-0.011,0.121,0.125,0.258,0.245,0.244
		C760.293,190.824,760.429,190.687,760.416,190.566z"/>
	<path fill="#727272" fill-opacity="0" stroke="#727272" stroke-width="0.24" d="M736.316,197.73
		c0.013-0.121-0.124-0.258-0.244-0.244c-0.12-0.014-0.258,0.123-0.244,0.244c-0.014,0.121,0.123,0.257,0.244,0.246
		C736.192,197.987,736.328,197.851,736.316,197.73z"/>
	<path fill="#727272" fill-opacity="0" stroke="#727272" stroke-width="0.24" d="M746.043,197.73
		c0.013-0.121-0.123-0.258-0.245-0.244c-0.121-0.014-0.257,0.123-0.246,0.244c-0.01,0.121,0.126,0.257,0.246,0.246
		C745.92,197.987,746.056,197.851,746.043,197.73z"/>
	<path fill="#727272" fill-opacity="0" stroke="#727272" stroke-width="0.24" d="M688.063,224.453
		c0.014-0.119-0.125-0.257-0.245-0.244c-0.12-0.013-0.256,0.125-0.245,0.244c-0.011,0.121,0.125,0.259,0.245,0.245
		C687.937,224.712,688.076,224.574,688.063,224.453z"/>
	<path fill="#727272" fill-opacity="0" stroke="#727272" stroke-width="0.24" d="M697.79,224.453
		c0.011-0.119-0.125-0.257-0.245-0.244c-0.121-0.013-0.258,0.125-0.245,0.244c-0.013,0.121,0.123,0.259,0.245,0.245
		C697.665,224.712,697.802,224.574,697.79,224.453z"/>
	<path fill="#727272" fill-opacity="0" stroke="#727272" stroke-width="0.24" d="M707.326,224.58
		c0.013-0.119-0.125-0.256-0.245-0.244c-0.121-0.012-0.26,0.125-0.246,0.244c-0.013,0.122,0.126,0.259,0.246,0.245
		C707.201,224.839,707.339,224.702,707.326,224.58z"/>
	<path fill="#727272" fill-opacity="0" stroke="#727272" stroke-width="0.24" d="M717.054,224.517
		c0.011-0.122-0.125-0.258-0.245-0.245c-0.121-0.013-0.258,0.123-0.245,0.245c-0.013,0.12,0.123,0.256,0.245,0.245
		C716.928,224.773,717.065,224.637,717.054,224.517z"/>
	<path fill="#727272" fill-opacity="0" stroke="#727272" stroke-width="0.24" d="M754.337,233.634
		c0.011-0.119-0.125-0.256-0.245-0.245c-0.122-0.011-0.259,0.126-0.246,0.245c-0.012,0.12,0.124,0.258,0.246,0.245
		C754.211,233.89,754.347,233.754,754.337,233.634z"/>
	<path fill="#727272" fill-opacity="0" stroke="#727272" stroke-width="0.24" d="M754.337,223.905
		c0.011-0.12-0.125-0.256-0.245-0.245c-0.122-0.011-0.259,0.125-0.246,0.245c-0.012,0.122,0.124,0.259,0.246,0.245
		C754.211,224.164,754.347,224.027,754.337,223.905z"/>
	<path fill="#727272" fill-opacity="0" stroke="#727272" stroke-width="0.24" d="M754.337,214.369
		c0.011-0.119-0.125-0.258-0.245-0.244c-0.122-0.014-0.259,0.125-0.246,0.244c-0.012,0.12,0.124,0.258,0.246,0.246
		C754.211,214.627,754.347,214.489,754.337,214.369z"/>
	<path fill="#727272" fill-opacity="0" stroke="#727272" stroke-width="0.24" d="M693.088,293.096
		c0.013-0.12-0.123-0.257-0.245-0.245c-0.12-0.012-0.256,0.125-0.245,0.245c-0.011,0.121,0.125,0.258,0.245,0.245
		C692.965,293.353,693.101,293.218,693.088,293.096z"/>
	<path fill="#727272" fill-opacity="0" stroke="#727272" stroke-width="0.24" d="M693.088,320.134
		c0.013-0.12-0.123-0.257-0.245-0.244c-0.12-0.013-0.256,0.124-0.245,0.244c-0.011,0.121,0.125,0.258,0.245,0.245
		C692.965,320.39,693.101,320.255,693.088,320.134z"/>
	<path fill="#727272" fill-opacity="0" stroke="#727272" stroke-width="0.24" d="M673.931,320.235
		c0.013-0.119-0.123-0.256-0.245-0.245c-0.12-0.011-0.256,0.126-0.245,0.245c-0.011,0.122,0.125,0.259,0.245,0.245
		C673.808,320.494,673.944,320.357,673.931,320.235z"/>
	<path fill="#727272" fill-opacity="0" stroke="#727272" stroke-width="0.24" d="M674.171,293.49
		c0.013-0.12-0.123-0.257-0.245-0.245c-0.12-0.012-0.257,0.125-0.244,0.245c-0.012,0.121,0.124,0.258,0.244,0.245
		C674.048,293.748,674.184,293.611,674.171,293.49z"/>
	<path fill="#727272" fill-opacity="0" stroke="#727272" stroke-width="0.24" d="M647.769,313.286
		c0.01-0.122-0.126-0.258-0.246-0.245c-0.121-0.013-0.258,0.123-0.245,0.245c-0.013,0.12,0.123,0.257,0.245,0.245
		C647.643,313.543,647.779,313.406,647.769,313.286z"/>
	<path fill="#727272" fill-opacity="0" stroke="#727272" stroke-width="0.24" d="M628.611,313.39
		c0.012-0.122-0.125-0.259-0.244-0.245c-0.121-0.014-0.259,0.123-0.245,0.245c-0.014,0.119,0.123,0.256,0.245,0.245
		C628.486,313.645,628.623,313.51,628.611,313.39z"/>
	<path fill="#727272" fill-opacity="0" stroke="#727272" stroke-width="0.24" d="M601.274,196.242
		c2.793,0.281,5.958-2.884,5.677-5.676c0.281-2.791-2.885-5.959-5.677-5.674c-2.793-0.285-5.958,2.883-5.674,5.674
		C595.316,193.358,598.481,196.523,601.274,196.242z"/>
	<path fill="#727272" fill-opacity="0" stroke="#727272" stroke-width="0.24" d="M546.293,220.419l-2.271,0.004v8.319h8.324v-8.334
		l-2.271,0.004v-18.521h2.271v-8.332l-8.324,0.013v8.319h2.271V220.419z"/>
	<path fill="#727272" fill-opacity="0" stroke="#727272" stroke-width="0.24" d="M556.019,220.355l-2.269,0.003v8.321h8.323v-8.334
		l-2.27,0.004v-18.458h2.27v-8.332l-8.323,0.013v8.319h2.269V220.355z"/>
	<path fill="#727272" fill-opacity="0" stroke="#727272" stroke-width="0.24" d="M590.256,193.559l-7.519,0.013v8.319h2.271v19.015
		l4.891,4.892h1.133v2.271h8.322v-8.334l-8.322,0.012v1.831l-2.24-2.236v-17.448h2.271v-7.222L590.256,193.559z"/>
	<path fill="#727272" fill-opacity="0" stroke="#727272" stroke-width="0.24" d="M747.689,219.34v-17.448h2.271v-7.222l-0.808-1.11
		l-7.516,0.013v8.319h2.269v19.015l4.894,4.892h1.13v2.271h8.323v-8.334l-8.323,0.012v1.831L747.689,219.34z"/>
	<path fill="#727272" fill-opacity="0" stroke="#727272" stroke-width="0.24" d="M718.7,201.891h2.27v-8.332l-8.323,0.013v8.319
		h2.271v18.464l-2.271,0.003v8.321h8.323v-8.334l-2.27,0.004V201.891L718.7,201.891z"/>
	<path fill="#727272" fill-opacity="0" stroke="#727272" stroke-width="0.24" d="M708.972,201.892h2.271v-8.332l-8.325,0.013v8.319
		h2.271v18.526l-2.271,0.004v8.319h8.325v-8.334l-2.271,0.004V201.892z"/>
	<path fill="#727272" fill-opacity="0" stroke="#727272" stroke-width="0.24" d="M623.974,196.242
		c2.793,0.281,5.958-2.884,5.676-5.676c0.282-2.791-2.883-5.959-5.676-5.674c-2.793-0.285-5.958,2.883-5.674,5.674
		C618.016,193.358,621.181,196.523,623.974,196.242z"/>
	<path fill="#727272" fill-opacity="0" stroke="#727272" stroke-width="0.24" d="M473.89,218.444v8.321h8.322v-8.334l-2.311,0.003
		l-0.061-6.408l2.76-2.683h53.045l4.894-4.892v-2.561h2.27v-8.332l-8.323,0.013v8.319h2.271v0.991l-2.676,2.678h-53.016
		l-5.022,4.881l0.076,7.998L473.89,218.444z"/>
	<path fill="#727272" fill-opacity="0" stroke="#727272" stroke-width="0.24" d="M465.077,196.242
		c2.793,0.281,5.958-2.884,5.674-5.676c0.284-2.791-2.881-5.959-5.674-5.674c-2.793-0.285-5.958,2.883-5.675,5.674
		C459.119,193.358,462.284,196.523,465.077,196.242z"/>
	<path fill="#727272" fill-opacity="0" stroke="#727272" stroke-width="0.24" d="M760.171,196.242
		c2.793,0.281,5.958-2.884,5.676-5.676c0.282-2.791-2.883-5.959-5.676-5.674c-2.793-0.285-5.958,2.883-5.674,5.674
		C754.213,193.358,757.378,196.523,760.171,196.242z"/>
	<path fill="#727272" fill-opacity="0" stroke="#727272" stroke-width="0.24" d="M760.171,332.439
		c2.793,0.283,5.958-2.882,5.676-5.675c0.282-2.792-2.883-5.958-5.676-5.676c-2.793-0.282-5.958,2.884-5.674,5.676
		C754.213,329.557,757.378,332.722,760.171,332.439z"/>
	<path fill="#727272" fill-opacity="0" stroke="#727272" stroke-width="0.24" d="M465.077,332.439
		c2.793,0.283,5.958-2.882,5.674-5.675c0.284-2.792-2.881-5.958-5.674-5.676c-2.793-0.282-5.958,2.884-5.675,5.676
		C459.119,329.557,462.284,332.722,465.077,332.439z"/>
	<path fill="#727272" fill-opacity="0" stroke="#727272" stroke-width="0.24" d="M491.922,224.46h20.855l7.318-7.96h13.986
		l2.676,2.675v1.119l-2.271,0.003v8.32h2.282l0.006,2.107l4.871,4.891h22.993l4.891-4.891v-6.205v-22.626h2.271v-8.332l-1.447,0.002
		l1.889-2.017h16.546l1.469,2.015h0.807v1.11l2.238,3.071v12.466l-2.27,0.004v8.318h8.322v-8.332l-2.271,0.003v-5.95h85.35
		l7.567-12.705h34.643v2.022l-2.27,0.004v8.319h2.27v27.264l-2.675,2.676h-19.855l-2.663-2.676l-0.003-0.54h2.259v-8.334
		l-2.271,0.005v-2.682l-4.89-4.89H677.33l-7.318,7.957h-19.193v-2.278l-8.322,0.013v8.319h8.322v-2.269h20.854l7.318-7.96h13.985
		l2.677,2.675v1.119l-2.271,0.003v8.32h2.282l0.006,2.107l4.872,4.891h22.993l4.892-4.891v-28.831h2.271v-8.332l-2.271,0.004v-2.019
		h19.256l1.469,2.015l0.278,0.386l0.529,0.726l2.238,3.071v12.466l-2.27,0.004v8.318h8.323v-8.332l-2.27,0.003V196.51l-6.375-9.347
		h-24.965h-36.71l-7.566,12.379h-83.282v-3.032l-6.373-8.747h-20.109l-4.854,5.182v0.625l-2.271,0.004v8.319h2.271v22.626v4.638
		l-2.676,2.675h-19.854l-2.664-2.675l-0.002-0.54h2.259v-8.334l-2.27,0.004v-2.681l-4.894-4.89h-17.214l-7.316,7.957h-19.194v-2.278
		l-8.322,0.013v8.319h8.322v-2.27V224.46z"/>
	<path fill="#727272" fill-opacity="0" stroke="#727272" stroke-width="0.24" d="M466.296,245.733h64.517l60.599,0.011l33.781-0.011
		h64.518l61.381,0.011l4.893-6.106v-1.841h2.27v-8.334l-8.323,0.013v8.321h2.27v0.273l-2.676,2.675l-11.566-0.002l0.005-38.852
		h2.271v-8.332l-8.322,0.013v8.319h2.269l-0.005,38.852l-44.465-0.008v-12.12h2.271v-8.334l-8.322,0.014v8.32h2.27v12.12h-56.953
		v-13.997h2.271v-8.334l-8.325,0.015v8.319h2.271v13.997l-29.214,0.008l1.106-1.105v-1.841h2.271v-8.334l-8.322,0.013v8.321h2.27
		v0.273l-2.675,2.675l-11.567-0.002l0.005-38.852h2.271v-8.332l-8.323,0.013v8.319h2.27l-0.008,38.852l-44.462-0.008v-12.12h2.271
		v-8.334l-8.324,0.014v8.32h2.271v12.12h-54.679v-13.997h-0.003v-8.334l-8.323,0.014v8.32h2.271V245.733z"/>
	<path fill="#727272" fill-opacity="0" stroke="#727272" stroke-width="0.24" d="M463.416,307.341v12.101h12.104v-12.119
		l-2.269,0.004v-27.771l1.558-1.545h55.354v9.034l-2.271,0.004v12.101h12.107V287.03l-2.271,0.004v-16.591h-66.034l-6.009,5.958
		v30.938L463.416,307.341z"/>
	<path fill="#727272" fill-opacity="0" stroke="#727272" stroke-width="0.24" d="M522.976,298.144v-12.615l-15.891,0.023v15.881
		h8.945l11.862,16.709v8.043H540v-5.973l19.042-14.834v-35.275l5.171-4.741h142.9l1.569,1.568l0.007,47.85l-1.571,1.568h-8.223
		v-2.282l-5.714,0.01l-13.202-18.597v-8.056l-12.105,0.019v12.101h5.711l13.204,18.601v8.043h12.106v-2.271h11.351l6.011-5.996
		l-0.009-54.123l-6-5.999H561.27l-9.796,8.978v34.906l-15.906,12.394l-1.282,0.002l-11.312-15.933H522.976z"/>
	<path fill="#727272" fill-opacity="0" stroke="#727272" stroke-width="0.24" d="M632.219,279.558l1.519-1.549h53.756l1.566,1.566
		v7.467l-2.271,0.005v12.101h12.106v-12.119l-2.269,0.004v-10.59l-6-6.001h-60.065l-5.903,6.019l-0.063,30.877l-2.282,0.003v12.101
		h12.107v-12.119l-2.258,0.004L632.219,279.558z"/>
	<path fill="#727272" fill-opacity="0" stroke="#727272" stroke-width="0.24" d="M612.624,190.347v-11.13h158.896v158.897H612.624"
		/>
	<path fill="#727272" fill-opacity="0" stroke="#727272" stroke-width="0.24" d="M612.624,338.115H453.728V179.218h158.896"/>
	<path fill="#727272" fill-opacity="0" stroke="#727272" stroke-width="0.24" d="M612.624,231.879v-22.312"/>
	<path fill="#727272" fill-opacity="0" stroke="#727272" stroke-width="0.24" d="M612.624,254.188v-5.148"/>
	<path fill="#727272" fill-opacity="0" stroke="#727272" stroke-width="0.24" d="M612.624,316.656v-47.709"/>
</g>
<text transform="matrix(-4.371139e-008 -1 1 -4.371139e-008 720.2766 174.946)" font-family="'MyriadPro-Regular'" font-size="6.9402">MB|IN2</text>
<text transform="matrix(-4.371139e-008 -1 1 -4.371139e-008 730.6965 173.946)" font-family="'MyriadPro-Regular'" font-size="6.9402">+5V</text>
<text transform="matrix(1 0 0 1 760.4172 215.9773)" font-family="'MyriadPro-Regular'" font-size="5.7426">+5V</text>
<text transform="matrix(-4.371139e-008 -1 1 -4.371139e-008 738.4465 173.946)" font-family="'MyriadPro-Regular'" font-size="6.9402">-5V</text>
<text transform="matrix(1 -0.0086 0.0086 1 761.8938 235.1287)" font-family="'MyriadPro-Regular'" font-size="5.7426">-5V</text>
<text transform="matrix(-4.371139e-008 -1 1 -4.371139e-008 748.4465 173.946)" font-family="'MyriadPro-Regular'" font-size="6.9402">MBP</text>
<text transform="matrix(1 0 0 1 760.8938 225.3396)" font-family="'MyriadPro-Regular'" font-size="5.0363">MBP</text>
<text transform="matrix(1 0 0 1 601.2844 215.5476)" font-family="'MyriadPro-Regular'" font-size="5.7426">+5V</text>
<text transform="matrix(1 0 0 1 483.5999 215.3015)" font-family="'MyriadPro-Regular'" font-size="5.7426">+5V</text>
<text transform="matrix(1 -0.0086 0.0086 1 601.0295 235.1287)" font-family="'MyriadPro-Regular'" font-size="5.7426">-5V</text>
<text transform="matrix(1 -0.0086 0.0086 1 462.7473 214.1238)" font-family="'MyriadPro-Regular'" font-size="5.7426">-5V</text>
<text transform="matrix(1 0 0 1 642.6438 215.3015)" font-family="'MyriadPro-Regular'" font-size="5.7426">+5V</text>
<text transform="matrix(1 0 0 1 664.8938 310.739)" font-family="'MyriadPro-Regular'" font-size="5.7426">+30V</text>
<text transform="matrix(1 0 0 1 687.5715 333.3884)" font-family="'MyriadPro-Regular'" font-size="5.7426">-30V</text>
<text transform="matrix(1 0 0 1 547.1633 323.1238)" font-family="'MyriadPro-Regular'" font-size="5.7426">-30V</text>
<text transform="matrix(1 0 0 1 508.3508 310.739)" font-family="'MyriadPro-Regular'" font-size="5.7426">+30V</text>
<text transform="matrix(1 -0.0086 0.0086 1 622.3127 214.616)" font-family="'MyriadPro-Regular'" font-size="5.7426">-5V</text>
<text transform="matrix(1 0 0 1 601.0305 225.5525)" font-family="'MyriadPro-Regular'" font-size="5.0363">MAP</text>
<text transform="matrix(-4.371139e-008 -1 1 -4.371139e-008 711.0266 174.946)" font-family="'MyriadPro-Regular'" font-size="6.9402">MB|IN1</text>
<text transform="matrix(-4.371139e-008 -1 1 -4.371139e-008 701.7063 174.946)" font-family="'MyriadPro-Regular'" font-size="6.9402">MB|C</text>
<text transform="matrix(-4.371139e-008 -1 1 -4.371139e-008 560.2122 176.946)" font-family="'MyriadPro-Regular'" font-size="6.9402">MA|IN2</text>
<text transform="matrix(-4.371139e-008 -1 1 -4.371139e-008 570.6321 175.946)" font-family="'MyriadPro-Regular'" font-size="6.9402">+5V</text>
<text transform="matrix(-4.371139e-008 -1 1 -4.371139e-008 578.3821 175.946)" font-family="'MyriadPro-Regular'" font-size="6.9402">-5V</text>
<text transform="matrix(-4.371139e-008 -1 1 -4.371139e-008 588.3821 175.946)" font-family="'MyriadPro-Regular'" font-size="6.9402">MAP</text>
<text transform="matrix(-4.371139e-008 -1 1 -4.371139e-008 550.9622 176.946)" font-family="'MyriadPro-Regular'" font-size="6.9402">MA|IN1</text>
<text transform="matrix(-4.371139e-008 -1 1 -4.371139e-008 550.9622 145.2795)" font-family="'MyriadPro-Regular'" font-size="6.9402">D5</text>
<text transform="matrix(-4.371139e-008 -1 1 -4.371139e-008 541.6418 145.2795)" font-family="'MyriadPro-Regular'" font-size="6.9402">A5</text>
<text transform="matrix(-4.371139e-008 -1 1 -4.371139e-008 586.6653 145.2795)" font-family="'MyriadPro-Regular'" font-size="6.9402">A4</text>
<text transform="matrix(-4.371139e-008 -1 1 -4.371139e-008 698.8958 145.2795)" font-family="'MyriadPro-Regular'" font-size="6.9402">A3</text>
<text transform="matrix(-4.371139e-008 -1 1 -4.371139e-008 748.4465 145.2795)" font-family="'MyriadPro-Regular'" font-size="6.9402">A2</text>
<text transform="matrix(-4.371139e-008 -1 1 -4.371139e-008 560.2122 145.2795)" font-family="'MyriadPro-Regular'" font-size="6.9402">D6</text>
<text transform="matrix(-4.371139e-008 -1 1 -4.371139e-008 709.6301 145.2795)" font-family="'MyriadPro-Regular'" font-size="6.9402">D9</text>
<text transform="matrix(-4.371139e-008 -1 1 -4.371139e-008 718.8801 145.2795)" font-family="'MyriadPro-Regular'" font-size="6.9402">D10</text>
<text transform="matrix(-4.371139e-008 -1 1 -4.371139e-008 541.6418 176.946)" font-family="'MyriadPro-Regular'" font-size="6.9402">MA|C</text>
<text transform="matrix(1 0 0 1 490.8547 201.2878)" font-family="'MyriadPro-Regular'" font-size="6.9402">MA|C</text>
<text transform="matrix(1 0 0 1 657.5227 212.321)" font-family="'MyriadPro-Regular'" font-size="6.9402">MB|C</text>
<text transform="matrix(1 0 0 1 92.6213 128.9744)" font-family="'MyriadPro-Regular'" font-size="12">BOTTOM</text>
<text transform="matrix(1 0 0 1 89.5403 93.302)" font-family="'MyriadPro-Regular'" font-size="12">DUAL DC MOTOR DRIVER WITH CURRENT SENSOR AND POTENSIOMETER FEEDBACK MODULE</text>
<text transform="matrix(1 0 0 1 89.5403 71.9685)" font-family="'CfJeckylCondensedGrBold'" font-size="22">STEERING MODULE</text>
<text transform="matrix(1 0 0 1 457.1213 128.9744)" font-family="'MyriadPro-Regular'" font-size="12">TOP</text>
<path fill-opacity="0" stroke="#000000" stroke-width="0.24" d="M255.671,435.648c0.12,0.014,0.259-0.123,0.245-0.245
	c0.014-0.12-0.125-0.256-0.245-0.245c-0.119-0.011-0.256,0.125-0.244,0.245C255.415,435.525,255.552,435.662,255.671,435.648z"/>
<path fill-opacity="0" stroke="#000000" stroke-width="0.24" d="M372.815,434.308c0.121,0.011,0.258-0.125,0.245-0.245
	c0.013-0.122-0.124-0.258-0.245-0.245c-0.12-0.013-0.257,0.123-0.246,0.245C372.558,434.183,372.695,434.319,372.815,434.308z"/>
<path fill-opacity="0" stroke="#000000" stroke-width="0.24" d="M255.671,445.377c0.12,0.013,0.259-0.125,0.245-0.245
	c0.014-0.119-0.125-0.256-0.245-0.245c-0.119-0.011-0.256,0.126-0.244,0.245C255.415,445.252,255.552,445.388,255.671,445.377z"/>
<path fill-opacity="0" stroke="#000000" stroke-width="0.24" d="M362.24,525.029c0.12,0.012,0.256-0.125,0.245-0.245
	c0.011-0.122-0.125-0.258-0.245-0.245c-0.121-0.013-0.258,0.123-0.245,0.245C361.983,524.904,362.118,525.041,362.24,525.029z"/>
<path fill-opacity="0" stroke="#000000" stroke-width="0.24" d="M382.68,434.319c0.119,0.013,0.257-0.125,0.242-0.245
	c0.015-0.119-0.123-0.258-0.242-0.245c-0.121-0.013-0.259,0.126-0.245,0.245C382.421,434.194,382.559,434.332,382.68,434.319z"/>
<path fill-opacity="0" stroke="#000000" stroke-width="0.24" d="M249.59,402.308c0.122,0.014,0.259-0.123,0.245-0.244
	c0.014-0.12-0.124-0.257-0.245-0.246c-0.119-0.011-0.256,0.126-0.245,0.246C249.334,402.185,249.471,402.322,249.59,402.308z"/>
<path fill-opacity="0" stroke="#000000" stroke-width="0.24" d="M292.954,436.26c0.12,0.011,0.258-0.125,0.245-0.245
	c0.013-0.122-0.125-0.258-0.245-0.245c-0.12-0.013-0.256,0.123-0.245,0.245C292.698,436.135,292.834,436.271,292.954,436.26z"/>
<path fill-opacity="0" stroke="#000000" stroke-width="0.24" d="M316.918,504.84c0.121,0.013,0.258-0.124,0.245-0.245
	c0.013-0.12-0.124-0.257-0.245-0.245c-0.12-0.012-0.257,0.125-0.245,0.245C316.661,504.716,316.798,504.851,316.918,504.84z"/>
<path fill-opacity="0" stroke="#000000" stroke-width="0.24" d="M335.835,505.233c0.119,0.013,0.259-0.124,0.245-0.245
	c0.014-0.12-0.126-0.257-0.245-0.245c-0.12-0.012-0.257,0.125-0.245,0.245C335.578,505.109,335.715,505.246,335.835,505.233z"/>
<path fill-opacity="0" stroke="#000000" stroke-width="0.24" d="M90.561,538.43c0.12,0.013,0.256-0.123,0.245-0.245
	c0.011-0.12-0.125-0.256-0.245-0.245c-0.122-0.011-0.258,0.125-0.245,0.245C90.303,538.307,90.44,538.443,90.561,538.43z"/>
<path fill-opacity="0" stroke="#000000" stroke-width="0.24" d="M312.217,409.474c0.12,0.011,0.258-0.125,0.245-0.246
	c0.013-0.121-0.125-0.258-0.245-0.244c-0.12-0.014-0.258,0.123-0.244,0.244C311.959,409.349,312.097,409.485,312.217,409.474z"/>
<path fill-opacity="0" stroke="#000000" stroke-width="0.24" d="M283.227,409.474c0.122,0.011,0.258-0.125,0.245-0.246
	c0.013-0.121-0.124-0.258-0.245-0.244c-0.12-0.014-0.256,0.123-0.245,0.244C282.971,409.349,283.107,409.485,283.227,409.474z"/>
<path fill-opacity="0" stroke="#000000" stroke-width="0.24" d="M321.944,436.196c0.122,0.014,0.259-0.124,0.245-0.245
	c0.014-0.119-0.123-0.257-0.245-0.244c-0.119-0.013-0.256,0.125-0.245,0.244C321.688,436.072,321.823,436.21,321.944,436.196z"/>
<path fill-opacity="0" stroke="#000000" stroke-width="0.24" d="M302.681,436.323c0.121,0.014,0.258-0.123,0.244-0.245
	c0.014-0.119-0.123-0.256-0.244-0.244c-0.12-0.012-0.258,0.125-0.244,0.244C302.423,436.2,302.561,436.337,302.681,436.323z"/>
<path fill-opacity="0" stroke="#000000" stroke-width="0.24" d="M255.671,426.113c0.12,0.012,0.259-0.126,0.245-0.246
	c0.014-0.119-0.125-0.258-0.245-0.244c-0.119-0.014-0.256,0.125-0.244,0.244C255.415,425.987,255.552,426.125,255.671,426.113z"/>
<path fill-opacity="0" stroke="#000000" stroke-width="0.24" d="M316.918,531.877c0.121,0.013,0.258-0.124,0.245-0.245
	c0.013-0.12-0.124-0.257-0.245-0.244c-0.12-0.013-0.257,0.124-0.245,0.244C316.661,531.753,316.798,531.888,316.918,531.877z"/>
<path fill-opacity="0" stroke="#000000" stroke-width="0.24" d="M336.074,531.978c0.122,0.014,0.258-0.123,0.245-0.245
	c0.013-0.119-0.123-0.256-0.245-0.245c-0.12-0.011-0.256,0.126-0.245,0.245C335.82,531.855,335.954,531.992,336.074,531.978z"/>
<path fill-opacity="0" stroke="#000000" stroke-width="0.24" d="M381.397,525.134c0.12,0.011,0.257-0.126,0.245-0.245
	c0.012-0.122-0.125-0.259-0.245-0.245c-0.121-0.014-0.258,0.123-0.245,0.245C381.139,525.008,381.276,525.143,381.397,525.134z"/>
<path fill-opacity="0" stroke="#000000" stroke-width="0.24" d="M385.698,538.43c0.122,0.013,0.258-0.123,0.245-0.245
	c0.013-0.12-0.123-0.256-0.245-0.245c-0.12-0.011-0.256,0.125-0.245,0.245C385.444,538.307,385.578,538.443,385.698,538.43z"/>
<path fill-opacity="0" stroke="#000000" stroke-width="0.24" d="M385.787,402.322c0.121,0.012,0.258-0.125,0.245-0.246
	c0.013-0.121-0.124-0.258-0.245-0.244c-0.12-0.014-0.257,0.123-0.243,0.244C385.531,402.197,385.667,402.334,385.787,402.322z"/>
<path fill-opacity="0" stroke="#000000" stroke-width="0.24" d="M363.954,532.729h6.237v-15.881l-15.891-0.026v11.129h-12.164
	v-2.264l-12.107-0.019v8.336h-0.023l-0.021,4.192H183.239v-2.68h17.896l4.68-4.683h3.589v-12.101l-12.107-0.019v9.232h-14.058
	v-2.264l-12.105-0.019v12.117h2.271v7.494h166.375l0.048-7.494h2.313v-2.269h21.854L363.954,532.729z"/>
<path fill-opacity="0" stroke="#000000" stroke-width="0.24" d="M363.105,434.308c0.122,0.011,0.259-0.125,0.245-0.245
	c0.014-0.122-0.123-0.258-0.245-0.245c-0.119-0.013-0.256,0.123-0.245,0.245C362.849,434.183,362.986,434.319,363.105,434.308z"/>
<path fill-opacity="0" stroke="#000000" stroke-width="0.24" d="M302.681,409.474c0.121,0.011,0.258-0.125,0.244-0.246
	c0.014-0.121-0.123-0.258-0.244-0.244c-0.12-0.014-0.258,0.123-0.244,0.244C302.423,409.349,302.561,409.485,302.681,409.474z"/>
<path fill-opacity="0" stroke="#000000" stroke-width="0.24" d="M292.954,409.474c0.12,0.011,0.258-0.125,0.245-0.246
	c0.013-0.121-0.125-0.258-0.245-0.244c-0.12-0.014-0.256,0.123-0.245,0.244C292.698,409.349,292.834,409.485,292.954,409.474z"/>
<path fill-opacity="0" stroke="#000000" stroke-width="0.24" d="M273.691,409.474c0.122,0.011,0.258-0.125,0.245-0.246
	c0.013-0.121-0.124-0.258-0.245-0.244c-0.12-0.014-0.256,0.123-0.245,0.244C273.435,409.349,273.572,409.485,273.691,409.474z"/>
<path fill-opacity="0" stroke="#000000" stroke-width="0.24" d="M263.963,409.474c0.122,0.011,0.259-0.125,0.245-0.246
	c0.014-0.121-0.124-0.258-0.245-0.244c-0.119-0.014-0.256,0.123-0.242,0.244C263.706,409.349,263.844,409.485,263.963,409.474z"/>
<path fill-opacity="0" stroke="#000000" stroke-width="0.24" d="M226.901,402.322c0.12,0.012,0.256-0.125,0.245-0.246
	c0.011-0.121-0.125-0.258-0.245-0.244c-0.12-0.014-0.258,0.123-0.245,0.244C226.642,402.197,226.78,402.334,226.901,402.322z"/>
<path fill-opacity="0" stroke="#000000" stroke-width="0.24" d="M223.79,434.319c0.12,0.013,0.258-0.125,0.245-0.245
	c0.013-0.119-0.125-0.258-0.245-0.245c-0.12-0.013-0.258,0.126-0.245,0.245C223.531,434.194,223.67,434.332,223.79,434.319z"/>
<path fill-opacity="0" stroke="#000000" stroke-width="0.24" d="M213.925,434.308c0.12,0.011,0.257-0.125,0.245-0.245
	c0.012-0.122-0.125-0.258-0.245-0.245c-0.121-0.013-0.258,0.123-0.244,0.245C213.668,434.183,213.805,434.319,213.925,434.308z"/>
<path fill-opacity="0" stroke="#000000" stroke-width="0.24" d="M204.217,434.308c0.12,0.011,0.257-0.125,0.245-0.245
	c0.012-0.122-0.125-0.258-0.245-0.245c-0.121-0.013-0.258,0.123-0.244,0.245C203.958,434.183,204.096,434.319,204.217,434.308z"/>
<path fill-opacity="0" stroke="#000000" stroke-width="0.24" d="M153.328,409.474c0.122,0.011,0.258-0.125,0.245-0.246
	c0.013-0.121-0.124-0.258-0.245-0.244c-0.12-0.014-0.256,0.123-0.245,0.244C153.072,409.349,153.208,409.485,153.328,409.474z"/>
<path fill-opacity="0" stroke="#000000" stroke-width="0.24" d="M143.792,409.474c0.12,0.011,0.259-0.125,0.246-0.246
	c0.014-0.121-0.125-0.258-0.246-0.244c-0.12-0.014-0.258,0.123-0.245,0.244C143.534,409.349,143.672,409.485,143.792,409.474z"/>
<path fill-opacity="0" stroke="#000000" stroke-width="0.24" d="M134.065,409.474c0.122,0.011,0.258-0.125,0.245-0.246
	c0.013-0.121-0.124-0.258-0.245-0.244c-0.12-0.014-0.256,0.123-0.245,0.244C133.809,409.349,133.946,409.485,134.065,409.474z"/>
<path fill-opacity="0" stroke="#000000" stroke-width="0.24" d="M124.339,409.474c0.12,0.011,0.257-0.125,0.245-0.246
	c0.012-0.121-0.125-0.258-0.245-0.244c-0.121-0.014-0.258,0.123-0.244,0.244C124.08,409.349,124.218,409.485,124.339,409.474z"/>
<path fill-opacity="0" stroke="#000000" stroke-width="0.24" d="M90.702,402.308c0.12,0.014,0.256-0.123,0.245-0.244
	c0.011-0.12-0.125-0.257-0.245-0.246c-0.122-0.011-0.258,0.126-0.245,0.246C90.445,402.185,90.58,402.322,90.702,402.308z"/>
<path fill-opacity="0" stroke="#000000" stroke-width="0.24" d="M114.802,409.474c0.121,0.011,0.258-0.125,0.244-0.246
	c0.014-0.121-0.124-0.258-0.244-0.244c-0.12-0.014-0.257,0.123-0.244,0.244C114.545,409.349,114.682,409.485,114.802,409.474z"/>
<path fill-opacity="0" stroke="#000000" stroke-width="0.24" d="M105.075,409.474c0.12,0.011,0.256-0.125,0.246-0.246
	c0.011-0.121-0.125-0.258-0.246-0.244c-0.122-0.014-0.258,0.123-0.245,0.244C104.818,409.349,104.953,409.485,105.075,409.474z"/>
<path fill-opacity="0" stroke="#000000" stroke-width="0.24" d="M163.056,436.196c0.12,0.014,0.256-0.124,0.245-0.245
	c0.011-0.119-0.125-0.257-0.245-0.244c-0.12-0.013-0.259,0.125-0.245,0.244C162.797,436.072,162.937,436.21,163.056,436.196z"/>
<path fill-opacity="0" stroke="#000000" stroke-width="0.24" d="M143.792,436.323c0.12,0.014,0.259-0.123,0.246-0.245
	c0.014-0.119-0.125-0.256-0.246-0.244c-0.12-0.012-0.258,0.125-0.245,0.244C143.534,436.2,143.672,436.337,143.792,436.323z"/>
<path fill-opacity="0" stroke="#000000" stroke-width="0.24" d="M134.065,436.26c0.122,0.011,0.258-0.125,0.245-0.245
	c0.013-0.122-0.124-0.258-0.245-0.245c-0.12-0.013-0.256,0.123-0.245,0.245C133.809,436.135,133.946,436.271,134.065,436.26z"/>
<path fill-opacity="0" stroke="#000000" stroke-width="0.24" d="M96.781,445.377c0.122,0.013,0.258-0.125,0.246-0.245
	c0.013-0.119-0.124-0.256-0.246-0.245c-0.12-0.011-0.256,0.126-0.245,0.245C96.527,445.252,96.662,445.388,96.781,445.377z"/>
<path fill-opacity="0" stroke="#000000" stroke-width="0.24" d="M96.781,435.648c0.122,0.014,0.258-0.123,0.246-0.245
	c0.013-0.12-0.124-0.256-0.246-0.245c-0.12-0.011-0.256,0.125-0.245,0.245C96.527,435.525,96.662,435.662,96.781,435.648z"/>
<path fill-opacity="0" stroke="#000000" stroke-width="0.24" d="M96.781,426.113c0.122,0.012,0.258-0.126,0.246-0.246
	c0.013-0.119-0.124-0.258-0.246-0.244c-0.12-0.014-0.256,0.125-0.245,0.244C96.527,425.987,96.662,426.125,96.781,426.113z"/>
<path fill-opacity="0" stroke="#000000" stroke-width="0.24" d="M158.031,504.84c0.12,0.013,0.256-0.124,0.245-0.245
	c0.011-0.12-0.125-0.257-0.245-0.245c-0.122-0.012-0.258,0.125-0.245,0.245C157.773,504.716,157.908,504.851,158.031,504.84z"/>
<path fill-opacity="0" stroke="#000000" stroke-width="0.24" d="M158.031,531.877c0.12,0.013,0.256-0.124,0.245-0.245
	c0.011-0.12-0.125-0.257-0.245-0.244c-0.122-0.013-0.258,0.124-0.245,0.244C157.773,531.753,157.908,531.888,158.031,531.877z"/>
<path fill-opacity="0" stroke="#000000" stroke-width="0.24" d="M177.188,531.978c0.12,0.014,0.256-0.123,0.245-0.245
	c0.011-0.119-0.125-0.256-0.245-0.245c-0.122-0.011-0.258,0.126-0.245,0.245C176.93,531.855,177.066,531.992,177.188,531.978z"/>
<path fill-opacity="0" stroke="#000000" stroke-width="0.24" d="M176.948,505.233c0.12,0.013,0.256-0.124,0.244-0.245
	c0.013-0.12-0.124-0.257-0.244-0.245c-0.122-0.012-0.258,0.125-0.245,0.245C176.69,505.109,176.825,505.246,176.948,505.233z"/>
<path fill-opacity="0" stroke="#000000" stroke-width="0.24" d="M203.351,525.029c0.122,0.012,0.258-0.125,0.245-0.245
	c0.013-0.122-0.124-0.258-0.245-0.245c-0.12-0.013-0.256,0.123-0.246,0.245C203.095,524.904,203.231,525.041,203.351,525.029z"/>
<path fill-opacity="0" stroke="#000000" stroke-width="0.24" d="M222.507,525.134c0.122,0.011,0.259-0.126,0.245-0.245
	c0.014-0.122-0.124-0.259-0.245-0.245c-0.119-0.014-0.256,0.123-0.244,0.245C222.25,525.008,222.388,525.143,222.507,525.134z"/>
<path fill-opacity="0" stroke="#000000" stroke-width="0.24" d="M215.857,429.937l0.078-7.998l-5.023-5.768h-53.015l-2.677-1.791
	v-0.991h2.271v-8.319l-8.323-0.013v8.332h2.271v2.561l4.89,4.892h53.047l2.761,2.683l-0.062,6.408l-2.31-0.003v8.334h8.322v-8.321
	L215.857,429.937z"/>
<path fill-opacity="0" stroke="#000000" stroke-width="0.24" d="M255.274,402.064c0.284-2.791-2.881-5.959-5.674-5.674
	c-2.792-0.285-5.958,2.883-5.677,5.674c-0.281,2.792,2.884,5.957,5.677,5.676C252.393,408.021,255.558,404.856,255.274,402.064z"/>
<path fill-opacity="0" stroke="#000000" stroke-width="0.24" d="M304.58,413.389h2.271v-8.319l-8.324-0.013v8.332h2.271v18.521
	l-2.271-0.004v8.334h8.324v-8.319l-2.271-0.004V413.389z"/>
<path fill-opacity="0" stroke="#000000" stroke-width="0.24" d="M294.855,413.389h2.269v-8.319l-8.323-0.013v8.332h2.27v18.458
	l-2.27-0.004v8.334h8.323v-8.321l-2.269-0.003V413.389z"/>
<path fill-opacity="0" stroke="#000000" stroke-width="0.24" d="M259.811,406.169v7.222h2.271v17.448l-2.24,2.236v-1.831
	l-8.322-0.012v8.334h8.322v-2.271h1.133l4.891-4.892v-19.015h2.271v-8.319l-7.519-0.013L259.811,406.169z"/>
<path fill-opacity="0" stroke="#000000" stroke-width="0.24" d="M100.945,433.075v-1.831l-8.323-0.012v8.334h8.323v-2.271h1.13
	l4.894-4.892v-19.015h2.269v-8.319l-7.516-0.013l-0.808,1.11v7.222h2.271v17.448L100.945,433.075z"/>
<path fill-opacity="0" stroke="#000000" stroke-width="0.24" d="M132.173,413.389v18.458l-2.27-0.004v8.334h8.323v-8.321
	l-2.271-0.003v-18.464h2.271v-8.319l-8.323-0.013v8.332H132.173L132.173,413.389z"/>
<path fill-opacity="0" stroke="#000000" stroke-width="0.24" d="M141.902,431.91l-2.271-0.004v8.334h8.325v-8.319l-2.271-0.004
	V413.39h2.271v-8.319l-8.325-0.013v8.332h2.271V431.91z"/>
<path fill-opacity="0" stroke="#000000" stroke-width="0.24" d="M232.573,402.064c0.284-2.791-2.881-5.959-5.674-5.674
	c-2.793-0.285-5.958,2.883-5.676,5.674c-0.282,2.792,2.883,5.957,5.676,5.676C229.693,408.021,232.858,404.856,232.573,402.064z"/>
<path fill-opacity="0" stroke="#000000" stroke-width="0.24" d="M374.754,429.937l0.076-7.998l-5.022-4.881h-53.016l-2.676-2.678
	v-0.991h2.271v-8.319l-8.323-0.013v8.332h2.27v2.561l4.894,4.892h53.045l2.76,2.683l-0.061,6.408l-2.311-0.003v8.334h8.322v-8.321
	L374.754,429.937z"/>
<path fill-opacity="0" stroke="#000000" stroke-width="0.24" d="M391.471,402.064c0.283-2.791-2.882-5.959-5.675-5.674
	c-2.793-0.285-5.958,2.883-5.674,5.674c-0.284,2.792,2.881,5.957,5.674,5.676C388.589,408.021,391.754,404.856,391.471,402.064z"/>
<path fill-opacity="0" stroke="#000000" stroke-width="0.24" d="M96.376,402.064c0.284-2.791-2.881-5.959-5.674-5.674
	c-2.793-0.285-5.958,2.883-5.676,5.674c-0.282,2.792,2.883,5.957,5.676,5.676C93.495,408.021,96.66,404.856,96.376,402.064z"/>
<path fill-opacity="0" stroke="#000000" stroke-width="0.24" d="M96.376,538.262c0.284-2.792-2.881-5.958-5.674-5.676
	c-2.793-0.282-5.958,2.884-5.676,5.676c-0.282,2.793,2.883,5.958,5.676,5.675C93.495,544.22,96.66,541.055,96.376,538.262z"/>
<path fill-opacity="0" stroke="#000000" stroke-width="0.24" d="M391.471,538.262c0.283-2.792-2.882-5.958-5.675-5.676
	c-2.793-0.282-5.958,2.884-5.674,5.676c-0.284,2.793,2.881,5.958,5.674,5.675C388.589,544.22,391.754,541.055,391.471,538.262z"/>
<path fill-opacity="0" stroke="#000000" stroke-width="0.24" d="M384.577,438.236h2.271v-8.32l-8.323-0.014v8.334h-0.003v13.997
	h-54.679v-12.12h2.271v-8.32l-8.324-0.014v8.334h2.271v12.12l-44.462,0.008l-0.008-38.852h2.27v-8.319l-8.323-0.013v8.332h2.271
	l0.005,38.852l-11.567,0.002l-2.675-2.675v-0.273h2.27v-8.321l-8.322-0.013v8.334h2.271v1.841l1.106,1.105l-29.214-0.008v-13.997
	h2.271v-8.319l-8.325-0.015v8.334h2.271v13.997h-56.953v-12.12h2.27v-8.32l-8.322-0.014v8.334h2.271v12.12l-44.465,0.008
	l-0.005-38.852h2.269v-8.319l-8.322-0.013v8.332h2.271l0.005,38.852l-11.566,0.002l-2.676-2.675v-0.273h2.27v-8.321l-8.323-0.013
	v8.334h2.27v1.841l4.893,6.106l61.381-0.011h64.518l33.781,0.011l60.599-0.011h64.517V438.236z"/>
<path fill-opacity="0" stroke="#000000" stroke-width="0.24" d="M385.189,518.837v-30.938l-6.009-5.958h-66.034v16.591l-2.271-0.004
	v12.119h12.107v-12.101l-2.271-0.004v-9.034h55.354l1.558,1.545v27.771l-2.269-0.004v12.119h12.104v-12.101L385.189,518.837z"/>
<path fill-opacity="0" stroke="#000000" stroke-width="0.24" d="M327.9,509.642l-11.312,15.933l-1.282-0.002L299.4,513.179v-34.906
	l-9.796-8.978H140.625l-6,5.999l-0.009,54.123l6.011,5.996h11.351v2.271h12.106v-8.043l13.204-18.601h5.711V498.94l-12.105-0.019
	v8.056l-13.202,18.597l-5.714-0.01v2.282h-8.223l-1.571-1.568l0.007-47.85l1.569-1.568h142.9l5.171,4.741v35.275l19.042,14.834
	v5.973h12.107v-8.043l11.862-16.709h8.945v-15.881l-15.891-0.023v12.615H327.9z"/>
<path fill-opacity="0" stroke="#000000" stroke-width="0.24" d="M218.711,518.824l-2.258-0.004v12.119h12.107v-12.101l-2.282-0.003
	l-0.063-30.877l-5.903-6.019h-60.065l-6,6.001v10.59l-2.269-0.004v12.119h12.106v-12.101l-2.271-0.005v-7.467l1.566-1.566h53.756
	l1.519,1.549L218.711,518.824z"/>
<path fill-opacity="0" stroke="#000000" stroke-width="0.24" d="M238.249,421.065v22.312"/>
<path fill-opacity="0" stroke="#000000" stroke-width="0.24" d="M238.249,460.538v5.148"/>
<path fill-opacity="0" stroke="#000000" stroke-width="0.24" d="M238.249,480.445v47.709"/>
</svg>
