<?xml version="1.0" encoding="utf-8"?>
<!-- Generator: Adobe Illustrator 16.0.0, SVG Export Plug-In . SVG Version: 6.00 Build 0)  -->
<!DOCTYPE svg PUBLIC "-//W3C//DTD SVG 1.1//EN" "http://www.w3.org/Graphics/SVG/1.1/DTD/svg11.dtd">
<svg version="1.1" id="Layer_1" xmlns="http://www.w3.org/2000/svg" xmlns:xlink="http://www.w3.org/1999/xlink" x="0px" y="0px"
	 width="841.889px" height="595.281px" viewBox="0 0 841.889 595.281" enable-background="new 0 0 841.889 595.281"
	 xml:space="preserve">
<path fill-opacity="0" stroke="#000000" stroke-width="0.24" d="M70.431,562.597v32.684H0v-43.088h25.619
	c1.72-0.139,3.676,1.585,3.753,3.311c0.078,1.724,2.033,3.449,3.753,3.311h33.521C68.508,558.625,70.619,560.735,70.431,562.597z"/>
<path fill-opacity="0" stroke="#000000" stroke-width="0.24" d="M120.135,518.384l-8.249,12.322l-9.625-13.88v-14.18h11.171
	l38.489,3.587H166.1v9.648h-14.179h-15.45l-13.425,0.83C121.921,516.756,120.74,517.433,120.135,518.384z"/>
<path fill-opacity="0" stroke="#000000" stroke-width="0.24" d="M176.626,534.055l-17.42,19.064h-14.18v-9.646v-17.945H166.1
	v-28.941h-14.179v-19.295H166.1h11.516v54.211C177.627,532.417,177.249,533.386,176.626,534.055z"/>
<path fill-opacity="0" stroke="#000000" stroke-width="0.24" d="M151.921,496.587H166.1v9.646h-14.179l-38.489-3.587h-11.171
	l-0.324-26.463h14.179v-9.648h-14.179v-9.646h14.179l15.167,1.088v38.61H151.921z"/>
<path fill-opacity="0" stroke="#000000" stroke-width="0.24" d="M66.647,554.634h-23.05c-1.862,0.188-3.973-1.923-3.783-3.782
	v-7.442v-22.521v-22.705c-0.19-1.862,1.921-3.973,3.783-3.785h23.05c1.861-0.188,3.972,1.923,3.784,3.785v22.705v22.521v7.442
	C70.619,552.711,68.508,554.822,66.647,554.634z"/>
<path fill-opacity="0" stroke="#000000" stroke-width="0.24" d="M145.463,477.292h-14.18v-9.648v-9.667l20.637,0.021H166.1v9.646
	h-14.179v9.648H145.463z"/>
<path fill-opacity="0" stroke="#000000" stroke-width="0.24" d="M189.266,595.281H0V377.598h189.266V595.281z"/>
<path fill-opacity="0" stroke="#000000" stroke-width="0.24" d="M164.489,434.367l-33.206-23.287v-9.646h14.18l30.584,22.09
	c0.953,0.654,1.597,1.912,1.568,3.067v50.701H166.1h-14.179v-9.648H166.1v-28.941v-1.237
	C166.127,436.295,165.464,435.015,164.489,434.367z"/>
<path fill-opacity="0" stroke="#000000" stroke-width="0.24" d="M136.1,562.768h8.926h14.18v9.646h-14.18l-31.659,0.006
	c-1.336,0.048-2.822-0.866-3.379-2.081l-23.596-46.841V400.326h15.125h14.181v9.646h-14.181v38.378H166.1v9.646l-34.816-0.021
	l-15.167-1.088h-14.179v9.646h14.179v9.648h-14.179l0.324,26.463v14.18l30.729,44.315
	C133.637,562.124,134.923,562.797,136.1,562.768z"/>
<path fill-opacity="0" stroke="#000000" stroke-width="0.24" d="M145.026,553.12h14.18v9.648h-14.18h-8.555v-46.887h15.45H166.1
	v9.646h-14.179h-6.895V553.12z"/>
<path fill-opacity="0" stroke="#000000" stroke-width="0.24" d="M115.699,448.35h-14.181v-9.648h14.181h36.221H166.1v9.648h-14.179
	H115.699z"/>
<path fill-opacity="0" stroke="#000000" stroke-width="0.24" d="M86.393,509.319v14.18h-9.648v-14.18V390.677h24.774h14.181v9.648
	h-14.181H86.393V509.319z"/>
</svg>
