<?xml version="1.0" encoding="UTF-8" standalone="no"?>
<!DOCTYPE svg PUBLIC "-//W3C//DTD SVG 1.1//EN" "http://www.w3.org/Graphics/SVG/1.1/DTD/svg11.dtd">
<svg width="100%" height="100%" viewBox="0 0 595.2 841.92" version="1.1" xmlns="http://www.w3.org/2000/svg">
  <path d="M180.1619,442.9885 L180.1619,467.4764 L127.3917,467.4764 L127.3917,435.1928 L146.5869,435.1928 C147.8759,435.0894 149.3408,436.3814 149.3993,437.6733 C149.4578,438.9652 150.9226,440.2572 152.2117,440.1538 L177.3272,440.1538 C178.722,440.0124 180.3033,441.5937 180.1619,442.9885 z" stroke="#000000" stroke-width="0.24" fill-opacity="0" />
  <path d="M217.4024,409.8607 L211.2226,419.0939 L204.0112,408.6947 L204.0112,398.0705 L212.3814,398.0705 L241.2181,400.7583 L251.8423,400.7583 L251.8423,407.9866 L241.2181,407.9866 L229.6432,407.9866 L219.5833,408.6082 C218.7413,408.6422 217.8561,409.1505 217.4024,409.8607 z" stroke="#000000" stroke-width="0.24" fill-opacity="0" />
  <path d="M259.7289,421.6033 L246.6775,435.888 L236.0533,435.888 L236.0533,428.6597 L236.0533,415.215 L251.8423,415.215 L251.8423,393.5299 L241.2181,393.5299 L241.2181,379.0732 L251.8423,379.0732 L260.4709,379.0732 L260.4709,419.6913 C260.4786,420.3764 260.1967,421.1028 259.7289,421.6033 z" stroke="#000000" stroke-width="0.24" fill-opacity="0" />
  <path d="M241.2181,393.5299 L251.8423,393.5299 L251.8423,400.7583 L241.2181,400.7583 L212.3814,398.0705 L204.0112,398.0705 L203.7675,378.2431 L214.3917,378.2431 L214.3917,371.0147 L203.7675,371.0147 L203.7675,363.7864 L214.3917,363.7864 L225.7565,364.6012 L225.7565,393.5299 z" stroke="#000000" stroke-width="0.24" fill-opacity="0" />
  <path d="M177.3272,437.0215 L160.0565,437.0215 C158.6617,437.1629 157.0804,435.5817 157.2218,434.1869 L157.2218,428.6119 L157.2218,411.738 L157.2218,394.7259 C157.0804,393.3311 158.6617,391.7499 160.0565,391.8913 L177.3272,391.8913 C178.722,391.7499 180.3033,393.3311 180.1619,394.7259 L180.1619,411.738 L180.1619,428.6119 L180.1619,434.1869 C180.3033,435.5817 178.722,437.1629 177.3272,437.0215 z" stroke="#000000" stroke-width="0.24" fill-opacity="0" />
  <path d="M236.3807,379.0732 L225.7565,379.0732 L225.7565,371.8449 L225.7565,364.6012 L241.2181,364.6165 L251.8423,364.6165 L251.8423,371.8449 L241.2181,371.8449 L241.2181,379.0732 z" stroke="#000000" stroke-width="0.24" fill-opacity="0" />
  <path d="M269.2001,467.4764 L127.3917,467.4764 L127.3917,304.3785 L269.2001,304.3785 z" stroke="#000000" stroke-width="0.24" fill-opacity="0" />
  <path d="M250.6352,346.9116 L225.7565,329.4647 L225.7565,322.2363 L236.3807,322.2363 L259.296,338.7872 C260.009,339.2774 260.491,340.22 260.4709,341.0851 L260.4709,379.0732 L251.8423,379.0732 L241.2181,379.0732 L241.2181,371.8449 L251.8423,371.8449 L251.8423,350.1599 L251.8423,349.2324 C251.8636,348.3553 251.3656,347.3979 250.6352,346.9116 z" stroke="#000000" stroke-width="0.24" fill-opacity="0" />
  <path d="M229.365,443.1164 L236.0533,443.1164 L246.6775,443.1164 L246.6775,450.3447 L236.0533,450.3447 L212.3324,450.3483 C211.3308,450.3852 210.2182,449.7 209.8004,448.7889 L192.1214,413.6944 L192.1214,321.4062 L203.4551,321.4062 L214.0794,321.4062 L214.0794,328.6345 L203.4551,328.6345 L203.4551,357.3882 L251.8423,357.3882 L251.8423,364.6165 L225.7565,364.6012 L214.3917,363.7864 L203.7675,363.7864 L203.7675,371.0147 L214.3917,371.0147 L214.3917,378.2431 L203.7675,378.2431 L204.0112,398.0705 L204.0112,408.6947 L227.0356,441.8971 C227.5203,442.634 228.4833,443.1381 229.365,443.1164 z" stroke="#000000" stroke-width="0.24" fill-opacity="0" />
  <path d="M236.0533,435.888 L246.6775,435.888 L246.6775,443.1164 L236.0533,443.1164 L229.6432,443.1164 L229.6432,407.9866 L241.2181,407.9866 L251.8423,407.9866 L251.8423,415.215 L241.2181,415.215 L236.0533,415.215 z" stroke="#000000" stroke-width="0.24" fill-opacity="0" />
  <path d="M214.0794,357.3882 L203.4551,357.3882 L203.4551,350.1599 L214.0794,350.1599 L241.2181,350.1599 L251.8423,350.1599 L251.8423,357.3882 L241.2181,357.3882 z" stroke="#000000" stroke-width="0.24" fill-opacity="0" />
  <path d="M192.1214,403.0702 L192.1214,413.6944 L184.893,413.6944 L184.893,403.0702 L184.893,314.1778 L203.4551,314.1778 L214.0794,314.1778 L214.0794,321.4062 L203.4551,321.4062 L192.1214,321.4062 z" stroke="#000000" stroke-width="0.24" fill-opacity="0" />
</svg>