<?xml version="1.0" encoding="utf-8"?>
<!-- Generator: Adobe Illustrator 16.0.0, SVG Export Plug-In . SVG Version: 6.00 Build 0)  -->
<!DOCTYPE svg PUBLIC "-//W3C//DTD SVG 1.1//EN" "http://www.w3.org/Graphics/SVG/1.1/DTD/svg11.dtd">
<svg version="1.1" id="Layer_1" xmlns="http://www.w3.org/2000/svg" xmlns:xlink="http://www.w3.org/1999/xlink" x="0px" y="0px"
	 width="841.889px" height="595.281px" viewBox="0 0 841.889 595.281" enable-background="new 0 0 841.889 595.281"
	 xml:space="preserve">
<path fill-opacity="0" stroke="#000000" stroke-width="0.24" d="M158.897,595.281H0V436.384h158.896v11.13"/>
<path fill-opacity="0" stroke="#000000" stroke-width="0.24" d="M158.897,436.384h158.896v158.897H158.897"/>
<path fill-opacity="0" stroke="#000000" stroke-width="0.24" d="M75.867,477.458v-1.119l2.677-2.675H92.53l7.318,7.96h20.854v2.269
	h8.322v-8.319l-8.322-0.013v2.278h-19.193l-7.318-7.957H76.975l-4.89,4.89v2.682"/>
<path fill-opacity="0" stroke="#000000" stroke-width="0.24" d="M230.981,477.452l-0.011,8.33l-0.002,0.54l-2.664,2.675h-19.854
	l-2.676-2.675v-4.638v-22.626h2.271v-8.319l-2.271-0.004v-0.625l-4.854-5.182H180.81l-6.373,8.747v3.032H91.155l-7.566-12.379
	h-36.71H21.913l-6.375,9.347v13.691l-2.27-0.003v8.332h8.323v-8.318l-2.27-0.004v-12.466l2.238-3.071l0.529-0.726l0.278-0.386
	l1.469-2.015h19.256v2.019l-2.271-0.004v8.332h2.271v28.831l4.892,4.891h22.993l4.872-4.891l0.006-2.107l0.012-8.323"/>
<path fill-opacity="0" stroke="#000000" stroke-width="0.24" d="M234.763,477.46v-1.119l2.676-2.675h13.986l7.318,7.96h20.855
	v-0.003v2.27h8.322v-8.319l-8.322-0.013v2.278h-19.194l-7.316-7.957h-17.214l-4.894,4.89v2.681"/>
<path fill-opacity="0" stroke="#000000" stroke-width="0.24" d="M72.085,477.453l-0.012,8.329l-0.003,0.54l-2.663,2.676H49.552
	l-2.675-2.676v-27.264h2.27v-8.319l-2.27-0.004v-2.022H81.52l7.567,12.705h85.35v5.95l-2.271-0.003v8.332h8.322v-8.318l-2.27-0.004
	v-12.466l2.238-3.071v-1.11h0.807l1.469-2.015h16.546l1.889,2.017l-1.447-0.002v8.332h2.271v22.626v6.205l4.891,4.891h22.993
	l4.871-4.891l0.006-2.107l0.011-8.323"/>
<path fill-opacity="0" stroke="#000000" stroke-width="0.24" d="M176.319,481.316c0.12,0.014,0.259-0.123,0.245-0.245
	c0.014-0.12-0.125-0.256-0.245-0.245c-0.119-0.011-0.256,0.125-0.244,0.245C176.063,481.193,176.199,481.33,176.319,481.316z"/>
<path fill-opacity="0" stroke="#000000" stroke-width="0.24" d="M203.874,398.293c0.122,0.013,0.258-0.124,0.245-0.245
	c0.013-0.119-0.124-0.257-0.245-0.245c-0.12-0.012-0.256,0.126-0.245,0.245C203.618,398.169,203.754,398.304,203.874,398.293z"/>
<path fill-opacity="0" stroke="#000000" stroke-width="0.24" d="M293.462,479.976c0.121,0.011,0.258-0.125,0.245-0.245
	c0.013-0.122-0.124-0.258-0.245-0.245c-0.12-0.013-0.257,0.123-0.246,0.245C293.205,479.851,293.342,479.987,293.462,479.976z"/>
<path fill-opacity="0" stroke="#000000" stroke-width="0.24" d="M176.319,491.045c0.12,0.013,0.259-0.125,0.245-0.245
	c0.014-0.119-0.125-0.256-0.245-0.245c-0.119-0.011-0.256,0.126-0.244,0.245C176.063,490.92,176.199,491.056,176.319,491.045z"/>
<path fill-opacity="0" stroke="#000000" stroke-width="0.24" d="M282.887,570.697c0.12,0.012,0.256-0.125,0.245-0.245
	c0.011-0.122-0.125-0.258-0.245-0.245c-0.121-0.013-0.258,0.123-0.245,0.245C282.63,570.572,282.766,570.709,282.887,570.697z"/>
<path fill-opacity="0" stroke="#000000" stroke-width="0.24" d="M194.338,398.293c0.122,0.013,0.258-0.124,0.245-0.245
	c0.013-0.119-0.124-0.257-0.245-0.245c-0.12-0.012-0.256,0.126-0.245,0.245C194.082,398.169,194.219,398.304,194.338,398.293z"/>
<path fill-opacity="0" stroke="#000000" stroke-width="0.24" d="M260.385,417.911c0.119,0.014,0.256-0.124,0.245-0.245
	c0.011-0.118-0.126-0.256-0.245-0.244c-0.122-0.012-0.259,0.126-0.245,0.244C260.127,417.787,260.263,417.925,260.385,417.911z"/>
<path fill-opacity="0" stroke="#000000" stroke-width="0.24" d="M303.327,479.987c0.119,0.013,0.257-0.125,0.242-0.245
	c0.015-0.119-0.123-0.258-0.242-0.245c-0.121-0.013-0.259,0.126-0.245,0.245C303.069,479.862,303.206,480,303.327,479.987z"/>
<path fill-opacity="0" stroke="#000000" stroke-width="0.24" d="M170.238,447.976c0.122,0.014,0.259-0.123,0.245-0.244
	c0.014-0.12-0.124-0.257-0.245-0.246c-0.119-0.011-0.256,0.126-0.245,0.246C169.982,447.853,170.118,447.99,170.238,447.976z"/>
<path fill-opacity="0" stroke="#000000" stroke-width="0.24" d="M213.602,481.928c0.12,0.011,0.258-0.125,0.245-0.245
	c0.013-0.122-0.125-0.258-0.245-0.245c-0.12-0.013-0.256,0.123-0.245,0.245C213.345,481.803,213.482,481.939,213.602,481.928z"/>
<path fill-opacity="0" stroke="#000000" stroke-width="0.24" d="M237.566,550.508c0.121,0.013,0.258-0.124,0.245-0.245
	c0.013-0.12-0.124-0.257-0.245-0.245c-0.12-0.012-0.257,0.125-0.245,0.245C237.309,550.384,237.446,550.519,237.566,550.508z"/>
<path fill-opacity="0" stroke="#000000" stroke-width="0.24" d="M256.483,550.901c0.119,0.013,0.259-0.124,0.245-0.245
	c0.014-0.12-0.126-0.257-0.245-0.245c-0.12-0.012-0.257,0.125-0.245,0.245C256.226,550.777,256.363,550.914,256.483,550.901z"/>
<path fill-opacity="0" stroke="#000000" stroke-width="0.24" d="M279.649,398.894c0.119,0.014,0.256-0.123,0.245-0.244
	c0.011-0.121-0.126-0.257-0.245-0.246c-0.122-0.011-0.259,0.125-0.246,0.246C279.39,398.771,279.527,398.908,279.649,398.894z"/>
<path fill-opacity="0" stroke="#000000" stroke-width="0.24" d="M184.611,398.293c0.122,0.013,0.259-0.124,0.245-0.245
	c0.014-0.119-0.124-0.257-0.245-0.245c-0.119-0.012-0.256,0.126-0.242,0.245C184.354,398.169,184.491,398.304,184.611,398.293z"/>
<path fill-opacity="0" stroke="#000000" stroke-width="0.24" d="M11.208,584.098c0.12,0.013,0.256-0.123,0.245-0.245
	c0.011-0.12-0.125-0.256-0.245-0.245c-0.122-0.011-0.258,0.125-0.245,0.245C10.95,583.975,11.087,584.111,11.208,584.098z"/>
<path fill-opacity="0" stroke="#000000" stroke-width="0.24" d="M270.113,417.911c0.119,0.014,0.257-0.124,0.243-0.245
	c0.014-0.118-0.124-0.256-0.243-0.244c-0.121-0.012-0.259,0.126-0.244,0.244C269.854,417.787,269.991,417.925,270.113,417.911z"/>
<path fill-opacity="0" stroke="#000000" stroke-width="0.24" d="M203.874,417.308c0.122,0.013,0.258-0.123,0.245-0.245
	c0.013-0.12-0.124-0.257-0.245-0.245c-0.12-0.012-0.256,0.125-0.245,0.245C203.618,417.185,203.754,417.321,203.874,417.308z"/>
<path fill-opacity="0" stroke="#000000" stroke-width="0.24" d="M232.865,417.308c0.12,0.013,0.258-0.123,0.245-0.245
	c0.013-0.12-0.125-0.257-0.245-0.245c-0.12-0.012-0.258,0.125-0.244,0.245C232.607,417.185,232.744,417.321,232.865,417.308z"/>
<path fill-opacity="0" stroke="#000000" stroke-width="0.24" d="M232.865,455.142c0.12,0.011,0.258-0.125,0.245-0.246
	c0.013-0.121-0.125-0.258-0.245-0.244c-0.12-0.014-0.258,0.123-0.244,0.244C232.607,455.017,232.744,455.153,232.865,455.142z"/>
<path fill-opacity="0" stroke="#000000" stroke-width="0.24" d="M203.874,455.142c0.122,0.011,0.258-0.125,0.245-0.246
	c0.013-0.121-0.124-0.258-0.245-0.244c-0.12-0.014-0.256,0.123-0.245,0.244C203.618,455.017,203.754,455.153,203.874,455.142z"/>
<path fill-opacity="0" stroke="#000000" stroke-width="0.24" d="M242.591,481.864c0.122,0.014,0.259-0.124,0.245-0.245
	c0.014-0.119-0.123-0.257-0.245-0.244c-0.119-0.013-0.256,0.125-0.245,0.244C242.335,481.74,242.471,481.878,242.591,481.864z"/>
<path fill-opacity="0" stroke="#000000" stroke-width="0.24" d="M223.328,481.991c0.121,0.014,0.258-0.123,0.244-0.245
	c0.014-0.119-0.123-0.256-0.244-0.244c-0.12-0.012-0.258,0.125-0.244,0.244C223.071,481.868,223.208,482.005,223.328,481.991z"/>
<path fill-opacity="0" stroke="#000000" stroke-width="0.24" d="M176.319,471.781c0.12,0.012,0.259-0.126,0.245-0.246
	c0.014-0.119-0.125-0.258-0.245-0.244c-0.119-0.014-0.256,0.125-0.244,0.244C176.063,471.655,176.199,471.793,176.319,471.781z"/>
<path fill-opacity="0" stroke="#000000" stroke-width="0.24" d="M237.566,577.545c0.121,0.013,0.258-0.124,0.245-0.245
	c0.013-0.12-0.124-0.257-0.245-0.244c-0.12-0.013-0.257,0.124-0.245,0.244C237.309,577.421,237.446,577.556,237.566,577.545z"/>
<path fill-opacity="0" stroke="#000000" stroke-width="0.24" d="M256.722,577.646c0.122,0.014,0.258-0.123,0.245-0.245
	c0.013-0.119-0.123-0.256-0.245-0.245c-0.12-0.011-0.256,0.126-0.245,0.245C256.467,577.523,256.602,577.66,256.722,577.646z"/>
<path fill-opacity="0" stroke="#000000" stroke-width="0.24" d="M302.044,570.802c0.12,0.011,0.257-0.126,0.245-0.245
	c0.012-0.122-0.125-0.259-0.245-0.245c-0.121-0.014-0.258,0.123-0.245,0.245C301.786,570.676,301.923,570.811,302.044,570.802z"/>
<path fill-opacity="0" stroke="#000000" stroke-width="0.24" d="M270.113,398.894c0.119,0.014,0.257-0.123,0.243-0.244
	c0.014-0.121-0.124-0.257-0.243-0.246c-0.121-0.011-0.259,0.125-0.244,0.246C269.854,398.771,269.991,398.908,270.113,398.894z"/>
<path fill-opacity="0" stroke="#000000" stroke-width="0.24" d="M260.385,398.894c0.119,0.014,0.256-0.123,0.245-0.244
	c0.011-0.121-0.126-0.257-0.245-0.246c-0.122-0.011-0.259,0.125-0.245,0.246C260.127,398.771,260.263,398.908,260.385,398.894z"/>
<path fill-opacity="0" stroke="#000000" stroke-width="0.24" d="M306.346,584.098c0.122,0.013,0.258-0.123,0.245-0.245
	c0.013-0.12-0.123-0.256-0.245-0.245c-0.12-0.011-0.256,0.125-0.245,0.245C306.091,583.975,306.226,584.111,306.346,584.098z"/>
<path fill-opacity="0" stroke="#000000" stroke-width="0.24" d="M306.435,447.99c0.121,0.012,0.258-0.125,0.245-0.246
	c0.013-0.121-0.124-0.258-0.245-0.244c-0.12-0.014-0.257,0.123-0.243,0.244C306.178,447.865,306.315,448.002,306.435,447.99z"/>
<path fill-opacity="0" stroke="#000000" stroke-width="0.24" d="M279.649,417.911c0.119,0.014,0.256-0.124,0.245-0.245
	c0.011-0.118-0.126-0.256-0.245-0.244c-0.122-0.012-0.259,0.126-0.246,0.244C279.39,417.787,279.527,417.925,279.649,417.911z"/>
<path fill-opacity="0" stroke="#000000" stroke-width="0.24" d="M184.611,417.308c0.122,0.013,0.259-0.123,0.245-0.245
	c0.014-0.12-0.124-0.257-0.245-0.245c-0.119-0.012-0.256,0.125-0.242,0.245C184.354,417.185,184.491,417.321,184.611,417.308z"/>
<path fill-opacity="0" stroke="#000000" stroke-width="0.24" d="M194.338,417.308c0.122,0.013,0.258-0.123,0.245-0.245
	c0.013-0.12-0.124-0.257-0.245-0.245c-0.12-0.012-0.256,0.125-0.245,0.245C194.082,417.185,194.219,417.321,194.338,417.308z"/>
<path fill-opacity="0" stroke="#000000" stroke-width="0.24" d="M213.602,417.308c0.12,0.013,0.258-0.123,0.245-0.245
	c0.013-0.12-0.125-0.257-0.245-0.245c-0.12-0.012-0.256,0.125-0.245,0.245C213.345,417.185,213.482,417.321,213.602,417.308z"/>
<path fill-opacity="0" stroke="#000000" stroke-width="0.24" d="M223.328,417.308c0.121,0.013,0.258-0.123,0.244-0.245
	c0.014-0.12-0.123-0.257-0.244-0.245c-0.12-0.012-0.258,0.125-0.244,0.245C223.071,417.185,223.208,417.321,223.328,417.308z"/>
<path fill-opacity="0" stroke="#000000" stroke-width="0.24" d="M284.602,578.397h6.237v-15.881l-15.891-0.026v11.129h-12.164
	v-2.264l-12.107-0.019v8.336h-0.023l-0.021,4.192H103.886v-2.68h17.896l4.68-4.683h3.589v-12.101l-12.107-0.019v9.232h-14.058
	v-2.264l-12.105-0.019v12.117h2.271v7.494h166.375l0.048-7.494h2.313v-2.269h21.854L284.602,578.397z"/>
<path fill-opacity="0" stroke="#000000" stroke-width="0.24" d="M283.752,479.976c0.122,0.011,0.259-0.125,0.245-0.245
	c0.014-0.122-0.123-0.258-0.245-0.245c-0.119-0.013-0.256,0.123-0.245,0.245C283.496,479.851,283.633,479.987,283.752,479.976z"/>
<path fill-opacity="0" stroke="#000000" stroke-width="0.24" d="M223.328,455.142c0.121,0.011,0.258-0.125,0.244-0.246
	c0.014-0.121-0.123-0.258-0.244-0.244c-0.12-0.014-0.258,0.123-0.244,0.244C223.071,455.017,223.208,455.153,223.328,455.142z"/>
<path fill-opacity="0" stroke="#000000" stroke-width="0.24" d="M213.602,455.142c0.12,0.011,0.258-0.125,0.245-0.246
	c0.013-0.121-0.125-0.258-0.245-0.244c-0.12-0.014-0.256,0.123-0.245,0.244C213.345,455.017,213.482,455.153,213.602,455.142z"/>
<path fill-opacity="0" stroke="#000000" stroke-width="0.24" d="M194.338,455.142c0.122,0.011,0.258-0.125,0.245-0.246
	c0.013-0.121-0.124-0.258-0.245-0.244c-0.12-0.014-0.256,0.123-0.245,0.244C194.082,455.017,194.219,455.153,194.338,455.142z"/>
<path fill-opacity="0" stroke="#000000" stroke-width="0.24" d="M184.611,455.142c0.122,0.011,0.259-0.125,0.245-0.246
	c0.014-0.121-0.124-0.258-0.245-0.244c-0.119-0.014-0.256,0.123-0.242,0.244C184.354,455.017,184.491,455.153,184.611,455.142z"/>
<path fill-opacity="0" stroke="#000000" stroke-width="0.24" d="M147.548,447.99c0.12,0.012,0.256-0.125,0.245-0.246
	c0.011-0.121-0.125-0.258-0.245-0.244c-0.12-0.014-0.258,0.123-0.245,0.244C147.289,447.865,147.427,448.002,147.548,447.99z"/>
<path fill-opacity="0" stroke="#000000" stroke-width="0.24" d="M120.759,417.911c0.122,0.014,0.258-0.124,0.246-0.245
	c0.013-0.118-0.124-0.256-0.246-0.244c-0.12-0.012-0.256,0.126-0.245,0.244C120.503,417.787,120.639,417.925,120.759,417.911z"/>
<path fill-opacity="0" stroke="#000000" stroke-width="0.24" d="M111.223,417.911c0.12,0.014,0.258-0.124,0.245-0.245
	c0.013-0.118-0.125-0.256-0.245-0.244c-0.12-0.012-0.258,0.126-0.245,0.244C110.965,417.787,111.104,417.925,111.223,417.911z"/>
<path fill-opacity="0" stroke="#000000" stroke-width="0.24" d="M101.496,417.911c0.122,0.014,0.258-0.124,0.245-0.245
	c0.013-0.118-0.124-0.256-0.245-0.244c-0.12-0.012-0.256,0.126-0.245,0.244C101.24,417.787,101.376,417.925,101.496,417.911z"/>
<path fill-opacity="0" stroke="#000000" stroke-width="0.24" d="M25.723,417.308c0.12,0.013,0.256-0.123,0.246-0.245
	c0.011-0.12-0.125-0.257-0.246-0.245c-0.122-0.012-0.258,0.125-0.245,0.245C25.465,417.185,25.601,417.321,25.723,417.308z"/>
<path fill-opacity="0" stroke="#000000" stroke-width="0.24" d="M35.449,417.308c0.121,0.013,0.258-0.123,0.244-0.245
	c0.014-0.12-0.124-0.257-0.244-0.245c-0.12-0.012-0.257,0.125-0.244,0.245C35.193,417.185,35.329,417.321,35.449,417.308z"/>
<path fill-opacity="0" stroke="#000000" stroke-width="0.24" d="M44.987,417.308c0.12,0.013,0.257-0.123,0.245-0.245
	c0.012-0.12-0.125-0.257-0.245-0.245c-0.121-0.012-0.258,0.125-0.244,0.245C44.728,417.185,44.865,417.321,44.987,417.308z"/>
<path fill-opacity="0" stroke="#000000" stroke-width="0.24" d="M54.712,417.308c0.122,0.013,0.258-0.123,0.245-0.245
	c0.013-0.12-0.124-0.257-0.245-0.245c-0.12-0.012-0.256,0.125-0.245,0.245C54.456,417.185,54.593,417.321,54.712,417.308z"/>
<path fill-opacity="0" stroke="#000000" stroke-width="0.24" d="M64.44,417.308c0.12,0.013,0.259-0.123,0.246-0.245
	c0.014-0.12-0.125-0.257-0.246-0.245c-0.12-0.012-0.258,0.125-0.245,0.245C64.182,417.185,64.32,417.321,64.44,417.308z"/>
<path fill-opacity="0" stroke="#000000" stroke-width="0.24" d="M73.976,417.308c0.122,0.013,0.258-0.123,0.245-0.245
	c0.013-0.12-0.124-0.257-0.245-0.245c-0.12-0.012-0.256,0.125-0.245,0.245C73.719,417.185,73.856,417.321,73.976,417.308z"/>
<path fill-opacity="0" stroke="#000000" stroke-width="0.24" d="M144.438,479.987c0.12,0.013,0.258-0.125,0.245-0.245
	c0.013-0.119-0.125-0.258-0.245-0.245c-0.12-0.013-0.258,0.126-0.245,0.245C144.179,479.862,144.318,480,144.438,479.987z"/>
<path fill-opacity="0" stroke="#000000" stroke-width="0.24" d="M134.573,479.976c0.12,0.011,0.257-0.125,0.245-0.245
	c0.012-0.122-0.125-0.258-0.245-0.245c-0.121-0.013-0.258,0.123-0.244,0.245C134.316,479.851,134.452,479.987,134.573,479.976z"/>
<path fill-opacity="0" stroke="#000000" stroke-width="0.24" d="M124.865,479.976c0.12,0.011,0.257-0.125,0.245-0.245
	c0.012-0.122-0.125-0.258-0.245-0.245c-0.121-0.013-0.258,0.123-0.244,0.245C124.606,479.851,124.743,479.987,124.865,479.976z"/>
<path fill-opacity="0" stroke="#000000" stroke-width="0.24" d="M73.976,455.142c0.122,0.011,0.258-0.125,0.245-0.246
	c0.013-0.121-0.124-0.258-0.245-0.244c-0.12-0.014-0.256,0.123-0.245,0.244C73.719,455.017,73.856,455.153,73.976,455.142z"/>
<path fill-opacity="0" stroke="#000000" stroke-width="0.24" d="M64.44,455.142c0.12,0.011,0.259-0.125,0.246-0.246
	c0.014-0.121-0.125-0.258-0.246-0.244c-0.12-0.014-0.258,0.123-0.245,0.244C64.182,455.017,64.32,455.153,64.44,455.142z"/>
<path fill-opacity="0" stroke="#000000" stroke-width="0.24" d="M54.712,455.142c0.122,0.011,0.258-0.125,0.245-0.246
	c0.013-0.121-0.124-0.258-0.245-0.244c-0.12-0.014-0.256,0.123-0.245,0.244C54.456,455.017,54.593,455.153,54.712,455.142z"/>
<path fill-opacity="0" stroke="#000000" stroke-width="0.24" d="M44.987,455.142c0.12,0.011,0.257-0.125,0.245-0.246
	c0.012-0.121-0.125-0.258-0.245-0.244c-0.121-0.014-0.258,0.123-0.244,0.244C44.728,455.017,44.865,455.153,44.987,455.142z"/>
<path fill-opacity="0" stroke="#000000" stroke-width="0.24" d="M11.35,447.976c0.12,0.014,0.256-0.123,0.245-0.244
	c0.011-0.12-0.125-0.257-0.245-0.246c-0.122-0.011-0.258,0.126-0.245,0.246C11.092,447.853,11.228,447.99,11.35,447.976z"/>
<path fill-opacity="0" stroke="#000000" stroke-width="0.24" d="M35.449,455.142c0.121,0.011,0.258-0.125,0.244-0.246
	c0.014-0.121-0.124-0.258-0.244-0.244c-0.12-0.014-0.257,0.123-0.244,0.244C35.193,455.017,35.329,455.153,35.449,455.142z"/>
<path fill-opacity="0" stroke="#000000" stroke-width="0.24" d="M25.723,455.142c0.12,0.011,0.256-0.125,0.246-0.246
	c0.011-0.121-0.125-0.258-0.246-0.244c-0.122-0.014-0.258,0.123-0.245,0.244C25.465,455.017,25.601,455.153,25.723,455.142z"/>
<path fill-opacity="0" stroke="#000000" stroke-width="0.24" d="M83.703,481.864c0.12,0.014,0.256-0.124,0.245-0.245
	c0.011-0.119-0.125-0.257-0.245-0.244c-0.12-0.013-0.259,0.125-0.245,0.244C83.445,481.74,83.584,481.878,83.703,481.864z"/>
<path fill-opacity="0" stroke="#000000" stroke-width="0.24" d="M64.44,481.991c0.12,0.014,0.259-0.123,0.246-0.245
	c0.014-0.119-0.125-0.256-0.246-0.244c-0.12-0.012-0.258,0.125-0.245,0.244C64.182,481.868,64.32,482.005,64.44,481.991z"/>
<path fill-opacity="0" stroke="#000000" stroke-width="0.24" d="M54.712,481.928c0.122,0.011,0.258-0.125,0.245-0.245
	c0.013-0.122-0.124-0.258-0.245-0.245c-0.12-0.013-0.256,0.123-0.245,0.245C54.456,481.803,54.593,481.939,54.712,481.928z"/>
<path fill-opacity="0" stroke="#000000" stroke-width="0.24" d="M17.429,491.045c0.122,0.013,0.258-0.125,0.246-0.245
	c0.013-0.119-0.124-0.256-0.246-0.245c-0.12-0.011-0.256,0.126-0.245,0.245C17.174,490.92,17.31,491.056,17.429,491.045z"/>
<path fill-opacity="0" stroke="#000000" stroke-width="0.24" d="M17.429,481.316c0.122,0.014,0.258-0.123,0.246-0.245
	c0.013-0.12-0.124-0.256-0.246-0.245c-0.12-0.011-0.256,0.125-0.245,0.245C17.174,481.193,17.31,481.33,17.429,481.316z"/>
<path fill-opacity="0" stroke="#000000" stroke-width="0.24" d="M17.429,471.781c0.122,0.012,0.258-0.126,0.246-0.246
	c0.013-0.119-0.124-0.258-0.246-0.244c-0.12-0.014-0.256,0.125-0.245,0.244C17.174,471.655,17.31,471.793,17.429,471.781z"/>
<path fill-opacity="0" stroke="#000000" stroke-width="0.24" d="M78.678,550.508c0.12,0.013,0.256-0.124,0.245-0.245
	c0.011-0.12-0.125-0.257-0.245-0.245c-0.122-0.012-0.258,0.125-0.245,0.245C78.42,550.384,78.556,550.519,78.678,550.508z"/>
<path fill-opacity="0" stroke="#000000" stroke-width="0.24" d="M78.678,577.545c0.12,0.013,0.256-0.124,0.245-0.245
	c0.011-0.12-0.125-0.257-0.245-0.244c-0.122-0.013-0.258,0.124-0.245,0.244C78.42,577.421,78.556,577.556,78.678,577.545z"/>
<path fill-opacity="0" stroke="#000000" stroke-width="0.24" d="M97.835,577.646c0.12,0.014,0.256-0.123,0.245-0.245
	c0.011-0.119-0.125-0.256-0.245-0.245c-0.122-0.011-0.258,0.126-0.245,0.245C97.577,577.523,97.713,577.66,97.835,577.646z"/>
<path fill-opacity="0" stroke="#000000" stroke-width="0.24" d="M97.595,550.901c0.12,0.013,0.256-0.124,0.244-0.245
	c0.013-0.12-0.124-0.257-0.244-0.245c-0.122-0.012-0.258,0.125-0.245,0.245C97.337,550.777,97.473,550.914,97.595,550.901z"/>
<path fill-opacity="0" stroke="#000000" stroke-width="0.24" d="M123.998,570.697c0.122,0.012,0.258-0.125,0.245-0.245
	c0.013-0.122-0.124-0.258-0.245-0.245c-0.12-0.013-0.256,0.123-0.246,0.245C123.742,570.572,123.878,570.709,123.998,570.697z"/>
<path fill-opacity="0" stroke="#000000" stroke-width="0.24" d="M143.155,570.802c0.122,0.011,0.259-0.126,0.245-0.245
	c0.014-0.122-0.124-0.259-0.245-0.245c-0.119-0.014-0.256,0.123-0.244,0.245C142.898,570.676,143.035,570.811,143.155,570.802z"/>
<path fill-opacity="0" stroke="#000000" stroke-width="0.24" d="M120.759,398.894c0.122,0.014,0.258-0.123,0.246-0.244
	c0.013-0.121-0.124-0.257-0.246-0.246c-0.12-0.011-0.256,0.125-0.245,0.246C120.503,398.771,120.639,398.908,120.759,398.894z"/>
<path fill-opacity="0" stroke="#000000" stroke-width="0.24" d="M111.223,398.894c0.12,0.014,0.258-0.123,0.245-0.244
	c0.013-0.121-0.125-0.257-0.245-0.246c-0.12-0.011-0.258,0.125-0.245,0.246C110.965,398.771,111.104,398.908,111.223,398.894z"/>
<path fill-opacity="0" stroke="#000000" stroke-width="0.24" d="M101.496,398.894c0.122,0.014,0.258-0.123,0.245-0.244
	c0.013-0.121-0.124-0.257-0.245-0.246c-0.12-0.011-0.256,0.125-0.245,0.246C101.24,398.771,101.376,398.908,101.496,398.894z"/>
<path fill-opacity="0" stroke="#000000" stroke-width="0.24" d="M25.723,398.293c0.12,0.013,0.256-0.124,0.246-0.245
	c0.011-0.119-0.125-0.257-0.246-0.245c-0.122-0.012-0.258,0.126-0.245,0.245C25.465,398.169,25.601,398.304,25.723,398.293z"/>
<path fill-opacity="0" stroke="#000000" stroke-width="0.24" d="M35.449,398.293c0.121,0.013,0.258-0.124,0.244-0.245
	c0.014-0.119-0.124-0.257-0.244-0.245c-0.12-0.012-0.257,0.126-0.244,0.245C35.193,398.169,35.329,398.304,35.449,398.293z"/>
<path fill-opacity="0" stroke="#000000" stroke-width="0.24" d="M44.987,398.293c0.12,0.013,0.257-0.124,0.245-0.245
	c0.012-0.119-0.125-0.257-0.245-0.245c-0.121-0.012-0.258,0.126-0.244,0.245C44.728,398.169,44.865,398.304,44.987,398.293z"/>
<path fill-opacity="0" stroke="#000000" stroke-width="0.24" d="M54.712,398.293c0.122,0.013,0.258-0.124,0.245-0.245
	c0.013-0.119-0.124-0.257-0.245-0.245c-0.12-0.012-0.256,0.126-0.245,0.245C54.456,398.169,54.593,398.304,54.712,398.293z"/>
<path fill-opacity="0" stroke="#000000" stroke-width="0.24" d="M64.44,398.293c0.12,0.013,0.259-0.124,0.246-0.245
	c0.014-0.119-0.125-0.257-0.246-0.245c-0.12-0.012-0.258,0.126-0.245,0.245C64.182,398.169,64.32,398.304,64.44,398.293z"/>
<path fill-opacity="0" stroke="#000000" stroke-width="0.24" d="M73.976,398.293c0.122,0.013,0.258-0.124,0.245-0.245
	c0.013-0.119-0.124-0.257-0.245-0.245c-0.12-0.012-0.256,0.126-0.245,0.245C73.719,398.169,73.856,398.304,73.976,398.293z"/>
<path fill-opacity="0" stroke="#000000" stroke-width="0.24" d="M232.865,398.293c0.12,0.013,0.258-0.124,0.245-0.245
	c0.013-0.119-0.125-0.257-0.245-0.245c-0.12-0.012-0.258,0.126-0.244,0.245C232.607,398.169,232.744,398.304,232.865,398.293z"/>
<path fill-opacity="0" stroke="#000000" stroke-width="0.24" d="M223.328,398.293c0.121,0.013,0.258-0.124,0.244-0.245
	c0.014-0.119-0.123-0.257-0.244-0.245c-0.12-0.012-0.258,0.126-0.244,0.245C223.071,398.169,223.208,398.304,223.328,398.293z"/>
<path fill-opacity="0" stroke="#000000" stroke-width="0.24" d="M213.602,398.293c0.12,0.013,0.258-0.124,0.245-0.245
	c0.013-0.119-0.125-0.257-0.245-0.245c-0.12-0.012-0.256,0.126-0.245,0.245C213.345,398.169,213.482,398.304,213.602,398.293z"/>
<path fill-opacity="0" stroke="#000000" stroke-width="0.24" d="M46.878,412.9v-10.592h2.27v-8.318l-8.322-0.014v8.332h2.27v10.587
	l-2.27-0.004v8.334h8.322v-8.321L46.878,412.9z"/>
<path fill-opacity="0" stroke="#000000" stroke-width="0.24" d="M52.821,412.895l-2.27-0.004v8.334h8.323v-8.321l-2.271-0.004
	v-10.592h2.271v-8.318l-8.323-0.014v8.332h2.27V412.895z"/>
<path fill-opacity="0" stroke="#000000" stroke-width="0.24" d="M66.331,412.9v-10.592h2.271v-8.318l-8.325-0.014v8.332h2.271
	v10.587l-2.271-0.004v8.334h8.325v-8.321L66.331,412.9z"/>
<path fill-opacity="0" stroke="#000000" stroke-width="0.24" d="M75.867,412.9v-10.592h2.271v-8.318l-8.323-0.014v8.332h2.271
	v10.587l-2.271-0.004v8.334h8.323v-8.321L75.867,412.9z"/>
<path fill-opacity="0" stroke="#000000" stroke-width="0.24" d="M99.604,413.507h-2.269v8.321h8.318l0.014-8.321h-2.278v-10.595
	h2.266l0.014-8.322h-8.332v8.322h2.269L99.604,413.507L99.604,413.507z"/>
<path fill-opacity="0" stroke="#000000" stroke-width="0.24" d="M109.332,413.507h-2.271v8.321h8.321l0.013-8.321h-2.279v-10.595
	h2.268l0.013-8.322h-8.334v8.322h2.271L109.332,413.507L109.332,413.507z"/>
<path fill-opacity="0" stroke="#000000" stroke-width="0.24" d="M122.651,413.507v-10.595h2.268l0.013-8.322h-8.332v8.322h2.27
	v10.595h-2.27v8.321h8.319l0.013-8.321H122.651z"/>
<path fill-opacity="0" stroke="#000000" stroke-width="0.24" d="M182.577,412.895l-2.271-0.004v8.334h8.325v-8.321l-2.271-0.004
	v-10.592h2.271v-8.318l-8.325-0.014v8.332h2.271V412.895z"/>
<path fill-opacity="0" stroke="#000000" stroke-width="0.24" d="M136.504,475.605l0.078-7.998l-5.023-5.768H78.544l-2.677-1.791
	v-0.991h2.271v-8.319l-8.323-0.013v8.332h2.271v2.561l4.89,4.892h53.047l2.761,2.683l-0.062,6.408l-2.31-0.003v8.334h8.322v-8.321
	L136.504,475.605z"/>
<path fill-opacity="0" stroke="#000000" stroke-width="0.24" d="M23.832,412.895l-2.271-0.004v8.334h8.323v-8.321l-2.269-0.004
	v-10.592h2.269v-8.318l-8.323-0.014v8.332h2.271V412.895z"/>
<path fill-opacity="0" stroke="#000000" stroke-width="0.24" d="M192.305,412.895l-2.271-0.004v8.334h8.322v-8.321l-2.269-0.004
	v-10.592h2.269v-8.318l-8.322-0.014v8.332h2.271V412.895z"/>
<path fill-opacity="0" stroke="#000000" stroke-width="0.24" d="M33.557,412.895l-2.269-0.004v8.334h8.322v-8.321l-2.269-0.004
	v-10.592h2.269v-8.318l-8.322-0.014v8.332h2.269V412.895z"/>
<path fill-opacity="0" stroke="#000000" stroke-width="0.24" d="M175.921,447.732c0.284-2.791-2.881-5.959-5.674-5.674
	c-2.792-0.285-5.958,2.883-5.677,5.674c-0.281,2.792,2.884,5.957,5.677,5.676C173.04,453.689,176.205,450.524,175.921,447.732z"/>
<path fill-opacity="0" stroke="#000000" stroke-width="0.24" d="M201.841,412.895l-2.271-0.004v8.334h8.325v-8.321l-2.271-0.004
	v-10.592h2.271v-8.318l-8.325-0.014v8.332h2.271V412.895z"/>
<path fill-opacity="0" stroke="#000000" stroke-width="0.24" d="M225.228,459.057h2.271v-8.319l-8.324-0.013v8.332h2.271v18.521
	l-2.271-0.004v8.334h8.324v-8.319l-2.271-0.004V459.057z"/>
<path fill-opacity="0" stroke="#000000" stroke-width="0.24" d="M215.502,459.057h2.269v-8.319l-8.323-0.013v8.332h2.27v18.458
	l-2.27-0.004v8.334h8.323v-8.321l-2.269-0.003V459.057z"/>
<path fill-opacity="0" stroke="#000000" stroke-width="0.24" d="M215.351,412.9v-10.592h2.27v-8.318l-8.322-0.014v8.332h2.269
	v10.587l-2.269-0.004v8.334h8.322v-8.321L215.351,412.9z"/>
<path fill-opacity="0" stroke="#000000" stroke-width="0.24" d="M180.458,451.837v7.222h2.271v17.448l-2.24,2.236v-1.831
	l-8.322-0.012v8.334h8.322v-2.271h1.133l4.891-4.892v-19.015h2.271v-8.319l-7.519-0.013L180.458,451.837z"/>
<path fill-opacity="0" stroke="#000000" stroke-width="0.24" d="M21.592,478.743v-1.831l-8.323-0.012v8.334h8.323v-2.271h1.13
	l4.894-4.892v-19.015h2.269v-8.319l-7.516-0.013l-0.808,1.11v7.222h2.271v17.448L21.592,478.743z"/>
<path fill-opacity="0" stroke="#000000" stroke-width="0.24" d="M221.295,402.308v10.587l-2.271-0.004v8.334h8.325v-8.321
	l-2.271-0.004v-10.592h2.271v-8.318l-8.325-0.014v8.332H221.295z"/>
<path fill-opacity="0" stroke="#000000" stroke-width="0.24" d="M52.821,459.057v18.458l-2.27-0.004v8.334h8.323v-8.321
	l-2.271-0.003v-18.464h2.271v-8.319l-8.323-0.013v8.332H52.821L52.821,459.057z"/>
<path fill-opacity="0" stroke="#000000" stroke-width="0.24" d="M62.549,477.578l-2.271-0.004v8.334h8.325v-8.319l-2.271-0.004
	v-18.526h2.271v-8.319l-8.325-0.013v8.332h2.271V477.578z"/>
<path fill-opacity="0" stroke="#000000" stroke-width="0.24" d="M234.613,412.9v-10.592h2.271v-8.318l-8.322-0.014v8.332h2.27
	v10.587l-2.27-0.004v8.334h8.322v-8.321L234.613,412.9z"/>
<path fill-opacity="0" stroke="#000000" stroke-width="0.24" d="M153.221,447.732c0.284-2.791-2.881-5.959-5.674-5.674
	c-2.793-0.285-5.958,2.883-5.676,5.674c-0.282,2.792,2.883,5.957,5.676,5.676C150.34,453.689,153.505,450.524,153.221,447.732z"/>
<path fill-opacity="0" stroke="#000000" stroke-width="0.24" d="M295.402,475.605l0.076-7.998l-5.022-4.881H237.44l-2.676-2.678
	v-0.991h2.271v-8.319l-8.323-0.013v8.332h2.27v2.561l4.894,4.892h53.045l2.76,2.683l-0.061,6.408l-2.311-0.003v8.334h8.322v-8.321
	L295.402,475.605z"/>
<path fill-opacity="0" stroke="#000000" stroke-width="0.24" d="M277.614,413.507h-2.27v8.321h8.319l0.013-8.321h-2.28v-10.595
	h2.269l0.013-8.322h-8.332v8.322h2.271v10.595H277.614z"/>
<path fill-opacity="0" stroke="#000000" stroke-width="0.24" d="M312.118,447.732c0.283-2.791-2.882-5.959-5.675-5.674
	c-2.793-0.285-5.958,2.883-5.674,5.674c-0.284,2.792,2.881,5.957,5.674,5.676C309.237,453.689,312.402,450.524,312.118,447.732z"/>
<path fill-opacity="0" stroke="#000000" stroke-width="0.24" d="M17.024,447.732c0.284-2.791-2.881-5.959-5.674-5.674
	c-2.793-0.285-5.958,2.883-5.676,5.674c-0.282,2.792,2.883,5.957,5.676,5.676C14.143,453.689,17.308,450.524,17.024,447.732z"/>
<path fill-opacity="0" stroke="#000000" stroke-width="0.24" d="M268.078,413.507h-2.271v8.321h8.319l0.013-8.321h-2.28v-10.595
	h2.269l0.013-8.322h-8.332v8.322h2.271L268.078,413.507L268.078,413.507z"/>
<path fill-opacity="0" stroke="#000000" stroke-width="0.24" d="M17.024,583.93c0.284-2.792-2.881-5.958-5.674-5.676
	c-2.793-0.282-5.958,2.884-5.676,5.676c-0.282,2.793,2.883,5.958,5.676,5.675C14.143,589.888,17.308,586.723,17.024,583.93z"/>
<path fill-opacity="0" stroke="#000000" stroke-width="0.24" d="M312.118,583.93c0.283-2.792-2.882-5.958-5.675-5.676
	c-2.793-0.282-5.958,2.884-5.674,5.676c-0.284,2.793,2.881,5.958,5.674,5.675C309.237,589.888,312.402,586.723,312.118,583.93z"/>
<path fill-opacity="0" stroke="#000000" stroke-width="0.24" d="M258.35,413.507h-2.27v8.321h8.318l0.014-8.321h-2.278v-10.595
	h2.266l0.014-8.322h-8.332v8.322h2.27L258.35,413.507L258.35,413.507z"/>
<path fill-opacity="0" stroke="#000000" stroke-width="0.24" d="M305.225,483.904h2.271v-8.32l-8.323-0.014v8.334h-0.003v13.997
	h-54.679v-12.12h2.271v-8.32l-8.324-0.014v8.334h2.271v12.12l-44.462,0.008l-0.008-38.852h2.27v-8.319l-8.323-0.013v8.332h2.271
	l0.005,38.852l-11.567,0.002l-2.675-2.675v-0.273h2.27v-8.321l-8.322-0.013v8.334h2.271v1.841l1.106,1.105l-29.214-0.008v-13.997
	h2.271v-8.319l-8.325-0.015v8.334h2.271v13.997H85.594v-12.12h2.27v-8.32l-8.322-0.014v8.334h2.271v12.12l-44.465,0.008
	l-0.005-38.852h2.269v-8.319l-8.322-0.013v8.332h2.271l0.005,38.852l-11.566,0.002l-2.676-2.675v-0.273h2.27v-8.321l-8.323-0.013
	v8.334h2.27v1.841l4.893,6.106l61.381-0.011h64.518l33.781,0.011l60.599-0.011h64.517V483.904z"/>
<path fill-opacity="0" stroke="#000000" stroke-width="0.24" d="M305.836,564.505v-30.938l-6.009-5.958h-66.034V544.2l-2.271-0.004
	v12.119h12.107v-12.101l-2.271-0.004v-9.034h55.354l1.558,1.545v27.771L296,564.488v12.119h12.104v-12.101L305.836,564.505z"/>
<path fill-opacity="0" stroke="#000000" stroke-width="0.24" d="M248.547,555.31l-11.312,15.933l-1.282-0.002l-15.906-12.394
	v-34.906l-9.796-8.978H61.273l-6,5.999l-0.009,54.123l6.011,5.996h11.351v2.271h12.106v-8.043l13.204-18.601h5.711v-12.101
	l-12.105-0.019v8.056l-13.202,18.597l-5.714-0.01v2.282h-8.223l-1.571-1.568l0.007-47.85l1.569-1.568h142.9l5.171,4.741v35.275
	l19.042,14.834v5.973h12.107v-8.043l11.862-16.709h8.945v-15.881l-15.891-0.023v12.615H248.547z"/>
<path fill-opacity="0" stroke="#000000" stroke-width="0.24" d="M139.359,564.492l-2.258-0.004v12.119h12.107v-12.101l-2.282-0.003
	l-0.063-30.877l-5.903-6.019H80.894l-6,6.001v10.59l-2.269-0.004v12.119h12.106v-12.101l-2.271-0.005v-7.467l1.566-1.566h53.756
	l1.519,1.549L139.359,564.492z"/>
<path fill-opacity="0" stroke="#000000" stroke-width="0.24" d="M0,436.384v-56.75h158.896v56.75v-56.75h158.896v56.75"/>
<path fill-opacity="0" stroke="#000000" stroke-width="0.24" d="M158.897,466.733v22.312"/>
<path fill-opacity="0" stroke="#000000" stroke-width="0.24" d="M158.897,506.206v5.148"/>
<path fill-opacity="0" stroke="#000000" stroke-width="0.24" d="M158.897,526.113v47.709"/>
</svg>
