<?xml version="1.0" encoding="utf-8"?>
<!-- Generator: Adobe Illustrator 16.0.0, SVG Export Plug-In . SVG Version: 6.00 Build 0)  -->
<!DOCTYPE svg PUBLIC "-//W3C//DTD SVG 1.1//EN" "http://www.w3.org/Graphics/SVG/1.1/DTD/svg11.dtd">
<svg version="1.1" id="Layer_1" xmlns="http://www.w3.org/2000/svg" xmlns:xlink="http://www.w3.org/1999/xlink" x="0px" y="0px"
	 width="841.889px" height="595.281px" viewBox="0 0 841.889 595.281" enable-background="new 0 0 841.889 595.281"
	 xml:space="preserve">
<path fill-opacity="0" stroke="#FF0000" stroke-width="0.24" d="M0,595.281l15.396-12.979l12.524-37.201h18.915l23.375,17.686h9.648
	h9.646l32.197-11.868h9.648h9.646h9.646h9.648h27.301l18.332,15.913h9.648h9.646h9.648l17.841-15.913l14.704,31.384l16.073,12.979
	v-360.08l-16.073,14.839l0.187,20.744l-0.203,9.589h-19.643l0.202-9.589h-60.793l-0.203,9.589l-3.431,31.136h19.125l-0.202,9.589
	l0.057,9.657l-0.035,9.86l0.045,9.116l-0.135,9.726l-0.068,9.252l0.068,9.792l0.035,9.455l-0.035,10.063l28.77,9.049h-28.499
	l-0.136,9.387v9.522l-0.203,9.301l0.137,9.607l-0.137,9.592l0.271,9.655l0.067,9.726l-0.136,9.658l-0.135,9.655l0.068,9.726
	l0.066,9.725l3.406,18.253l-55.282-7.346l-53.022,12.278l-9.252-0.144l-9.838,0.015V523.53l-10.95-12.926l0.089-9.438v-9.304v-9.306
	l0.088-9.438v-9.304l-0.177-8.951l0.044-10.102l-0.044-9.482l0.044-9.437l0.14-9.75l-0.229-9.437l0.146-9.261l0.12-9.704
	l-0.044-9.171l0.088-9.969v-9.395l-0.177-9.306l0.044-9.57l0.133-9.26l0.133-10.104l-0.044-9.748v-10.102h-9.646H48.64v-10.102
	v-10.592l-31.509-27.572L0,235.201l58.288,55.765v-10.592l9.646,10.592v-10.592h9.648h9.646h8.968h10.327l-10.327-5.871
	L87.61,255.49h18.915l-17.89,55.68l0.044,9.748l-0.133,10.104l-0.133,9.26l-0.044,9.57l0.177,9.306v9.395l-0.088,9.969l0.044,9.171
	l-0.122,9.704l-0.144,9.261l0.229,9.437h11.728l-11.868,9.75l-0.044,9.437h11.728l-11.684,9.482l-0.044,10.102l0.177,8.951v9.304
	l-0.089,9.438l95.023,0.961l0.137-9.658l-0.137-10.045l-0.2-9.336l0.135-9.592v-9.607v-9.437l0.065-9.387v-9.387l-0.134-9.049
	l0.035-10.063l-0.035-9.455l-0.066-9.792l0.066-9.252l0.134-9.726l-0.042-9.116l0.033-9.86l-0.057-9.657L0,595.281z"/>
</svg>
