<?xml version="1.0" encoding="utf-8"?>
<!-- Generator: Adobe Illustrator 16.0.0, SVG Export Plug-In . SVG Version: 6.00 Build 0)  -->
<!DOCTYPE svg PUBLIC "-//W3C//DTD SVG 1.1//EN" "http://www.w3.org/Graphics/SVG/1.1/DTD/svg11.dtd">
<svg version="1.1" id="Layer_1" xmlns="http://www.w3.org/2000/svg" xmlns:xlink="http://www.w3.org/1999/xlink" x="0px" y="0px"
	 width="841.889px" height="595.281px" viewBox="0 0 841.889 595.281" enable-background="new 0 0 841.889 595.281"
	 xml:space="preserve">
<path fill-opacity="0" stroke="#000000" stroke-width="0.24" d="M174.788,334.318h34.445v-9.512h-34.445V334.318z"/>
<path fill-opacity="0" stroke="#000000" stroke-width="0.24" d="M174.788,448.458h34.445v-9.512h-34.445V448.458z"/>
<path fill-opacity="0" stroke="#000000" stroke-width="0.24" d="M239.692,566.128v7.09h-9.648v-7.09"/>
<path fill-opacity="0" stroke="#000000" stroke-width="0.24" d="M202.384,391.388h-27.596v9.512h27.596"/>
<path fill-opacity="0" stroke="#000000" stroke-width="0.24" d="M51.592,438.946H95.55v9.512H51.592"/>
<path fill-opacity="0" stroke="#000000" stroke-width="0.24" d="M174.788,467.48h34.445v-9.51h-34.445V467.48z"/>
<path fill-opacity="0" stroke="#000000" stroke-width="0.24" d="M32.568,556.865H20.385v-27.616l12.183-17.767V391.388h28.536H95.55
	v9.512H61.103H42.079v155.965H32.568z"/>
<path fill-opacity="0" stroke="#000000" stroke-width="0.24" d="M95.55,372.365H53.601v-9.511H95.55h9.51v-9.512v-57.07H82.407
	v-9.512v-14.179h9.647v14.179h22.517v85.604H95.55z"/>
<path fill-opacity="0" stroke="#000000" stroke-width="0.24" d="M63.247,429.434H95.55v9.512H63.247"/>
<path fill-opacity="0" stroke="#000000" stroke-width="0.24" d="M174.788,315.297h34.445v-9.512h-34.445V315.297z"/>
<path fill-opacity="0" stroke="#000000" stroke-width="0.24" d="M174.788,429.434h34.445v-9.512h-34.445V429.434z"/>
<path fill-opacity="0" stroke="#000000" stroke-width="0.24" d="M174.788,324.806h34.445v-9.51h-34.445V324.806z"/>
<path fill-opacity="0" stroke="#000000" stroke-width="0.24" d="M105.631,419.923v-38.841h20.157v-8.717h49h34.445v-9.511h-34.445
	h-60.217v9.511H95.55v47.558H105.631z"/>
<path fill-opacity="0" stroke="#000000" stroke-width="0.24" d="M230.044,566.128v-39.861l18.631-34.873V400.9h-46.291"/>
<path fill-opacity="0" stroke="#000000" stroke-width="0.24" d="M72.759,305.785H95.55v9.512H63.247v-9.512V286.76v-14.179h9.512
	v14.179V305.785z"/>
<path fill-opacity="0" stroke="#000000" stroke-width="0.24" d="M95.55,334.318H63.247v-9.512H95.55V334.318z"/>
<path fill-opacity="0" stroke="#000000" stroke-width="0.24" d="M174.788,457.97h34.445v-9.513h-34.445V457.97z"/>
<path fill-opacity="0" stroke="#000000" stroke-width="0.24" d="M174.788,353.343h34.445v-9.513h-34.445V353.343z"/>
<path fill-opacity="0" stroke="#000000" stroke-width="0.24" d="M174.788,343.83h34.445v-9.512h-34.445V343.83z"/>
<path fill-opacity="0" stroke="#000000" stroke-width="0.24" d="M83.353,517.843v24.224h-9.646v-24.224H83.353z"/>
<path fill-opacity="0" stroke="#000000" stroke-width="0.24" d="M239.692,543.126h20.138V286.76h-65.126"/>
<path fill-opacity="0" stroke="#000000" stroke-width="0.24" d="M230.044,566.128v7.09h-9.646v-7.09"/>
<path fill-opacity="0" stroke="#000000" stroke-width="0.24" d="M116.878,543.126h9.648v14.18h-9.648l-12.152,9.184H9.897v-36.516
	l13.023-20.086V391.388v-9.512h21.032v-118.5h9.648v128.011H32.568v120.094l-12.183,17.767v27.616h80.254L116.878,543.126z"/>
<path fill-opacity="0" stroke="#000000" stroke-width="0.24" d="M174.788,410.412h73.887V400.9h-73.887V410.412z"/>
<path fill-opacity="0" stroke="#000000" stroke-width="0.24" d="M63.247,448.458H95.55v9.513H63.247"/>
<path fill-opacity="0" stroke="#000000" stroke-width="0.24" d="M209.233,410.412h-34.445v9.511h34.445"/>
<path fill-opacity="0" stroke="#000000" stroke-width="0.24" d="M136.173,543.126v14.18h9.648v-14.18v-104.18h28.967h34.445v-9.512
	h-34.445v0.035h-38.615V543.126z"/>
<path fill-opacity="0" stroke="#000000" stroke-width="0.24" d="M194.579,274.808h88.907v282.498h-43.794"/>
<path fill-opacity="0" stroke="#000000" stroke-width="0.24" d="M61.103,400.9H95.55v9.512H61.103h-9.512v101.07l8.301,18.738
	v26.645h-8.301h-9.512V400.9h9.512H61.103z"/>
<path fill-opacity="0" stroke="#000000" stroke-width="0.24" d="M201.102,557.305h-35.987h-9.647v-14.18h9.647h35.987"/>
<path fill-opacity="0" stroke="#000000" stroke-width="0.24" d="M51.592,457.97H95.55v9.51H51.592"/>
<path fill-opacity="0" stroke="#000000" stroke-width="0.24" d="M58.058,517.843h-3.65l-2.816-6.36v-34.49h6.466H95.55v29.454
	v11.396l-2.548,10.044v14.18h-9.648v-14.18v-10.044H58.058z"/>
<path fill-opacity="0" stroke="#000000" stroke-width="0.24" d="M210.751,566.128V522.58l17.966-30.352v-15.236h-26.063"/>
<path fill-opacity="0" stroke="#000000" stroke-width="0.24" d="M220.397,566.128v7.09h-9.646v-7.09"/>
<path fill-opacity="0" stroke="#000000" stroke-width="0.24" d="M95.55,391.388H53.601v-9.512H95.55V391.388z"/>
<path fill-opacity="0" stroke="#000000" stroke-width="0.24" d="M209.233,467.48h-34.445v9.512h27.866"/>
<path fill-opacity="0" stroke="#000000" stroke-width="0.24" d="M174.788,391.388h34.445v-9.512h-34.445V391.388z"/>
<path fill-opacity="0" stroke="#000000" stroke-width="0.24" d="M95.55,343.83H63.247v-9.512H95.55V343.83z"/>
<path fill-opacity="0" stroke="#000000" stroke-width="0.24" d="M95.55,381.877H53.601v-9.512H95.55V381.877z"/>
<path fill-opacity="0" stroke="#000000" stroke-width="0.24" d="M95.55,353.343H63.247v-9.513H95.55v-38.045H72.759V286.76v-14.179
	h9.648v14.179v9.512h22.652v57.07H95.55z"/>
<path fill-opacity="0" stroke="#000000" stroke-width="0.24" d="M136.173,543.126v14.18h-9.646v-14.18V429.434H95.55H51.592v-9.512
	H95.55h40.623V543.126z"/>
<path fill-opacity="0" stroke="#000000" stroke-width="0.24" d="M174.788,381.877h34.445v-9.512h-34.445V381.877z"/>
<path fill-opacity="0" stroke="#000000" stroke-width="0.24" d="M209.233,419.923h30.613v70.91L220.397,523.5v42.628"/>
<path fill-opacity="0" stroke="#000000" stroke-width="0.24" d="M63.247,410.412H95.55v9.511H63.247"/>
<path fill-opacity="0" stroke="#000000" stroke-width="0.24" d="M95.55,334.318H63.247v-9.512H95.55V334.318z"/>
<path fill-opacity="0" stroke="#000000" stroke-width="0.24" d="M105.631,527.886l-2.982,14.18h-9.646v-14.18l2.548-10.044v-88.408
	h10.081V527.886z"/>
<path fill-opacity="0" stroke="#000000" stroke-width="0.24" d="M283.486,274.808H114.571v-28.001h-12.87v16.565v9.21v14.179h-9.646
	v-14.179H63.247v80.761h41.812v9.512H61.103h-7.502v-99.477l27.057-0.002v-28.877h48.01v29.732h154.818V274.808z"/>
<path fill-opacity="0" stroke="#000000" stroke-width="0.24" d="M239.692,566.128v-37.444l20.138-34.876V391.388h-57.446"/>
<path fill-opacity="0" stroke="#000000" stroke-width="0.24" d="M210.751,522.58v50.638h-9.648V522.58H210.751z"/>
<path fill-opacity="0" stroke="#000000" stroke-width="0.24" d="M51.592,467.48H95.55v9.512H51.592"/>
<path fill-opacity="0" stroke="#000000" stroke-width="0.24" d="M201.102,522.58v20.546h-45.635v14.18h-9.646v-14.18v-66.134h28.967
	h53.929v15.236l-17.966,30.352H201.102z"/>
<path fill-opacity="0" stroke="#000000" stroke-width="0.24" d="M174.788,362.854h34.445v-9.512h-34.445V362.854z"/>
<path fill-opacity="0" stroke="#000000" stroke-width="0.24" d="M95.55,343.83H63.247v-9.512H95.55V343.83z"/>
<path fill-opacity="0" stroke="#000000" stroke-width="0.24" d="M283.486,594.577H0V234.498h283.486V594.577z"/>
<path fill-opacity="0" stroke="#000000" stroke-width="0.24" d="M59.892,556.865h40.746l16.239-13.739"/>
<path fill-opacity="0" stroke="#000000" stroke-width="0.24" d="M202.654,476.992h6.579"/>
<path fill-opacity="0" stroke="#000000" stroke-width="0.24" d="M209.233,391.388h-6.85"/>
<path fill-opacity="0" stroke="#000000" stroke-width="0.24" d="M239.692,543.126v14.18"/>
<path fill-opacity="0" stroke="#000000" stroke-width="0.24" d="M53.601,362.854v28.534"/>
<path fill-opacity="0" stroke="#000000" stroke-width="0.24" d="M209.233,467.48h30.613"/>
<path fill-opacity="0" stroke="#000000" stroke-width="0.24" d="M201.102,543.126v14.18"/>
<path fill-opacity="0" stroke="#000000" stroke-width="0.24" d="M202.384,400.9h6.85"/>
<path fill-opacity="0" stroke="#000000" stroke-width="0.24" d="M210.751,561.234V522.58"/>
<path fill-opacity="0" stroke="#000000" stroke-width="0.24" d="M220.397,566.128v-27.48"/>
<path fill-opacity="0" stroke="#000000" stroke-width="0.24" d="M63.247,419.923H51.592"/>
<path fill-opacity="0" stroke="#000000" stroke-width="0.24" d="M114.571,286.76h80.133"/>
<path fill-opacity="0" stroke="#000000" stroke-width="0.24" d="M209.233,410.412h39.441"/>
</svg>
