<?xml version="1.0" encoding="utf-8"?>
<!-- Generator: Adobe Illustrator 16.0.0, SVG Export Plug-In . SVG Version: 6.00 Build 0)  -->
<!DOCTYPE svg PUBLIC "-//W3C//DTD SVG 1.1//EN" "http://www.w3.org/Graphics/SVG/1.1/DTD/svg11.dtd">
<svg version="1.1" id="Layer_1" xmlns="http://www.w3.org/2000/svg" xmlns:xlink="http://www.w3.org/1999/xlink" x="0px" y="0px"
	 width="595.279px" height="841.891px" viewBox="0 0 595.279 841.891" enable-background="new 0 0 595.279 841.891"
	 xml:space="preserve">
<path fill-opacity="0" stroke="#000000" stroke-width="0.24" d="M19.274,656.994v-35.901H318.86l6.096-0.004l4.629-0.021
	l1.816-0.021l1.387-0.03l1.094-0.038l0.889-0.047l0.07-0.489l0.662-3.215l1.344-3.937l1.021-2.134l0.697-1.22l1.609-2.271
	l2.152-2.229l2.736-2.039l2.902-1.572l3.736-1.452l4.15-1.086l2.186-0.406l1.113-0.168l0.762-0.097l2.961-0.189l3.068,0.124
	l3.133,0.467l3.141,0.832l3.084,1.202l2.963,1.569l2.777,1.91l2.535,2.221l2.246,2.479l1.92,2.682l1.574,2.821l1.221,2.901
	c0.676,1.88,1.156,3.831,1.432,5.808c3.121-1.386,6.381-2.47,9.711-3.233l5.078-0.909l5.137-0.41l5.12,0.083l1.27,0.097l0.626,0.062
	l0.621,0.09l2.489,0.728l2.337,1.333l1.044,0.875l0.93,0.991l0.799,1.084l0.653,1.152l0.861,2.396l0.485,2.053l-1.49,1.491
	l-27.255,27.255l-0.17,0.169l-2.209,2.654l-1.771,3.201l-1.152,3.634l-0.4,3.871l0.4,3.872l1.152,3.634l1.771,3.202l2.209,2.655
	l2.654,2.208l3.201,1.771l3.633,1.153l3.871,0.401l3.873-0.401l3.632-1.151l3.203-1.772l2.653-2.208l0.171-0.17l27.255-27.255
	l1.49-1.492l2.052,0.487l2.003,0.677l1.916,1.088l1.706,1.479l1.384,1.793l0.546,0.98l0.442,1.017l0.563,2.078l0.077,0.519
	l0.028,0.258l0.045,0.463l0.143,2.082l0.043,4.229c-0.087,2.883-0.407,5.759-0.961,8.589l-1.017,4.275l-1.377,4.203
	c-1.035,2.769-2.304,5.45-3.784,8.009c-1.469,2.538-3.146,4.954-5.013,7.216c-1.825,2.213-3.83,4.277-5.989,6.169
	c-2.099,1.838-4.342,3.512-6.704,4.999c-2.412,1.521-4.947,2.846-7.572,3.96c-2.688,1.142-5.475,2.061-8.313,2.747
	c-2.872,0.692-5.802,1.146-8.749,1.354l-4.427,0.127l-4.402-0.238c-2.885-0.276-5.748-0.791-8.549-1.531
	c-2.721-0.721-5.385-1.658-7.957-2.798l-1.068,4.813l-1.912,4.647l-1.258,2.193l-1.441,2.071l-3.357,3.696l-3.861,3.013
	l-2.133,1.265l-2.258,1.087l-4.789,1.582l-4.98,0.729l-4.947-0.134l-4.818-0.965l-2.371-0.8l-2.309-1.009l-4.322-2.606l-3.777-3.285
	l-1.637-1.846l-1.768-2.42c-1.195-1.824-2.188-3.785-2.941-5.83l-1.129-3.857h-63.77l33.026,68.918l0.02,0.042
	c0.779,1.736,1.387,3.552,1.809,5.41c0.43,1.896,0.666,3.835,0.703,5.779c0.035,1.944-0.125,3.893-0.484,5.802
	c-0.35,1.873-0.887,3.709-1.602,5.475s-1.605,3.459-2.656,5.048c-1.074,1.621-2.311,3.132-3.689,4.503
	c-1.378,1.371-2.897,2.601-4.524,3.664c-1.596,1.042-3.294,1.923-5.063,2.627c-1.771,0.706-3.609,1.233-5.483,1.571
	c-1.912,0.348-3.861,0.499-5.806,0.451c-1.942-0.048-3.882-0.294-5.773-0.736c-1.854-0.431-3.668-1.048-5.399-1.838
	c-1.732-0.792-3.387-1.755-4.929-2.875c-1.572-1.142-3.028-2.445-4.338-3.881c-1.31-1.438-2.473-3.009-3.463-4.682
	c-0.972-1.638-1.779-3.374-2.406-5.172l-0.016-0.047l-0.016-0.045l-3.177-9.395l-3.731-10.434l-3.273-8.963l-1.548-3.794
	l-1.693-3.653l-1.408-2.668l-1.805-3.032l-4.078-5.798l-4.648-5.467l-5.147-5.151l-6.551-5.616l-7.942-5.704
	c-2.72-1.767-5.521-3.403-8.401-4.896c-2.862-1.483-5.8-2.823-8.799-4.005c-3.176-1.249-6.419-2.315-9.72-3.186
	c-3.959-1.042-7.996-1.798-12.068-2.221c-3.915-0.407-7.862-0.509-11.791-0.271l-5.663,0.604l-5.476,1.177l-5.179,1.837
	l-4.799,2.585l-2.692,1.97l-3.894,3.777l-1.67,2.109l-1.449,2.229l-1.19,2.307l-0.905,2.354l-0.6,2.374l-0.266,2.189l0.015,2.514
	l0.007,0.11v9.29l-0.428,4.93l-1.361,5.025c-0.627,1.688-1.413,3.319-2.347,4.859c-0.95,1.57-2.052,3.048-3.283,4.406
	c-1.232,1.358-2.597,2.599-4.066,3.697c-1.442,1.078-2.987,2.021-4.606,2.808l-4.872,1.842l-4.863,0.905l-4.946,0.054l-5.136-0.866
	c-1.741-0.46-3.439-1.085-5.063-1.863c-1.655-0.793-3.233-1.745-4.706-2.84s-2.838-2.332-4.075-3.688
	c-1.212-1.331-2.298-2.777-3.242-4.313l-2.307-4.667l-1.362-4.7l-11.043-48.777H19.28v-39.682h318.719v-22.674H19.28v-3.777H19.274z
	"/>
<path fill-opacity="0" stroke="#000000" stroke-width="0.24" d="M19.302,670.754l-0.027-9.98"/>
</svg>
