<?xml version="1.0" encoding="utf-8"?>
<!-- Generator: Adobe Illustrator 16.0.0, SVG Export Plug-In . SVG Version: 6.00 Build 0)  -->
<!DOCTYPE svg PUBLIC "-//W3C//DTD SVG 1.1//EN" "http://www.w3.org/Graphics/SVG/1.1/DTD/svg11.dtd">
<svg version="1.1" id="Layer_1" xmlns="http://www.w3.org/2000/svg" xmlns:xlink="http://www.w3.org/1999/xlink" x="0px" y="0px"
	 width="841.889px" height="595.281px" viewBox="0 0 841.889 595.281" enable-background="new 0 0 841.889 595.281"
	 xml:space="preserve">
<path fill-opacity="0" stroke="#000000" stroke-width="0.24" d="M106.84,583.759V434.644l-24.276-5.921l-10.823-1.709l-13.031,1.709
	l-10.943,4.048l-8.324,6.306l-14.237,14.277l-12.74,15.024l-3.901,11.177v14.555l3.901,10.886l7.916,14.563l5.145,7.27l6.705,5.861
	L106.84,583.759l19.014,4.639l11.489,2.618l15.227-0.851l12.799-4.235l19.097-16.86l14.045-14.737l5.808-12.013l1.479-10.878
	l-0.683-7.147l-3.901-10.885l-7.914-14.564l-5.146-7.27l-6.705-5.861l-74.607-51.069l4.832-11.593"/>
</svg>
