<?xml version="1.0" encoding="UTF-8" standalone="no"?>
<!DOCTYPE svg PUBLIC "-//W3C//DTD SVG 1.1//EN" "http://www.w3.org/Graphics/SVG/1.1/DTD/svg11.dtd">
<svg width="100%" height="100%" viewBox="0 0 595.2 841.92" version="1.1" xmlns="http://www.w3.org/2000/svg">
  <path d="M360.2469,384.2849 L360.2469,272.3586 L342.025,267.9139 L333.9012,266.6309 L324.1196,267.9139 L315.9065,270.9525 L309.6575,275.6849 L298.9715,286.4022 L289.4082,297.6785 L286.4801,306.0678 L286.4801,316.9934 L289.4082,325.1641 L295.3496,336.0966 L299.2119,341.5528 L304.2447,345.9528 L360.2469,384.2849 L374.5192,387.7662 L383.1429,389.7323 L394.5724,389.0935 L404.1802,385.9141 L418.5135,373.259 L429.0566,362.1973 L433.4159,353.1808 L434.5261,345.0149 L434.0138,339.6501 L431.0857,331.4794 L425.1443,320.5469 L421.2819,315.0907 L416.2492,310.6907 L360.2469,272.3586 L363.8749,263.6567" stroke="#000000" stroke-width="0.24" fill-opacity="0" />
  <path d="M259.9265,426.0043 L476.7663,426.0043" stroke="#000000" stroke-width="0.24" fill-opacity="0" />
</svg>