<?xml version="1.0" encoding="utf-8"?>
<!-- Generator: Adobe Illustrator 16.0.0, SVG Export Plug-In . SVG Version: 6.00 Build 0)  -->
<!DOCTYPE svg PUBLIC "-//W3C//DTD SVG 1.1//EN" "http://www.w3.org/Graphics/SVG/1.1/DTD/svg11.dtd">
<svg version="1.1" id="Layer_1" xmlns="http://www.w3.org/2000/svg" xmlns:xlink="http://www.w3.org/1999/xlink" x="0px" y="0px"
	 width="841.889px" height="595.281px" viewBox="0 0 841.889 595.281" enable-background="new 0 0 841.889 595.281"
	 xml:space="preserve">
<path fill-opacity="0" stroke="#000000" stroke-width="0.24" d="M76.352-27.581V-38.82c2.831-0.025,5.521,1.253,7.191,2.947
	c3.954,3.176,4.019,11.263,0.114,14.498c-1.676,1.751-4.418,3.087-7.306,3.059c-2.833,0.025-5.521-1.253-7.194-2.948
	c-3.954-3.172-4.016-11.261-0.111-14.497c1.676-1.751,4.418-3.087,7.306-3.059"/>
<path fill-opacity="0" stroke="#000000" stroke-width="0.24" d="M76.352,108.251V97.937c4.151-0.184,8.351,3.159,9.335,6.667
	c2.039,4.434-1.383,11.426-6.136,12.534c-0.968,0.332-2.057,0.534-3.199,0.534c-4.151,0.183-8.352-3.162-9.334-6.67
	c-2.039-4.434,1.382-11.425,6.136-12.533c0.967-0.332,2.057-0.531,3.199-0.531"/>
<path fill-opacity="0" stroke="#000000" stroke-width="0.24" d="M76.352,34.865V17.071h0.143c5.165-0.138,11.376,2.208,15.654,6.486
	c4.279,4.278,6.624,10.489,6.486,15.654c0.138,5.163-2.207,11.376-6.486,15.654c-4.278,4.278-10.489,6.621-15.654,6.485
	l-0.143-0.002c-5.158,0.104-11.327-2.268-15.571-6.543c-4.242-4.275-6.559-10.456-6.424-15.595
	c-0.135-5.142,2.182-11.322,6.424-15.595c4.245-4.276,10.414-6.646,15.571-6.545"/>
<path fill-opacity="0" stroke="#000000" stroke-width="0.24" d="M322.793,331.555l-15.802,0.63L138.835,121.044V-42.623
	L306.99-253.767l30.045-32.012v649.976l-30.045-32.012"/>
<path fill-opacity="0" stroke="#000000" stroke-width="0.24" d="M440,595.281h-21.64V-516.86h-31.467L0-35.177v148.776
	l386.893,481.683h31.467"/>
</svg>
