<?xml version="1.0" encoding="UTF-8" standalone="no"?>
<!DOCTYPE svg PUBLIC "-//W3C//DTD SVG 1.1//EN" "http://www.w3.org/Graphics/SVG/1.1/DTD/svg11.dtd">
<svg width="100%" height="100%" viewBox="0 0 841.92 1190.64" version="1.1" xmlns="http://www.w3.org/2000/svg">
  <path d="M561.1244,1034.266 L544.8307,1034.266 L544.8307,196.9472 L521.1408,196.9472 L229.8531,559.6006 L229.8531,671.6125 L521.1408,1034.266 L544.8307,1034.266" stroke="#000000" stroke-width="0.24" fill-opacity="0" />
  <path d="M472.8786,835.7092 L460.9819,836.1845 L334.3796,677.2178 L334.3796,553.9954 L460.9819,395.0286 L483.6024,370.9273 L483.6024,860.2859 L460.9819,836.1845" stroke="#000000" stroke-width="0.24" fill-opacity="0" />
  <path d="M287.3371,565.3211 L287.3371,556.8586 C289.4692,556.8387 291.493,557.8029 292.7527,559.0773 C295.7292,561.4677 295.7764,567.5566 292.8372,569.9929 C291.5753,571.312 289.5105,572.3177 287.3371,572.2961 C285.205,572.316 283.1812,571.3517 281.9215,570.0774 C278.9449,567.687 278.8978,561.598 281.837,559.1617 C283.0989,557.8427 285.1637,556.837 287.3371,556.8586" stroke="#000000" stroke-width="0.24" fill-opacity="0" />
  <path d="M287.3371,667.5863 L287.3371,659.82 C290.4621,659.6816 293.6248,662.2002 294.3648,664.8406 C295.9005,668.1785 293.3237,673.4421 289.7455,674.2767 C289.0162,674.5272 288.1961,674.6784 287.3371,674.6779 C284.2121,674.8163 281.0493,672.2977 280.3094,669.6573 C278.7737,666.3193 281.3505,661.0557 284.9287,660.2213 C285.658,659.9707 286.4781,659.8195 287.3371,659.82" stroke="#000000" stroke-width="0.24" fill-opacity="0" />
  <path d="M287.3371,612.3359 L287.3371,598.9388 L287.4449,598.9385 C291.3328,598.8351 296.0101,600.5995 299.231,603.8204 C302.4519,607.0413 304.2164,611.7186 304.113,615.6066 C304.2164,619.4945 302.4519,624.1718 299.231,627.3927 C296.0101,630.6136 291.3328,632.3781 287.4449,632.2747 L287.3371,632.2744 C283.4547,632.3512 278.809,630.5667 275.6143,627.348 C272.4195,624.1295 270.6756,619.4768 270.7768,615.6066 C270.6756,611.7363 272.4195,607.0837 275.6143,603.8651 C278.809,600.6465 283.4547,598.862 287.3371,598.9388" stroke="#000000" stroke-width="0.24" fill-opacity="0" />
</svg>