<?xml version="1.0" encoding="utf-8"?>
<!-- Generator: Adobe Illustrator 16.0.0, SVG Export Plug-In . SVG Version: 6.00 Build 0)  -->
<!DOCTYPE svg PUBLIC "-//W3C//DTD SVG 1.1//EN" "http://www.w3.org/Graphics/SVG/1.1/DTD/svg11.dtd">
<svg version="1.1" id="Layer_1" xmlns="http://www.w3.org/2000/svg" xmlns:xlink="http://www.w3.org/1999/xlink" x="0px" y="0px"
	 width="841.889px" height="595.281px" viewBox="0 0 841.889 595.281" enable-background="new 0 0 841.889 595.281"
	 xml:space="preserve">
<path fill-opacity="0" stroke="#000000" stroke-width="0.24" d="M58.902,546.672c0.501-4.934-5.092-10.524-10.022-10.023
	c-4.937-0.501-10.526,5.092-10.026,10.023c-0.5,4.935,5.092,10.525,10.026,10.025C53.81,557.197,59.403,551.605,58.902,546.672z"/>
<polygon fill-opacity="0" stroke="#000000" stroke-width="0.24" points="54.912,592.846 53.712,591.669 52.672,590.518 
	51.749,589.361 50.992,588.295 50.371,587.297 49.86,586.362 49.46,585.514 49.172,584.81 48.929,584.092 48.778,583.533 
	48.694,583.139 48.624,582.634 48.508,580.232 45.28,580.041 44.859,582.502 44.749,582.911 44.581,583.391 44.384,583.875 
	44.079,584.509 43.652,585.268 43.181,586.013 42.565,586.876 41.782,587.842 40.899,588.808 39.877,589.802 38.708,590.814 
	37.481,591.762 36.858,592.205 36.018,592.685 35.156,592.411 31.519,591.202 31.144,590.073 31.016,589.666 30.567,588.052 
	30.241,586.539 30.018,585.071 29.9,583.832 29.855,582.648 29.883,581.536 29.95,580.651 30.073,579.789 30.197,579.157 
	30.36,578.542 30.465,578.218 30.598,577.853 30.707,577.623 31.777,575.544 29.078,573.764 27.484,575.685 27.378,575.797 
	27.14,576.023 26.796,576.319 26.384,576.639 25.755,577.064 25.103,577.456 24.271,577.893 23.255,578.349 22.203,578.758 
	20.902,579.17 19.578,579.51 18.003,579.812 16.466,580.021 15.874,580.081 14.799,580.246 14.129,579.425 11.494,576.464 
	11.804,575.469 11.909,574.987 12.332,573.351 12.806,571.88 13.346,570.504 13.863,569.363 14.445,568.276 14.963,567.414 
	15.533,566.589 16.002,565.986 16.498,565.424 16.865,565.048 17.167,564.776 17.543,564.474 17.67,564.385 19.634,563.121 
	18.186,560.231 15.96,561.058 15.763,561.124 15.421,561.209 15.021,561.283 14.409,561.37 13.659,561.422 12.899,561.436 
	11.958,561.399 10.842,561.286 9.729,561.111 8.456,560.833 7.029,560.43 5.619,559.947 4.13,559.337 2.669,558.677 2.401,557.649 
	1.648,553.97 2.297,553.149 2.702,552.7 3.928,551.458 5.076,550.427 6.192,549.533 7.259,548.778 8.257,548.158 9.138,547.672 
	10.035,547.249 10.742,546.959 11.453,546.719 11.961,546.576 12.468,546.472 12.683,546.439 12.931,546.41 15.323,546.295 
	15.514,543.072 13.168,542.676 12.966,542.633 12.585,542.521 12.165,542.373 11.68,542.176 11.001,541.844 10.333,541.475 
	9.494,540.94 8.677,540.356 7.756,539.611 6.748,538.691 5.753,537.67 4.777,536.548 3.792,535.272 3.35,534.646 2.867,533.819 
	3.145,532.95 4.383,529.219 5.37,528.972 5.885,528.809 7.504,528.36 9.017,528.034 10.483,527.811 11.781,527.689 12.967,527.648 
	14.025,527.675 14.963,527.752 15.77,527.866 16.4,527.99 17.008,528.151 17.391,528.273 17.684,528.387 17.868,528.467 
	20.008,529.568 21.786,526.87 19.952,525.354 19.791,525.209 19.59,524.997 19.269,524.636 18.885,524.132 18.519,523.599 
	18.073,522.845 17.64,522.015 17.223,521.1 16.78,519.941 16.398,518.751 16.045,517.367 15.75,515.854 15.532,514.26 
	15.47,513.635 15.338,512.638 16.13,511.919 19.005,509.366 20.173,509.616 20.574,509.707 22.252,510.142 23.67,510.599 
	25.051,511.138 26.185,511.655 27.23,512.208 28.186,512.79 28.914,513.289 29.611,513.833 30.089,514.252 30.538,514.696 
	30.836,515.027 31.019,515.25 31.166,515.461 32.429,517.426 35.323,515.973 34.488,513.728 34.414,513.479 34.361,513.269 
	34.26,512.775 34.18,512.145 34.13,511.452 34.114,510.688 34.157,509.691 34.255,508.693 34.439,507.521 34.733,506.192 
	35.101,504.873 35.604,503.41 36.214,501.92 36.478,501.332 36.87,500.417 37.902,500.193 41.729,499.408 42.461,500.138 
	42.849,500.49 44.089,501.718 45.088,502.82 46.015,503.979 46.74,504.997 47.392,506.045 47.878,506.926 48.303,507.826 
	48.593,508.533 48.833,509.248 48.973,509.751 49.07,510.2 49.13,510.628 49.142,510.777 49.256,513.111 52.483,513.302 
	52.88,510.951 52.925,510.746 53.033,510.378 53.184,509.95 53.381,509.468 53.684,508.837 54.109,508.075 54.58,507.327 
	55.202,506.46 55.983,505.501 56.821,504.577 57.842,503.578 59.054,502.527 60.284,501.578 60.869,501.159 61.016,501.073 
	61.776,500.664 62.608,500.93 66.048,502.077 66.522,502.96 66.748,503.678 67.197,505.292 67.52,506.802 67.739,508.211 
	67.862,509.512 67.906,510.691 67.885,511.754 67.802,512.75 67.698,513.504 67.549,514.234 67.421,514.741 67.278,515.183 
	67.09,515.65 65.986,517.797 68.681,519.574 70.208,517.727 70.38,517.546 70.621,517.315 70.967,517.018 71.378,516.701 
	71.954,516.306 72.706,515.859 73.486,515.448 74.453,515.009 75.558,514.583 76.856,514.172 78.24,513.82 79.759,513.526 
	81.297,513.318 81.968,513.25 82.125,513.244 83.025,513.244 83.636,513.917 86.138,516.737 85.976,517.772 85.848,518.356 
	85.427,519.985 84.932,521.511 84.437,522.787 83.869,524.02 83.313,525.067 82.76,525.974 82.262,526.701 81.719,527.395 
	81.256,527.919 80.855,528.323 80.521,528.624 80.219,528.861 80.091,528.95 78.125,530.215 79.577,533.106 81.839,532.263 
	82.326,532.133 82.832,532.037 83.408,531.962 84.103,531.912 84.865,531.898 85.805,531.936 86.915,532.049 88.028,532.223 
	89.361,532.516 90.732,532.904 92.139,533.388 93.629,533.998 94.242,534.274 94.375,534.344 95.16,534.792 95.356,535.685 
	96.13,539.454 95.056,540.635 93.833,541.873 92.682,542.912 91.615,543.769 90.505,544.553 89.5,545.181 88.62,545.664 
	87.773,546.068 87.013,546.377 86.297,546.617 85.744,546.766 85.301,546.86 85.039,546.901 84.834,546.925 82.438,547.041 
	82.247,550.266 84.598,550.664 84.855,550.723 85.174,550.817 85.603,550.968 86.131,551.188 86.712,551.466 87.476,551.894 
	88.221,552.365 89.13,553.019 90.008,553.727 91.011,554.647 91.969,555.624 92.985,556.791 93.97,558.066 94.372,558.629 
	94.884,559.432 94.619,560.393 93.449,563.899 92.564,564.308 92.285,564.402 91.864,564.532 90.202,564.991 88.746,565.305 
	87.277,565.529 85.98,565.649 84.796,565.69 83.74,565.664 82.859,565.595 81.996,565.472 81.367,565.35 80.805,565.206 
	80.426,565.084 80.067,564.951 79.831,564.842 77.753,563.772 75.974,566.469 77.826,568.001 77.995,568.161 78.192,568.361 
	78.529,568.753 78.847,569.163 79.241,569.739 79.691,570.491 80.103,571.274 80.559,572.293 80.965,573.343 81.377,574.642 
	81.718,575.968 82.014,577.487 82.23,579.084 82.297,579.76 82.428,580.804 81.634,581.421 78.713,584.016 77.701,583.748 
	77.194,583.636 75.564,583.214 74.092,582.74 72.709,582.199 71.578,581.682 70.485,581.101 69.623,580.583 68.843,580.047 
	68.152,579.503 67.631,579.042 67.229,578.643 66.926,578.306 66.684,578 66.599,577.876 65.335,575.913 62.444,577.361 
	63.311,579.707 63.423,580.123 63.497,580.532 63.583,581.136 63.636,581.892 63.648,582.711 63.607,583.649 63.51,584.648 
	63.313,585.875 63.033,587.148 62.664,588.465 62.161,589.929 61.55,591.42 61.237,592.11 60.795,592.943 59.863,593.149 
	56.089,593.925 "/>
</svg>
