<?xml version="1.0" encoding="utf-8"?>
<!-- Generator: Adobe Illustrator 16.0.0, SVG Export Plug-In . SVG Version: 6.00 Build 0)  -->
<!DOCTYPE svg PUBLIC "-//W3C//DTD SVG 1.1//EN" "http://www.w3.org/Graphics/SVG/1.1/DTD/svg11.dtd">
<svg version="1.1" id="Layer_1" xmlns="http://www.w3.org/2000/svg" xmlns:xlink="http://www.w3.org/1999/xlink" x="0px" y="0px"
	 width="841.889px" height="595.281px" viewBox="0 0 841.889 595.281" enable-background="new 0 0 841.889 595.281"
	 xml:space="preserve">
<polyline fill-opacity="0" stroke="#000000" stroke-width="0.24" points="77.351,563.011 83.392,576.752 83.522,577.108 
	83.624,577.45 83.732,577.869 83.841,578.387 83.943,579.001 84.028,579.717 84.088,580.517 84.116,581.413 84.102,582.403 
	84.041,583.479 83.925,584.639 83.745,585.887 83.494,587.213 83.162,588.619 82.718,590.184 82.459,591.219 81.377,591.561 
	77.773,592.668 76.864,592.003 75.666,591.001 74.601,590.028 73.642,589.073 72.79,588.147 72.037,587.256 71.378,586.401 
	70.81,585.594 70.325,584.84 69.918,584.14 69.587,583.51 69.321,582.947 69.115,582.455 68.962,582.046 68.823,581.609 
	68.727,581.212 68.523,580.08 65.331,580.408 65.361,581.595 65.356,581.817 65.345,581.988 65.313,582.325 65.248,582.774 
	65.148,583.297 65.007,583.9 64.814,584.586 64.562,585.354 64.244,586.194 63.853,587.102 63.388,588.069 62.832,589.103 
	62.186,590.187 61.449,591.314 60.607,592.486 59.564,593.802 59.442,593.949 58.658,594.591 57.829,594.522 54.021,594.164 
	53.432,593.103 52.765,591.822 52.154,590.513 51.635,589.268 51.2,588.087 50.845,586.969 50.564,585.927 50.347,584.969 
	50.188,584.084 50.08,583.29 50.014,582.576 49.986,581.946 49.984,581.416 50.002,580.969 50.027,580.644 50.08,580.237 
	50.347,578.997 47.274,578.079 46.804,579.286 46.678,579.549 46.521,579.843 46.293,580.228 46.002,580.673 45.634,581.182 
	45.199,581.737 44.672,582.35 44.056,583.006 43.35,583.694 42.547,584.412 41.642,585.152 40.63,585.907 39.516,586.667 
	38.287,587.427 36.945,588.178 36.058,588.823 34.944,588.247 31.583,586.467 31.425,585.249 31.298,583.81 31.232,582.369 
	31.229,581.017 31.282,579.757 31.382,578.594 31.52,577.524 31.688,576.551 31.88,575.673 32.085,574.896 32.299,574.212 
	32.507,573.63 32.749,573.044 32.9,572.722 33.054,572.423 33.252,572.082 33.971,571.038 31.484,569.013 30.638,569.904 
	30.309,570.197 30.104,570.363 29.758,570.624 29.32,570.924 28.787,571.255 28.164,571.603 27.442,571.969 26.625,572.336 
	25.71,572.702 24.685,573.057 23.574,573.392 22.351,573.704 21.026,573.98 19.602,574.212 18.047,574.395 16.882,574.494 
	16.201,573.69 13.813,570.807 14.033,569.78 14.093,569.579 14.525,568.198 15.019,566.839 15.531,565.593 16.064,564.447 
	16.598,563.412 17.139,562.472 17.663,561.643 18.177,560.905 18.663,560.267 19.126,559.713 19.536,559.26 19.919,558.875 
	20.312,558.512 20.515,558.344 20.742,558.166 20.851,558.09 21.883,557.425 20.363,554.602 19.18,555.122 18.902,555.219 
	18.579,555.317 18.151,555.427 17.634,555.538 17.015,555.639 16.304,555.723 15.504,555.784 14.603,555.811 13.617,555.8 
	12.537,555.735 11.383,555.621 10.132,555.439 8.803,555.186 7.402,554.856 5.663,554.358 4.734,553.928 4.458,553.07 
	3.348,549.468 3.977,548.603 5.015,547.36 5.99,546.294 6.947,545.335 7.868,544.484 8.766,543.729 9.617,543.072 10.422,542.504 
	11.18,542.017 11.875,541.613 12.504,541.281 13.074,541.012 13.564,540.807 13.986,540.652 14.307,540.549 14.592,540.469 
	14.711,540.441 15.939,540.217 15.611,537.023 14.263,537.052 14.03,537.038 13.678,537.002 13.247,536.94 12.632,536.824 
	12.111,536.698 11.38,536.495 10.644,536.241 9.825,535.93 8.922,535.543 7.946,535.071 6.921,534.522 5.833,533.874 4.705,533.137 
	3.534,532.295 2.08,531.141 1.429,530.347 1.497,529.517 1.865,525.602 2.914,525.123 4.198,524.453 5.505,523.84 6.754,523.321 
	7.933,522.888 9.052,522.534 10.091,522.252 11.053,522.036 11.936,521.878 12.732,521.769 13.545,521.693 14.082,521.673 
	14.695,521.672 15.049,521.688 15.388,521.716 15.705,521.751 17.021,522.035 17.94,518.96 16.682,518.471 16.463,518.362 
	16.163,518.2 15.715,517.933 15.343,517.687 14.846,517.333 14.275,516.883 13.665,516.358 13.013,515.746 12.323,515.037 
	11.606,514.235 10.866,513.328 10.113,512.321 9.351,511.203 8.593,509.975 7.828,508.611 7.29,507.572 7.773,506.635 
	9.539,503.295 10.57,503.137 10.768,503.113 12.208,502.986 13.651,502.921 14.999,502.916 16.26,502.969 17.425,503.068 
	18.494,503.206 19.467,503.375 20.344,503.566 21.122,503.773 21.803,503.985 22.396,504.2 22.877,504.394 23.374,504.624 
	23.606,504.746 23.938,504.94 24.98,505.658 27.004,503.171 26.127,502.338 25.881,502.065 25.662,501.802 25.394,501.445 
	25.092,501.002 24.766,500.48 24.415,499.855 24.048,499.126 23.682,498.317 23.315,497.398 22.96,496.378 22.624,495.26 
	22.313,494.041 22.038,492.716 21.807,491.288 21.635,489.836 21.302,488.753 22.328,487.888 25.229,485.49 26.331,485.749 
	27.822,486.215 29.18,486.708 30.426,487.219 31.572,487.752 32.605,488.286 33.54,488.821 34.377,489.35 35.114,489.864 
	35.755,490.354 36.302,490.81 36.758,491.222 37.14,491.602 37.441,491.928 37.663,492.189 37.854,492.434 37.926,492.536 
	38.593,493.57 41.417,492.046 40.931,490.951 40.801,490.594 40.7,490.266 40.589,489.834 40.48,489.302 40.38,488.703 
	40.296,487.986 40.234,487.188 40.207,486.282 40.219,485.302 40.281,484.223 40.397,483.062 40.577,481.816 40.83,480.486 
	41.162,479.084 41.616,477.483 41.925,476.467 42.944,476.142 46.742,474.971 47.548,475.774 48.656,476.702 49.721,477.674 
	50.68,478.631 51.531,479.554 52.285,480.448 52.944,481.301 53.513,482.108 53.998,482.864 54.404,483.566 54.734,484.195 
	54.998,484.753 55.206,485.244 55.361,485.663 55.469,485.999 55.547,486.276 55.594,486.489 55.8,487.624 58.99,487.297 
	58.961,486.108 58.966,485.887 58.977,485.716 59.009,485.378 59.074,484.927 59.17,484.414 59.313,483.802 59.505,483.116 
	59.762,482.343 60.077,481.509 60.465,480.603 60.935,479.629 61.49,478.597 62.132,477.517 62.874,476.385 63.715,475.216 
	64.809,473.835 65.543,473.1 66.49,473.179 70.149,473.524 70.764,474.369 71.556,475.88 72.169,477.188 72.688,478.435 
	73.121,479.619 73.475,480.729 73.757,481.774 73.971,482.741 74.13,483.613 74.239,484.412 74.305,485.126 74.334,485.76 
	74.336,486.28 74.313,486.825 74.254,487.393 73.971,488.705 77.045,489.624 77.48,488.493 77.651,488.126 77.803,487.847 
	78.033,487.465 78.316,487.032 78.736,486.448 79.126,485.957 79.649,485.35 80.26,484.699 80.97,484.007 81.776,483.289 
	82.682,482.55 83.683,481.798 84.807,481.033 86.03,480.276 87.589,479.408 88.559,479.035 89.376,479.457 92.724,481.231 
	92.895,482.453 93.022,483.892 93.088,485.334 93.092,486.684 93.038,487.946 92.941,489.106 92.802,490.18 92.632,491.157 
	92.44,492.029 92.232,492.81 92.023,493.486 91.809,494.079 91.61,494.567 91.383,495.056 91.261,495.289 91.114,495.552 
	91.005,495.717 82.8,507.738 "/>
<path fill-opacity="0" stroke="#000000" stroke-width="0.24" d="M90.151,515.81c-6.03-9.813-17.977-15.389-27.686-15.1
	c-7.682-0.202-16.922,3.282-23.286,9.646c-6.362,6.363-9.85,15.604-9.645,23.286c-0.205,7.683,3.281,16.922,9.645,23.285
	c6.364,6.362,15.604,9.85,23.286,9.646c7.872,0.117,17.229-3.231,23.677-10.041"/>
</svg>
